B612-Italic.ufo
<glyph name="exclam" format="1">
  <advance width="700"/>
  <unicode hex="0021"/>
  <outline>
    <contour>
      <point x="644" y="1500" type="line"/>
      <point x="459" y="450" type="line"/>
      <point x="245" y="429" type="line"/>
      <point x="434" y="1500" type="line"/>
    </contour>
    <contour>
      <point x="167" y="120" type="qcurve"/>
      <point x="167" y="148"/>
      <point x="194" y="200"/>
      <point x="238" y="238"/>
      <point x="293" y="257"/>
      <point x="321" y="252" type="qcurve"/>
      <point x="375" y="242"/>
      <point x="431" y="167"/>
      <point x="430" y="120" type="qcurve"/>
      <point x="429" y="91"/>
      <point x="402" y="40"/>
      <point x="359" y="2"/>
      <point x="304" y="-17"/>
      <point x="276" y="-14" type="qcurve"/>
      <point x="221" y="-7"/>
      <point x="166" y="67"/>
    </contour>
  </outline>
</glyph>
<glyph name="numbersign" format="1">
  <advance width="1700"/>
  <unicode hex="0023"/>
  <outline>
    <contour>
      <point x="1488" y="950" type="line"/>
      <point x="1367" y="550" type="line"/>
      <point x="1689" y="550" type="line"/>
      <point x="1643" y="400" type="line"/>
      <point x="1324" y="400" type="line"/>
      <point x="1204" y="0" type="line"/>
      <point x="996" y="-20" type="line"/>
      <point x="1124" y="400" type="line"/>
      <point x="671" y="400" type="line"/>
      <point x="553" y="0" type="line"/>
      <point x="346" y="-20" type="line"/>
      <point x="471" y="400" type="line"/>
      <point x="177" y="400" type="line"/>
      <point x="203" y="550" type="line"/>
      <point x="514" y="550" type="line"/>
      <point x="636" y="950" type="line"/>
      <point x="274" y="950" type="line"/>
      <point x="320" y="1100" type="line"/>
      <point x="679" y="1100" type="line"/>
      <point x="736" y="1285" type="line"/>
      <point x="774" y="1500" type="line"/>
      <point x="1007" y="1520" type="line"/>
      <point x="879" y="1100" type="line"/>
      <point x="1332" y="1100" type="line"/>
      <point x="1451" y="1500" type="line"/>
      <point x="1659" y="1520" type="line"/>
      <point x="1533" y="1100" type="line"/>
      <point x="1786" y="1100" type="line"/>
      <point x="1760" y="950" type="line"/>
    </contour>
    <contour>
      <point x="1287" y="950" type="line"/>
      <point x="836" y="950" type="line"/>
      <point x="716" y="550" type="line"/>
      <point x="1167" y="550" type="line"/>
    </contour>
  </outline>
</glyph>
<glyph name="ampersand" format="1">
  <advance width="1400"/>
  <unicode hex="0026"/>
  <outline>
    <contour>
      <point x="1431" y="713" type="line"/>
      <point x="1428" y="626"/>
      <point x="1379" y="463"/>
      <point x="1296" y="317"/>
      <point x="1183" y="192"/>
      <point x="1116" y="141" type="qcurve"/>
      <point x="1200" y="157" type="line"/>
      <point x="1302" y="-20" type="line"/>
      <point x="1079" y="-20" type="line"/>
      <point x="1024" y="77" type="line"/>
      <point x="987" y="48"/>
      <point x="902" y="10"/>
      <point x="811" y="-12"/>
      <point x="716" y="-21"/>
      <point x="668" y="-20" type="qcurve"/>
      <point x="610" y="-19"/>
      <point x="492" y="9"/>
      <point x="384" y="65"/>
      <point x="292" y="147"/>
      <point x="228" y="256"/>
      <point x="196" y="392"/>
      <point x="203" y="474" type="qcurve"/>
      <point x="208" y="535"/>
      <point x="248" y="644"/>
      <point x="307" y="736"/>
      <point x="378" y="812"/>
      <point x="452" y="868"/>
      <point x="523" y="903"/>
      <point x="551" y="909" type="qcurve"/>
      <point x="523" y="966"/>
      <point x="509" y="1102"/>
      <point x="511" y="1176" type="qcurve"/>
      <point x="513" y="1257"/>
      <point x="587" y="1392"/>
      <point x="707" y="1485"/>
      <point x="861" y="1529"/>
      <point x="944" y="1520" type="qcurve"/>
      <point x="1011" y="1512"/>
      <point x="1116" y="1475"/>
      <point x="1196" y="1424"/>
      <point x="1253" y="1366"/>
      <point x="1273" y="1338" type="qcurve"/>
      <point x="1173" y="1220" type="line"/>
      <point x="1137" y="1281"/>
      <point x="1014" y="1357"/>
      <point x="915" y="1359" type="qcurve"/>
      <point x="867" y="1360"/>
      <point x="783" y="1336"/>
      <point x="722" y="1289"/>
      <point x="686" y="1220"/>
      <point x="686" y="1175" type="qcurve"/>
      <point x="686" y="1161"/>
      <point x="683" y="1130"/>
      <point x="685" y="1112" type="qcurve"/>
      <point x="686" y="1097"/>
      <point x="695" y="1063"/>
      <point x="722" y="1004"/>
      <point x="774" y="906"/>
      <point x="863" y="748"/>
      <point x="995" y="517"/>
      <point x="1089" y="355" type="qcurve"/>
      <point x="1147" y="406"/>
      <point x="1220" y="570"/>
      <point x="1234" y="692" type="qcurve"/>
    </contour>
    <contour>
      <point x="698" y="149" type="qcurve"/>
      <point x="761" y="149"/>
      <point x="881" y="180"/>
      <point x="944" y="217" type="qcurve"/>
      <point x="597" y="828" type="line"/>
      <point x="583" y="745" type="line"/>
      <point x="483" y="698"/>
      <point x="380" y="569"/>
      <point x="372" y="475" type="qcurve"/>
      <point x="366" y="406"/>
      <point x="417" y="291"/>
      <point x="508" y="206"/>
      <point x="631" y="154"/>
    </contour>
  </outline>
</glyph>
<glyph name="parenright" format="1">
  <advance width="900"/>
  <unicode hex="0029"/>
  <outline>
    <contour>
      <point x="700" y="0" type="line"/>
      <point x="688" y="-67"/>
      <point x="667" y="-182"/>
      <point x="636" y="-276"/>
      <point x="589" y="-348"/>
      <point x="515" y="-396"/>
      <point x="407" y="-421"/>
      <point x="331" y="-420" type="qcurve"/>
      <point x="311" y="-420"/>
      <point x="271" y="-416"/>
      <point x="235" y="-410"/>
      <point x="205" y="-401"/>
      <point x="197" y="-395" type="qcurve"/>
      <point x="288" y="-269" type="line"/>
      <point x="302" y="-272" type="line"/>
      <point x="308" y="-273"/>
      <point x="326" y="-274"/>
      <point x="337" y="-274" type="qcurve"/>
      <point x="388" y="-274"/>
      <point x="446" y="-231"/>
      <point x="478" y="-160"/>
      <point x="494" y="-66"/>
      <point x="503" y="-14" type="qcurve"/>
      <point x="716" y="1194" type="line"/>
      <point x="725" y="1246"/>
      <point x="738" y="1339"/>
      <point x="728" y="1409"/>
      <point x="687" y="1452"/>
      <point x="642" y="1454" type="qcurve"/>
      <point x="631" y="1455"/>
      <point x="613" y="1452"/>
      <point x="605" y="1451" type="qcurve"/>
      <point x="591" y="1449" type="line"/>
      <point x="544" y="1575" type="line"/>
      <point x="554" y="1581"/>
      <point x="587" y="1590"/>
      <point x="626" y="1597"/>
      <point x="668" y="1600"/>
      <point x="688" y="1600" type="qcurve"/>
      <point x="781" y="1600"/>
      <point x="885" y="1533"/>
      <point x="928" y="1418"/>
      <point x="923" y="1265"/>
      <point x="908" y="1180" type="qcurve"/>
    </contour>
  </outline>
</glyph>
<glyph name="asterisk" format="1">
  <advance width="1100"/>
  <unicode hex="002A"/>
  <outline>
    <contour>
      <point x="806" y="994" type="line"/>
      <point x="912" y="802" type="line"/>
      <point x="797" y="712" type="line"/>
      <point x="684" y="918" type="line"/>
      <point x="673" y="990" type="line"/>
      <point x="636" y="918" type="line"/>
      <point x="463" y="726" type="line"/>
      <point x="358" y="793" type="line"/>
      <point x="542" y="996" type="line"/>
      <point x="615" y="1041" type="line"/>
      <point x="535" y="1045" type="line"/>
      <point x="325" y="1118" type="line"/>
      <point x="375" y="1249" type="line"/>
      <point x="599" y="1172" type="line"/>
      <point x="656" y="1120" type="line"/>
      <point x="648" y="1202" type="line"/>
      <point x="690" y="1436" type="line"/>
      <point x="825" y="1450" type="line"/>
      <point x="781" y="1198" type="line"/>
      <point x="741" y="1118" type="line"/>
      <point x="815" y="1168" type="line"/>
      <point x="1053" y="1240" type="line"/>
      <point x="1086" y="1118" type="line"/>
      <point x="830" y="1040" type="line"/>
      <point x="750" y="1037" type="line"/>
    </contour>
  </outline>
</glyph>
<glyph name="comma" format="1">
  <advance width="500"/>
  <unicode hex="002C"/>
  <outline>
    <contour>
      <point x="125" y="133" type="qcurve"/>
      <point x="125" y="164"/>
      <point x="157" y="220"/>
      <point x="206" y="261"/>
      <point x="268" y="281"/>
      <point x="298" y="277" type="qcurve"/>
      <point x="323" y="274"/>
      <point x="368" y="252"/>
      <point x="401" y="213"/>
      <point x="420" y="156"/>
      <point x="418" y="116" type="qcurve"/>
      <point x="415" y="63"/>
      <point x="385" y="-44"/>
      <point x="322" y="-149"/>
      <point x="223" y="-252"/>
      <point x="152" y="-301" type="qcurve"/>
      <point x="104" y="-278" type="line"/>
      <point x="153" y="-226"/>
      <point x="226" y="-89"/>
      <point x="233" y="-11" type="qcurve"/>
      <point x="188" y="-9"/>
      <point x="125" y="60"/>
    </contour>
  </outline>
</glyph>
<glyph name="hyphen" format="1">
  <advance width="900"/>
  <unicode hex="002D"/>
  <outline>
    <contour>
      <point x="305" y="600" type="line"/>
      <point x="805" y="600" type="line"/>
      <point x="778" y="445" type="line"/>
      <point x="278" y="445" type="line"/>
    </contour>
  </outline>
</glyph>
<glyph name="period" format="1">
  <advance width="500"/>
  <unicode hex="002E"/>
  <outline>
    <contour>
      <point x="112" y="150" type="qcurve"/>
      <point x="112" y="184"/>
      <point x="146" y="249"/>
      <point x="201" y="297"/>
      <point x="270" y="321"/>
      <point x="305" y="315" type="qcurve"/>
      <point x="339" y="309"/>
      <point x="390" y="278"/>
      <point x="425" y="234"/>
      <point x="442" y="179"/>
      <point x="441" y="150" type="qcurve"/>
      <point x="440" y="114"/>
      <point x="407" y="50"/>
      <point x="353" y="3"/>
      <point x="285" y="-21"/>
      <point x="249" y="-17" type="qcurve"/>
      <point x="181" y="-9"/>
      <point x="111" y="84"/>
    </contour>
  </outline>
</glyph>
<glyph name="zero" format="1">
  <advance width="1300"/>
  <unicode hex="0030"/>
  <outline>
    <contour>
      <point x="599" y="-17" type="qcurve"/>
      <point x="514" y="-7"/>
      <point x="390" y="66"/>
      <point x="303" y="178"/>
      <point x="250" y="322"/>
      <point x="225" y="485"/>
      <point x="224" y="662"/>
      <point x="232" y="750" type="qcurve"/>
      <point x="240" y="841"/>
      <point x="290" y="1031"/>
      <point x="370" y="1207"/>
      <point x="480" y="1361"/>
      <point x="616" y="1471"/>
      <point x="777" y="1526"/>
      <point x="869" y="1517" type="qcurve"/>
      <point x="952" y="1508"/>
      <point x="1076" y="1437"/>
      <point x="1165" y="1325"/>
      <point x="1219" y="1179"/>
      <point x="1246" y="1014"/>
      <point x="1246" y="837"/>
      <point x="1236" y="750" type="qcurve"/>
      <point x="1225" y="658"/>
      <point x="1172" y="468"/>
      <point x="1089" y="290"/>
      <point x="978" y="136"/>
      <point x="844" y="26"/>
      <point x="687" y="-28"/>
    </contour>
    <contour>
      <point x="438" y="793" type="qcurve"/>
      <point x="430" y="735"/>
      <point x="416" y="600"/>
      <point x="415" y="463"/>
      <point x="433" y="335"/>
      <point x="483" y="232"/>
      <point x="569" y="165"/>
      <point x="637" y="158" type="qcurve"/>
      <point x="695" y="152"/>
      <point x="796" y="194"/>
      <point x="880" y="274"/>
      <point x="947" y="385"/>
      <point x="995" y="511"/>
      <point x="1024" y="644"/>
      <point x="1029" y="707" type="qcurve"/>
      <point x="1033" y="765"/>
      <point x="1044" y="901"/>
      <point x="1044" y="1038"/>
      <point x="1027" y="1166"/>
      <point x="980" y="1268"/>
      <point x="896" y="1334"/>
      <point x="830" y="1341" type="qcurve"/>
      <point x="769" y="1347"/>
      <point x="669" y="1306"/>
      <point x="588" y="1226"/>
      <point x="524" y="1115"/>
      <point x="478" y="989"/>
      <point x="447" y="856"/>
    </contour>
  </outline>
</glyph>
<glyph name="one" format="1">
  <advance width="1300"/>
  <unicode hex="0031"/>
  <outline>
    <contour>
      <point x="350" y="0" type="line"/>
      <point x="378" y="160" type="line"/>
      <point x="623" y="160" type="line"/>
      <point x="793" y="1126" type="line"/>
      <point x="891" y="1353" type="line"/>
      <point x="722" y="1167" type="line"/>
      <point x="477" y="979" type="line"/>
      <point x="390" y="1100" type="line"/>
      <point x="923" y="1520" type="line"/>
      <point x="1059" y="1500" type="line"/>
      <point x="823" y="160" type="line"/>
      <point x="1068" y="160" type="line"/>
      <point x="1040" y="0" type="line"/>
    </contour>
  </outline>
</glyph>
<glyph name="two" format="1">
  <advance width="1300"/>
  <unicode hex="0032"/>
  <outline>
    <contour>
      <point x="152" y="0" type="line"/>
      <point x="181" y="168" type="line"/>
      <point x="242" y="258"/>
      <point x="380" y="415"/>
      <point x="519" y="548"/>
      <point x="650" y="658"/>
      <point x="703" y="702" type="qcurve"/>
      <point x="770" y="758"/>
      <point x="890" y="857"/>
      <point x="980" y="955"/>
      <point x="1031" y="1056"/>
      <point x="1031" y="1115" type="qcurve"/>
      <point x="1030" y="1206"/>
      <point x="933" y="1329"/>
      <point x="827" y="1348" type="qcurve"/>
      <point x="770" y="1358"/>
      <point x="674" y="1333"/>
      <point x="594" y="1277"/>
      <point x="531" y="1201"/>
      <point x="507" y="1160" type="qcurve"/>
      <point x="377" y="1220" type="line"/>
      <point x="412" y="1295"/>
      <point x="513" y="1411"/>
      <point x="639" y="1487"/>
      <point x="789" y="1523"/>
      <point x="872" y="1517" type="qcurve"/>
      <point x="966" y="1511"/>
      <point x="1103" y="1435"/>
      <point x="1190" y="1319"/>
      <point x="1228" y="1177"/>
      <point x="1224" y="1104" type="qcurve"/>
      <point x="1220" y="1026"/>
      <point x="1145" y="887"/>
      <point x="1036" y="762"/>
      <point x="910" y="653"/>
      <point x="855" y="605" type="qcurve"/>
      <point x="793" y="552"/>
      <point x="669" y="444"/>
      <point x="554" y="334"/>
      <point x="453" y="220"/>
      <point x="414" y="160" type="qcurve"/>
      <point x="1084" y="160" type="line"/>
      <point x="1056" y="0" type="line"/>
    </contour>
  </outline>
</glyph>
<glyph name="three" format="1">
  <advance width="1300"/>
  <unicode hex="0033"/>
  <outline>
    <contour>
      <point x="451" y="1340" type="line"/>
      <point x="494" y="1500" type="line"/>
      <point x="1224" y="1500" type="line"/>
      <point x="1199" y="1360" type="line"/>
      <point x="1180" y="1320"/>
      <point x="1108" y="1233"/>
      <point x="1015" y="1145"/>
      <point x="909" y="1058"/>
      <point x="856" y="1019" type="qcurve"/>
      <point x="711" y="945" type="line"/>
      <point x="721" y="947"/>
      <point x="753" y="947"/>
      <point x="767" y="948" type="qcurve"/>
      <point x="840" y="951"/>
      <point x="984" y="897"/>
      <point x="1095" y="792"/>
      <point x="1156" y="644"/>
      <point x="1145" y="553" type="qcurve"/>
      <point x="1132" y="448"/>
      <point x="1043" y="285"/>
      <point x="904" y="162"/>
      <point x="726" y="77"/>
      <point x="524" y="24"/>
      <point x="307" y="0"/>
      <point x="200" y="0" type="qcurve"/>
      <point x="228" y="160" type="line"/>
      <point x="307" y="161"/>
      <point x="472" y="178"/>
      <point x="628" y="214"/>
      <point x="768" y="272"/>
      <point x="874" y="356"/>
      <point x="939" y="470"/>
      <point x="943" y="543" type="qcurve"/>
      <point x="946" y="607"/>
      <point x="898" y="703"/>
      <point x="805" y="765"/>
      <point x="674" y="793"/>
      <point x="595" y="790" type="qcurve"/>
      <point x="563" y="788"/>
      <point x="487" y="787"/>
      <point x="457" y="785" type="qcurve"/>
      <point x="484" y="940" type="line"/>
      <point x="530" y="970"/>
      <point x="640" y="1046"/>
      <point x="752" y="1129"/>
      <point x="861" y="1214"/>
      <point x="950" y="1291"/>
      <point x="1014" y="1358"/>
      <point x="1026" y="1380" type="qcurve"/>
      <point x="867" y="1340" type="line"/>
    </contour>
  </outline>
</glyph>
<glyph name="five" format="1">
  <advance width="1300"/>
  <unicode hex="0035"/>
  <outline>
    <contour>
      <point x="571" y="982" type="line"/>
      <point x="579" y="986"/>
      <point x="615" y="1004"/>
      <point x="663" y="1022"/>
      <point x="718" y="1035"/>
      <point x="745" y="1035" type="qcurve"/>
      <point x="853" y="1035"/>
      <point x="1007" y="971"/>
      <point x="1103" y="858"/>
      <point x="1143" y="706"/>
      <point x="1138" y="619" type="qcurve"/>
      <point x="1131" y="509"/>
      <point x="1050" y="332"/>
      <point x="917" y="194"/>
      <point x="740" y="95"/>
      <point x="536" y="31"/>
      <point x="313" y="0"/>
      <point x="200" y="0" type="qcurve"/>
      <point x="228" y="160" type="line"/>
      <point x="371" y="160"/>
      <point x="623" y="224"/>
      <point x="815" y="340"/>
      <point x="931" y="501"/>
      <point x="939" y="598" type="qcurve"/>
      <point x="943" y="650"/>
      <point x="912" y="746"/>
      <point x="849" y="821"/>
      <point x="755" y="866"/>
      <point x="697" y="866" type="qcurve"/>
      <point x="615" y="866"/>
      <point x="502" y="832"/>
      <point x="455" y="800" type="qcurve"/>
      <point x="341" y="800" type="line"/>
      <point x="464" y="1500" type="line"/>
      <point x="1207" y="1500" type="line"/>
      <point x="1179" y="1340" type="line"/>
      <point x="634" y="1340" type="line"/>
    </contour>
  </outline>
</glyph>
<glyph name="nine" format="1">
  <advance width="1300"/>
  <unicode hex="0039"/>
  <outline>
    <contour>
      <point x="964" y="663" type="line"/>
      <point x="931" y="640"/>
      <point x="868" y="606"/>
      <point x="805" y="583"/>
      <point x="738" y="572"/>
      <point x="701" y="573" type="qcurve"/>
      <point x="614" y="575"/>
      <point x="471" y="636"/>
      <point x="370" y="752"/>
      <point x="317" y="921"/>
      <point x="320" y="1031" type="qcurve"/>
      <point x="323" y="1142"/>
      <point x="417" y="1331"/>
      <point x="573" y="1464"/>
      <point x="777" y="1530"/>
      <point x="890" y="1517" type="qcurve"/>
      <point x="988" y="1506"/>
      <point x="1124" y="1437"/>
      <point x="1212" y="1337"/>
      <point x="1258" y="1212"/>
      <point x="1277" y="1078"/>
      <point x="1275" y="942"/>
      <point x="1271" y="880" type="qcurve"/>
      <point x="1262" y="761"/>
      <point x="1185" y="536"/>
      <point x="1059" y="336"/>
      <point x="892" y="170"/>
      <point x="695" y="50"/>
      <point x="474" y="-17"/>
      <point x="358" y="-17" type="qcurve"/>
      <point x="356" y="150" type="line"/>
      <point x="482" y="153"/>
      <point x="717" y="244"/>
      <point x="909" y="408"/>
      <point x="1042" y="638"/>
      <point x="1065" y="780" type="qcurve"/>
    </contour>
    <contour>
      <point x="1084" y="953" type="qcurve"/>
      <point x="1087" y="1027"/>
      <point x="1073" y="1163"/>
      <point x="1025" y="1270"/>
      <point x="935" y="1340"/>
      <point x="863" y="1347" type="qcurve"/>
      <point x="791" y="1354"/>
      <point x="671" y="1311"/>
      <point x="580" y="1229"/>
      <point x="524" y="1114"/>
      <point x="517" y="1049" type="qcurve"/>
      <point x="510" y="983"/>
      <point x="526" y="877"/>
      <point x="578" y="798"/>
      <point x="669" y="750"/>
      <point x="736" y="743" type="qcurve"/>
      <point x="789" y="737"/>
      <point x="893" y="764"/>
      <point x="985" y="821"/>
      <point x="1060" y="903"/>
    </contour>
  </outline>
</glyph>
<glyph name="greater" format="1">
  <advance width="1300"/>
  <unicode hex="003E"/>
  <outline>
    <contour>
      <point x="1227" y="733" type="line"/>
      <point x="1190" y="524" type="line"/>
      <point x="211" y="67" type="line"/>
      <point x="242" y="242" type="line"/>
      <point x="994" y="606" type="line"/>
      <point x="1075" y="626" type="line"/>
      <point x="1000" y="646" type="line"/>
      <point x="378" y="1012" type="line"/>
      <point x="409" y="1187" type="line"/>
    </contour>
  </outline>
</glyph>
<glyph name="question" format="1">
  <advance width="1100"/>
  <unicode hex="003F"/>
  <outline>
    <contour>
      <point x="1201" y="1144" type="qcurve"/>
      <point x="1197" y="1063"/>
      <point x="1127" y="942"/>
      <point x="1025" y="843"/>
      <point x="904" y="755"/>
      <point x="792" y="655"/>
      <point x="703" y="533"/>
      <point x="684" y="450" type="qcurve"/>
      <point x="470" y="429" type="line"/>
      <point x="488" y="517"/>
      <point x="551" y="653"/>
      <point x="630" y="758"/>
      <point x="719" y="839"/>
      <point x="807" y="907"/>
      <point x="888" y="967"/>
      <point x="951" y="1031"/>
      <point x="991" y="1105"/>
      <point x="993" y="1152" type="qcurve"/>
      <point x="996" y="1203"/>
      <point x="963" y="1277"/>
      <point x="903" y="1327"/>
      <point x="821" y="1351"/>
      <point x="773" y="1351" type="qcurve"/>
      <point x="685" y="1351"/>
      <point x="520" y="1273"/>
      <point x="449" y="1190" type="qcurve"/>
      <point x="336" y="1300" type="line"/>
      <point x="388" y="1362"/>
      <point x="505" y="1445"/>
      <point x="630" y="1496"/>
      <point x="761" y="1517"/>
      <point x="827" y="1517" type="qcurve"/>
      <point x="905" y="1517"/>
      <point x="1046" y="1473"/>
      <point x="1149" y="1382"/>
      <point x="1206" y="1241"/>
    </contour>
    <contour>
      <point x="425" y="120" type="qcurve"/>
      <point x="425" y="147"/>
      <point x="452" y="199"/>
      <point x="496" y="238"/>
      <point x="551" y="257"/>
      <point x="579" y="252" type="qcurve"/>
      <point x="606" y="247"/>
      <point x="647" y="222"/>
      <point x="675" y="187"/>
      <point x="689" y="143"/>
      <point x="688" y="120" type="qcurve"/>
      <point x="687" y="91"/>
      <point x="661" y="40"/>
      <point x="617" y="2"/>
      <point x="563" y="-17"/>
      <point x="534" y="-14" type="qcurve"/>
      <point x="480" y="-7"/>
      <point x="424" y="67"/>
    </contour>
  </outline>
</glyph>
<glyph name="B" format="1">
  <advance width="1300"/>
  <unicode hex="0042"/>
  <outline>
    <contour>
      <point x="619" y="1359" type="qcurve"/>
      <point x="602" y="1147" type="line"/>
      <point x="556" y="885" type="line"/>
      <point x="666" y="885" type="line"/>
      <point x="738" y="885"/>
      <point x="871" y="913"/>
      <point x="976" y="976"/>
      <point x="1045" y="1076"/>
      <point x="1052" y="1148" type="qcurve"/>
      <point x="1058" y="1214"/>
      <point x="1016" y="1301"/>
      <point x="937" y="1353"/>
      <point x="831" y="1375"/>
      <point x="774" y="1375" type="qcurve"/>
      <point x="757" y="1375"/>
      <point x="716" y="1373"/>
      <point x="674" y="1368"/>
      <point x="635" y="1362"/>
    </contour>
    <contour>
      <point x="200" y="0" type="line"/>
      <point x="427" y="1290" type="line"/>
      <point x="432" y="1490" type="line"/>
      <point x="462" y="1494"/>
      <point x="540" y="1502"/>
      <point x="622" y="1507"/>
      <point x="701" y="1510"/>
      <point x="733" y="1510" type="qcurve"/>
      <point x="844" y="1510"/>
      <point x="1037" y="1479"/>
      <point x="1176" y="1402"/>
      <point x="1249" y="1270"/>
      <point x="1240" y="1169" type="qcurve"/>
      <point x="1234" y="1103"/>
      <point x="1190" y="1003"/>
      <point x="1124" y="928"/>
      <point x="1041" y="877"/>
      <point x="997" y="860" type="qcurve"/>
      <point x="835" y="816" type="line"/>
      <point x="980" y="802" type="line"/>
      <point x="1038" y="784"/>
      <point x="1132" y="728"/>
      <point x="1195" y="646"/>
      <point x="1223" y="534"/>
      <point x="1215" y="460" type="qcurve"/>
      <point x="1201" y="331"/>
      <point x="1088" y="155"/>
      <point x="919" y="47"/>
      <point x="707" y="0"/>
      <point x="596" y="0" type="qcurve"/>
    </contour>
    <contour>
      <point x="428" y="160" type="line"/>
      <point x="568" y="160" type="line"/>
      <point x="670" y="160"/>
      <point x="830" y="185"/>
      <point x="943" y="251"/>
      <point x="1010" y="363"/>
      <point x="1021" y="450" type="qcurve"/>
      <point x="1030" y="526"/>
      <point x="989" y="632"/>
      <point x="903" y="699"/>
      <point x="781" y="730"/>
      <point x="708" y="730" type="qcurve"/>
      <point x="528" y="730" type="line"/>
    </contour>
  </outline>
</glyph>
<glyph name="D" format="1">
  <advance width="1300"/>
  <unicode hex="0044"/>
  <outline>
    <contour>
      <point x="394" y="1500" type="line"/>
      <point x="425" y="1503"/>
      <point x="507" y="1507"/>
      <point x="594" y="1510"/>
      <point x="678" y="1511"/>
      <point x="711" y="1511" type="qcurve"/>
      <point x="870" y="1511"/>
      <point x="1114" y="1434"/>
      <point x="1273" y="1266"/>
      <point x="1340" y="1000"/>
      <point x="1322" y="810" type="qcurve"/>
      <point x="1308" y="661"/>
      <point x="1224" y="426"/>
      <point x="1096" y="246"/>
      <point x="932" y="118"/>
      <point x="744" y="37"/>
      <point x="540" y="0"/>
      <point x="436" y="0" type="qcurve"/>
      <point x="160" y="0" type="line"/>
      <point x="387" y="1290" type="line"/>
    </contour>
    <contour>
      <point x="562" y="1150" type="line"/>
      <point x="550" y="1083"/>
      <point x="527" y="953" type="qcurve"/>
      <point x="517" y="897"/>
      <point x="491" y="747"/>
      <point x="457" y="552"/>
      <point x="414" y="309"/>
      <point x="388" y="160" type="qcurve"/>
      <point x="408" y="160" type="line"/>
      <point x="553" y="160"/>
      <point x="766" y="212"/>
      <point x="918" y="303"/>
      <point x="1018" y="425"/>
      <point x="1081" y="565"/>
      <point x="1115" y="715"/>
      <point x="1126" y="788" type="qcurve"/>
      <point x="1144" y="908"/>
      <point x="1128" y="1116"/>
      <point x="1031" y="1270"/>
      <point x="838" y="1358"/>
      <point x="680" y="1358" type="qcurve"/>
      <point x="664" y="1358"/>
      <point x="628" y="1356"/>
      <point x="611" y="1354" type="qcurve"/>
      <point x="592" y="1352"/>
      <point x="573" y="1350" type="qcurve"/>
    </contour>
  </outline>
</glyph>
<glyph name="E" format="1">
  <advance width="1200"/>
  <unicode hex="0045"/>
  <outline>
    <contour>
      <point x="1073" y="160" type="line"/>
      <point x="1025" y="0" type="line"/>
      <point x="185" y="0" type="line"/>
      <point x="235" y="200" type="line"/>
      <point x="427" y="1290" type="line"/>
      <point x="434" y="1500" type="line"/>
      <point x="1274" y="1500" type="line"/>
      <point x="1246" y="1340" type="line"/>
      <point x="616" y="1340" type="line"/>
      <point x="602" y="1150" type="line"/>
      <point x="556" y="885" type="line"/>
      <point x="1096" y="885" type="line"/>
      <point x="1070" y="740" type="line"/>
      <point x="530" y="740" type="line"/>
      <point x="459" y="340" type="line"/>
      <point x="418" y="160" type="line"/>
    </contour>
  </outline>
</glyph>
<glyph name="F" format="1">
  <advance width="1100"/>
  <unicode hex="0046"/>
  <outline>
    <contour>
      <point x="400" y="0" type="line"/>
      <point x="200" y="0" type="line"/>
      <point x="427" y="1290" type="line"/>
      <point x="434" y="1500" type="line"/>
      <point x="1309" y="1500" type="line"/>
      <point x="1261" y="1340" type="line"/>
      <point x="616" y="1340" type="line"/>
      <point x="602" y="1150" type="line"/>
      <point x="556" y="885" type="line"/>
      <point x="1096" y="885" type="line"/>
      <point x="1070" y="740" type="line"/>
      <point x="530" y="740" type="line"/>
    </contour>
  </outline>
</glyph>
<glyph name="G" format="1">
  <advance width="1400"/>
  <unicode hex="0047"/>
  <outline>
    <contour>
      <point x="998" y="1517" type="qcurve"/>
      <point x="1046" y="1517"/>
      <point x="1140" y="1495"/>
      <point x="1227" y="1459"/>
      <point x="1302" y="1411"/>
      <point x="1330" y="1385" type="qcurve"/>
      <point x="1232" y="1263" type="line"/>
      <point x="1208" y="1282"/>
      <point x="1145" y="1311"/>
      <point x="1075" y="1331"/>
      <point x="1003" y="1341"/>
      <point x="971" y="1341" type="qcurve"/>
      <point x="849" y="1341"/>
      <point x="663" y="1265"/>
      <point x="530" y="1119"/>
      <point x="445" y="908"/>
      <point x="426" y="773" type="qcurve"/>
      <point x="416" y="702"/>
      <point x="412" y="553"/>
      <point x="432" y="413"/>
      <point x="480" y="290"/>
      <point x="562" y="199"/>
      <point x="682" y="149"/>
      <point x="764" y="153" type="qcurve"/>
      <point x="876" y="158"/>
      <point x="1024" y="214"/>
      <point x="1063" y="258" type="qcurve"/>
      <point x="1131" y="645" type="line"/>
      <point x="817" y="665" type="line"/>
      <point x="841" y="805" type="line"/>
      <point x="1341" y="805" type="line"/>
      <point x="1234" y="197" type="line"/>
      <point x="1201" y="162"/>
      <point x="1112" y="86"/>
      <point x="987" y="23"/>
      <point x="819" y="-17"/>
      <point x="705" y="-17" type="qcurve"/>
      <point x="561" y="-17"/>
      <point x="360" y="107"/>
      <point x="243" y="320"/>
      <point x="206" y="607"/>
      <point x="225" y="770" type="qcurve"/>
      <point x="245" y="940"/>
      <point x="363" y="1216"/>
      <point x="558" y="1411"/>
      <point x="827" y="1517"/>
    </contour>
  </outline>
</glyph>
<glyph name="H" format="1">
  <advance width="1400"/>
  <unicode hex="0048"/>
  <outline>
    <contour>
      <point x="1015" y="0" type="line"/>
      <point x="1142" y="725" type="line"/>
      <point x="512" y="725" type="line"/>
      <point x="385" y="0" type="line"/>
      <point x="190" y="0" type="line"/>
      <point x="417" y="1290" type="line"/>
      <point x="425" y="1500" type="line"/>
      <point x="653" y="1520" type="line"/>
      <point x="541" y="885" type="line"/>
      <point x="1171" y="885" type="line"/>
      <point x="1279" y="1502" type="line"/>
      <point x="1478" y="1520" type="line"/>
      <point x="1210" y="0" type="line"/>
    </contour>
  </outline>
</glyph>
<glyph name="I" format="1">
  <advance width="600"/>
  <unicode hex="0049"/>
  <outline>
    <contour>
      <point x="200" y="0" type="line"/>
      <point x="427" y="1290" type="line"/>
      <point x="434" y="1500" type="line"/>
      <point x="668" y="1520" type="line"/>
      <point x="400" y="0" type="line"/>
    </contour>
  </outline>
</glyph>
<glyph name="L" format="1">
  <advance width="1100"/>
  <unicode hex="004C"/>
  <outline>
    <contour>
      <point x="418" y="160" type="line"/>
      <point x="1068" y="160" type="line"/>
      <point x="1020" y="0" type="line"/>
      <point x="180" y="0" type="line"/>
      <point x="235" y="200" type="line"/>
      <point x="427" y="1290" type="line"/>
      <point x="434" y="1500" type="line"/>
      <point x="668" y="1520" type="line"/>
      <point x="459" y="340" type="line"/>
    </contour>
  </outline>
</glyph>
<glyph name="N" format="1">
  <advance width="1500"/>
  <unicode hex="004E"/>
  <outline>
    <contour>
      <point x="1100" y="0" type="line"/>
      <point x="666" y="1028" type="line"/>
      <point x="600" y="1317" type="line"/>
      <point x="594" y="1316" type="line"/>
      <point x="576" y="1000" type="line"/>
      <point x="400" y="0" type="line"/>
      <point x="208" y="0" type="line"/>
      <point x="435" y="1290" type="line"/>
      <point x="442" y="1500" type="line"/>
      <point x="674" y="1520" type="line"/>
      <point x="1107" y="487" type="line"/>
      <point x="1172" y="173" type="line"/>
      <point x="1178" y="174" type="line"/>
      <point x="1189" y="510" type="line"/>
      <point x="1364" y="1500" type="line"/>
      <point x="1557" y="1520" type="line"/>
      <point x="1289" y="0" type="line"/>
    </contour>
  </outline>
</glyph>
<glyph name="Q" format="1">
  <advance width="1600"/>
  <unicode hex="0051"/>
  <outline>
    <contour>
      <point x="1460" y="-1" type="qcurve"/>
      <point x="1378" y="-145" type="line"/>
      <point x="1322" y="-145"/>
      <point x="1214" y="-121"/>
      <point x="1117" y="-63"/>
      <point x="1035" y="31"/>
      <point x="1004" y="102" type="qcurve"/>
      <point x="1000" y="111"/>
      <point x="995" y="129"/>
      <point x="991" y="137" type="qcurve"/>
      <point x="956" y="-1" type="line"/>
      <point x="918" y="-9"/>
      <point x="839" y="-17"/>
      <point x="797" y="-17" type="qcurve"/>
      <point x="659" y="-17"/>
      <point x="444" y="96"/>
      <point x="304" y="298"/>
      <point x="246" y="580"/>
      <point x="266" y="750" type="qcurve"/>
      <point x="287" y="926"/>
      <point x="412" y="1214"/>
      <point x="615" y="1417"/>
      <point x="893" y="1523"/>
      <point x="1067" y="1517" type="qcurve"/>
      <point x="1172" y="1513"/>
      <point x="1338" y="1453"/>
      <point x="1462" y="1350"/>
      <point x="1547" y="1209"/>
      <point x="1595" y="1041"/>
      <point x="1607" y="851"/>
      <point x="1598" y="750" type="qcurve"/>
      <point x="1586" y="619"/>
      <point x="1519" y="413"/>
      <point x="1421" y="252"/>
      <point x="1295" y="130"/>
      <point x="1224" y="83" type="qcurve"/>
      <point x="1246" y="46"/>
      <point x="1290" y="11"/>
      <point x="1344" y="-2"/>
      <point x="1413" y="-1"/>
    </contour>
    <contour>
      <point x="1394" y="719" type="qcurve"/>
      <point x="1409" y="840"/>
      <point x="1377" y="1063"/>
      <point x="1285" y="1236"/>
      <point x="1135" y="1343"/>
      <point x="1031" y="1347" type="qcurve"/>
      <point x="910" y="1352"/>
      <point x="717" y="1274"/>
      <point x="575" y="1125"/>
      <point x="486" y="913"/>
      <point x="470" y="785" type="qcurve"/>
      <point x="455" y="668"/>
      <point x="479" y="442"/>
      <point x="565" y="263"/>
      <point x="718" y="153"/>
      <point x="832" y="153" type="qcurve"/>
      <point x="870" y="153"/>
      <point x="943" y="163"/>
      <point x="975" y="172" type="qcurve"/>
      <point x="954" y="217"/>
      <point x="908" y="269"/>
      <point x="853" y="295"/>
      <point x="782" y="301"/>
      <point x="735" y="301" type="qcurve"/>
      <point x="817" y="445" type="line"/>
      <point x="872" y="445"/>
      <point x="972" y="421"/>
      <point x="1062" y="361"/>
      <point x="1141" y="257"/>
      <point x="1176" y="177" type="qcurve"/>
      <point x="1187" y="269" type="line"/>
      <point x="1230" y="308"/>
      <point x="1300" y="412"/>
      <point x="1352" y="530"/>
      <point x="1386" y="657"/>
    </contour>
  </outline>
</glyph>
<glyph name="T" format="1">
  <advance width="1200"/>
  <unicode hex="0054"/>
  <outline>
    <contour>
      <point x="505" y="0" type="line"/>
      <point x="741" y="1340" type="line"/>
      <point x="326" y="1340" type="line"/>
      <point x="354" y="1500" type="line"/>
      <point x="1379" y="1500" type="line"/>
      <point x="1351" y="1340" type="line"/>
      <point x="941" y="1340" type="line"/>
      <point x="705" y="0" type="line"/>
    </contour>
  </outline>
</glyph>
<glyph name="X" format="1">
  <advance width="1300"/>
  <unicode hex="0058"/>
  <outline>
    <contour>
      <point x="1014" y="0" type="line"/>
      <point x="792" y="519" type="line"/>
      <point x="747" y="700" type="line"/>
      <point x="671" y="540" type="line"/>
      <point x="251" y="0" type="line"/>
      <point x="53" y="0" type="line"/>
      <point x="673" y="799" type="line"/>
      <point x="374" y="1500" type="line"/>
      <point x="590" y="1520" type="line"/>
      <point x="786" y="1056" type="line"/>
      <point x="831" y="860" type="line"/>
      <point x="894" y="1020" type="line"/>
      <point x="1267" y="1500" type="line"/>
      <point x="1467" y="1500" type="line"/>
      <point x="904" y="776" type="line"/>
      <point x="1234" y="0" type="line"/>
    </contour>
  </outline>
</glyph>
<glyph name="Z" format="1">
  <advance width="1200"/>
  <unicode hex="005A"/>
  <outline>
    <contour>
      <point x="1118" y="160" type="line"/>
      <point x="1110" y="0" type="line"/>
      <point x="81" y="0" type="line"/>
      <point x="69" y="50" type="line"/>
      <point x="927" y="1200" type="line"/>
      <point x="1143" y="1380" type="line"/>
      <point x="871" y="1340" type="line"/>
      <point x="386" y="1340" type="line"/>
      <point x="394" y="1500" type="line"/>
      <point x="1340" y="1500" type="line"/>
      <point x="1351" y="1478" type="line"/>
      <point x="482" y="300" type="line"/>
      <point x="273" y="120" type="line"/>
      <point x="545" y="160" type="line"/>
    </contour>
  </outline>
</glyph>
<glyph name="asciicircum" format="1">
  <advance width="1500"/>
  <unicode hex="005E"/>
  <outline>
    <contour>
      <point x="1533" y="912" type="line"/>
      <point x="1332" y="912" type="line"/>
      <point x="1012" y="1239" type="line"/>
      <point x="987" y="1350" type="line"/>
      <point x="923" y="1241" type="line"/>
      <point x="499" y="914" type="line"/>
      <point x="283" y="914" type="line"/>
      <point x="941" y="1500" type="line"/>
      <point x="1073" y="1517" type="line"/>
    </contour>
  </outline>
</glyph>
<glyph name="underscore" format="1">
  <advance width="1100"/>
  <unicode hex="005F"/>
  <outline>
    <contour>
      <point x="-52" y="-300" type="line"/>
      <point x="1047" y="-300" type="line"/>
      <point x="1019" y="-455" type="line"/>
      <point x="-80" y="-455" type="line"/>
    </contour>
  </outline>
</glyph>
<glyph name="c" format="1">
  <advance width="1000"/>
  <unicode hex="0063"/>
  <outline>
    <contour>
      <point x="959" y="901" type="line"/>
      <point x="933" y="923"/>
      <point x="888" y="953"/>
      <point x="845" y="971"/>
      <point x="798" y="979"/>
      <point x="770" y="980" type="qcurve"/>
      <point x="696" y="983"/>
      <point x="564" y="927"/>
      <point x="460" y="817"/>
      <point x="391" y="661"/>
      <point x="379" y="564" type="qcurve"/>
      <point x="368" y="476"/>
      <point x="381" y="324"/>
      <point x="439" y="210"/>
      <point x="547" y="138"/>
      <point x="631" y="129" type="qcurve"/>
      <point x="669" y="125"/>
      <point x="733" y="131"/>
      <point x="788" y="147"/>
      <point x="834" y="171"/>
      <point x="854" y="185" type="qcurve"/>
      <point x="905" y="67" type="line"/>
      <point x="848" y="25"/>
      <point x="685" y="-25"/>
      <point x="591" y="-20" type="qcurve"/>
      <point x="464" y="-13"/>
      <point x="300" y="81"/>
      <point x="211" y="239"/>
      <point x="188" y="451"/>
      <point x="201" y="577" type="qcurve"/>
      <point x="208" y="649"/>
      <point x="254" y="788"/>
      <point x="328" y="913"/>
      <point x="429" y="1017"/>
      <point x="557" y="1090"/>
      <point x="709" y="1126"/>
      <point x="797" y="1120" type="qcurve"/>
      <point x="843" y="1117"/>
      <point x="917" y="1099"/>
      <point x="982" y="1068"/>
      <point x="1042" y="1022"/>
      <point x="1074" y="991" type="qcurve"/>
    </contour>
  </outline>
</glyph>
<glyph name="e" format="1">
  <advance width="1100"/>
  <unicode hex="0065"/>
  <outline>
    <contour>
      <point x="957" y="103" type="line"/>
      <point x="927" y="75"/>
      <point x="855" y="29"/>
      <point x="765" y="-3"/>
      <point x="657" y="-19"/>
      <point x="592" y="-17" type="qcurve"/>
      <point x="466" y="-13"/>
      <point x="303" y="85"/>
      <point x="215" y="242"/>
      <point x="191" y="442"/>
      <point x="204" y="550" type="qcurve"/>
      <point x="217" y="660"/>
      <point x="300" y="865"/>
      <point x="441" y="1022"/>
      <point x="638" y="1117"/>
      <point x="766" y="1117" type="qcurve"/>
      <point x="860" y="1117"/>
      <point x="999" y="1048"/>
      <point x="1083" y="923"/>
      <point x="1111" y="750"/>
      <point x="1095" y="646" type="qcurve"/>
      <point x="1090" y="615"/>
      <point x="1075" y="563"/>
      <point x="1067" y="543" type="qcurve"/>
      <point x="1058" y="520"/>
      <point x="1049" y="500" type="qcurve"/>
      <point x="378" y="500" type="line"/>
      <point x="358" y="421"/>
      <point x="376" y="292"/>
      <point x="439" y="200"/>
      <point x="538" y="147"/>
      <point x="600" y="143" type="qcurve"/>
      <point x="650" y="140"/>
      <point x="734" y="149"/>
      <point x="801" y="167"/>
      <point x="850" y="189"/>
      <point x="865" y="199" type="qcurve"/>
    </contour>
    <contour>
      <point x="914" y="650" type="line"/>
      <point x="916" y="653"/>
      <point x="922" y="679"/>
      <point x="927" y="712"/>
      <point x="930" y="743"/>
      <point x="930" y="752" type="qcurve"/>
      <point x="930" y="788"/>
      <point x="911" y="859"/>
      <point x="869" y="918"/>
      <point x="801" y="956"/>
      <point x="753" y="958" type="qcurve"/>
      <point x="677" y="961"/>
      <point x="572" y="925"/>
      <point x="498" y="860"/>
      <point x="448" y="776"/>
      <point x="428" y="732" type="qcurve"/>
      <point x="356" y="623" type="line"/>
      <point x="549" y="650" type="line"/>
    </contour>
  </outline>
</glyph>
<glyph name="f" format="1">
  <advance width="800"/>
  <unicode hex="0066"/>
  <outline>
    <contour>
      <point x="373" y="940" type="line"/>
      <point x="223" y="940" type="line"/>
      <point x="251" y="1100" type="line"/>
      <point x="401" y="1100" type="line"/>
      <point x="429" y="1255" type="line"/>
      <point x="447" y="1352"/>
      <point x="509" y="1493"/>
      <point x="604" y="1582"/>
      <point x="736" y="1621"/>
      <point x="823" y="1617" type="qcurve"/>
      <point x="868" y="1615"/>
      <point x="938" y="1600"/>
      <point x="994" y="1576"/>
      <point x="1038" y="1546"/>
      <point x="1056" y="1529" type="qcurve"/>
      <point x="961" y="1406" type="line"/>
      <point x="929" y="1432"/>
      <point x="848" y="1468"/>
      <point x="806" y="1465" type="qcurve"/>
      <point x="768" y="1462"/>
      <point x="704" y="1444"/>
      <point x="654" y="1397"/>
      <point x="616" y="1313"/>
      <point x="604" y="1245" type="qcurve"/>
      <point x="578" y="1100" type="line"/>
      <point x="868" y="1100" type="line"/>
      <point x="820" y="940" type="line"/>
      <point x="555" y="940" type="line"/>
      <point x="390" y="0" type="line"/>
      <point x="367" y="-109"/>
      <point x="315" y="-272"/>
      <point x="232" y="-379"/>
      <point x="108" y="-427"/>
      <point x="15" y="-420" type="qcurve"/>
      <point x="-45" y="-415"/>
      <point x="-110" y="-388"/>
      <point x="-121" y="-382" type="qcurve"/>
      <point x="-56" y="-238" type="line"/>
      <point x="-45" y="-242"/>
      <point x="3" y="-259"/>
      <point x="33" y="-260" type="qcurve"/>
      <point x="78" y="-262"/>
      <point x="136" y="-227"/>
      <point x="173" y="-159"/>
      <point x="197" y="-62"/>
      <point x="208" y="0" type="qcurve"/>
    </contour>
  </outline>
</glyph>
<glyph name="h" format="1">
  <advance width="1200"/>
  <unicode hex="0068"/>
  <outline>
    <contour>
      <point x="382" y="0" type="line"/>
      <point x="200" y="0" type="line"/>
      <point x="446" y="1400" type="line"/>
      <point x="462" y="1600" type="line"/>
      <point x="667" y="1620" type="line"/>
      <point x="549" y="950" type="line"/>
      <point x="647" y="1054" type="line"/>
      <point x="677" y="1075"/>
      <point x="734" y="1100"/>
      <point x="788" y="1113"/>
      <point x="842" y="1117"/>
      <point x="870" y="1117" type="qcurve"/>
      <point x="939" y="1117"/>
      <point x="1042" y="1055"/>
      <point x="1105" y="949"/>
      <point x="1126" y="808"/>
      <point x="1112" y="730" type="qcurve"/>
      <point x="984" y="0" type="line"/>
      <point x="802" y="0" type="line"/>
      <point x="927" y="709" type="line"/>
      <point x="936" y="761"/>
      <point x="927" y="849"/>
      <point x="894" y="914"/>
      <point x="840" y="953"/>
      <point x="804" y="957" type="qcurve"/>
      <point x="768" y="961"/>
      <point x="690" y="947"/>
      <point x="616" y="915"/>
      <point x="551" y="865"/>
      <point x="528" y="833" type="qcurve"/>
    </contour>
  </outline>
</glyph>
<glyph name="i" format="1">
  <advance width="600"/>
  <unicode hex="0069"/>
  <outline>
    <contour>
      <point x="390" y="0" type="line"/>
      <point x="208" y="0" type="line"/>
      <point x="394" y="1055" type="line"/>
      <point x="579" y="1075" type="line"/>
    </contour>
    <contour>
      <point x="468" y="1500" type="line"/>
      <point x="660" y="1500" type="line"/>
      <point x="625" y="1300" type="line"/>
      <point x="433" y="1300" type="line"/>
    </contour>
  </outline>
</glyph>
<glyph name="j" format="1">
  <advance width="600"/>
  <unicode hex="006A"/>
  <outline>
    <contour>
      <point x="468" y="1500" type="line"/>
      <point x="660" y="1500" type="line"/>
      <point x="625" y="1300" type="line"/>
      <point x="433" y="1300" type="line"/>
    </contour>
    <contour>
      <point x="-74" y="-335" type="line"/>
      <point x="-63" y="-339"/>
      <point x="-15" y="-356"/>
      <point x="15" y="-357" type="qcurve"/>
      <point x="60" y="-359"/>
      <point x="117" y="-327"/>
      <point x="155" y="-263"/>
      <point x="178" y="-169"/>
      <point x="189" y="-107" type="qcurve"/>
      <point x="394" y="1055" type="line"/>
      <point x="579" y="1075" type="line"/>
      <point x="372" y="-97" type="line"/>
      <point x="352" y="-208"/>
      <point x="300" y="-372"/>
      <point x="216" y="-477"/>
      <point x="90" y="-524"/>
      <point x="-3" y="-517" type="qcurve"/>
      <point x="-63" y="-512"/>
      <point x="-128" y="-485"/>
      <point x="-139" y="-479" type="qcurve"/>
    </contour>
  </outline>
</glyph>
<glyph name="l" format="1">
  <advance width="700"/>
  <unicode hex="006C"/>
  <outline>
    <contour>
      <point x="448" y="376" type="line"/>
      <point x="433" y="299"/>
      <point x="429" y="211"/>
      <point x="449" y="164"/>
      <point x="491" y="147"/>
      <point x="522" y="143" type="qcurve"/>
      <point x="537" y="141"/>
      <point x="573" y="146"/>
      <point x="588" y="150" type="qcurve"/>
      <point x="606" y="154"/>
      <point x="623" y="161" type="qcurve"/>
      <point x="671" y="40" type="line"/>
      <point x="660" y="29"/>
      <point x="627" y="9"/>
      <point x="580" y="-7"/>
      <point x="516" y="-17"/>
      <point x="474" y="-17" type="qcurve"/>
      <point x="390" y="-17"/>
      <point x="294" y="58"/>
      <point x="252" y="178"/>
      <point x="255" y="326"/>
      <point x="270" y="400" type="qcurve"/>
      <point x="446" y="1400" type="line"/>
      <point x="462" y="1600" type="line"/>
      <point x="667" y="1620" type="line"/>
    </contour>
  </outline>
</glyph>
<glyph name="m" format="1">
  <advance width="1800"/>
  <unicode hex="006D"/>
  <outline>
    <contour>
      <point x="382" y="0" type="line"/>
      <point x="200" y="0" type="line"/>
      <point x="393" y="1100" type="line"/>
      <point x="579" y="1120" type="line"/>
      <point x="547" y="937" type="line"/>
      <point x="627" y="1044" type="line"/>
      <point x="651" y="1061"/>
      <point x="701" y="1088"/>
      <point x="762" y="1107"/>
      <point x="839" y="1117"/>
      <point x="890" y="1117" type="qcurve"/>
      <point x="941" y="1117"/>
      <point x="1023" y="1086"/>
      <point x="1084" y="1033"/>
      <point x="1122" y="960"/>
      <point x="1128" y="918" type="qcurve"/>
      <point x="1222" y="1040" type="line"/>
      <point x="1243" y="1058"/>
      <point x="1296" y="1089"/>
      <point x="1361" y="1111"/>
      <point x="1435" y="1121"/>
      <point x="1477" y="1117" type="qcurve"/>
      <point x="1552" y="1109"/>
      <point x="1650" y="1050"/>
      <point x="1702" y="955"/>
      <point x="1711" y="826"/>
      <point x="1698" y="750" type="qcurve"/>
      <point x="1566" y="0" type="line"/>
      <point x="1384" y="0" type="line"/>
      <point x="1514" y="740" type="line"/>
      <point x="1522" y="785"/>
      <point x="1517" y="863"/>
      <point x="1489" y="920"/>
      <point x="1434" y="954"/>
      <point x="1392" y="957" type="qcurve"/>
      <point x="1358" y="959"/>
      <point x="1291" y="944"/>
      <point x="1225" y="912"/>
      <point x="1159" y="867"/>
      <point x="1127" y="839" type="qcurve"/>
      <point x="1126" y="824"/>
      <point x="1124" y="802"/>
      <point x="1121" y="780"/>
      <point x="1117" y="756"/>
      <point x="1114" y="740" type="qcurve"/>
      <point x="984" y="0" type="line"/>
      <point x="802" y="0" type="line"/>
      <point x="932" y="740" type="line"/>
      <point x="949" y="837"/>
      <point x="881" y="952"/>
      <point x="805" y="957" type="qcurve"/>
      <point x="775" y="959"/>
      <point x="707" y="946"/>
      <point x="635" y="916"/>
      <point x="563" y="872"/>
      <point x="530" y="844" type="qcurve"/>
    </contour>
  </outline>
</glyph>
<glyph name="r" format="1">
  <advance width="800"/>
  <unicode hex="0072"/>
  <outline>
    <contour>
      <point x="800" y="950" type="qcurve"/>
      <point x="764" y="947"/>
      <point x="687" y="917"/>
      <point x="613" y="866"/>
      <point x="544" y="795"/>
      <point x="514" y="750" type="qcurve"/>
      <point x="382" y="0" type="line"/>
      <point x="200" y="0" type="line"/>
      <point x="393" y="1100" type="line"/>
      <point x="579" y="1120" type="line"/>
      <point x="539" y="895" type="line"/>
      <point x="670" y="1070" type="line"/>
      <point x="700" y="1089"/>
      <point x="786" y="1114"/>
      <point x="837" y="1117" type="qcurve"/>
      <point x="870" y="1119"/>
      <point x="919" y="1112"/>
      <point x="935" y="1107" type="qcurve"/>
      <point x="953" y="1101"/>
      <point x="967" y="1093" type="qcurve"/>
      <point x="926" y="935" type="line"/>
      <point x="912" y="940"/>
      <point x="854" y="955"/>
    </contour>
  </outline>
</glyph>
<glyph name="v" format="1">
  <advance width="1100"/>
  <unicode hex="0076"/>
  <outline>
    <contour>
      <point x="1202" y="1120" type="line"/>
      <point x="630" y="-20" type="line"/>
      <point x="428" y="0" type="line"/>
      <point x="264" y="1100" type="line"/>
      <point x="451" y="1120" type="line"/>
      <point x="560" y="381" type="line"/>
      <point x="572" y="149" type="line"/>
      <point x="663" y="381" type="line"/>
      <point x="1023" y="1100" type="line"/>
    </contour>
  </outline>
</glyph>
<glyph name="x" format="1">
  <advance width="1100"/>
  <unicode hex="0078"/>
  <outline>
    <contour>
      <point x="851" y="0" type="line"/>
      <point x="650" y="382" type="line"/>
      <point x="626" y="500" type="line"/>
      <point x="560" y="382" type="line"/>
      <point x="225" y="0" type="line"/>
      <point x="26" y="0" type="line"/>
      <point x="541" y="588" type="line"/>
      <point x="273" y="1100" type="line"/>
      <point x="488" y="1116" type="line"/>
      <point x="663" y="781" type="line"/>
      <point x="683" y="670" type="line"/>
      <point x="740" y="781" type="line"/>
      <point x="1021" y="1100" type="line"/>
      <point x="1235" y="1117" type="line"/>
      <point x="767" y="583" type="line"/>
      <point x="1076" y="0" type="line"/>
    </contour>
  </outline>
</glyph>
<glyph name="y" format="1">
  <advance width="1100"/>
  <unicode hex="0079"/>
  <outline>
    <contour>
      <point x="646" y="364" type="line"/>
      <point x="1044" y="1100" type="line"/>
      <point x="1237" y="1117" type="line"/>
      <point x="624" y="-17" type="line"/>
      <point x="559" y="-137"/>
      <point x="457" y="-312"/>
      <point x="357" y="-426"/>
      <point x="248" y="-481"/>
      <point x="177" y="-480" type="qcurve"/>
      <point x="126" y="-479"/>
      <point x="35" y="-439"/>
      <point x="0" y="-403" type="qcurve"/>
      <point x="92" y="-296" type="line"/>
      <point x="106" y="-308"/>
      <point x="148" y="-327"/>
      <point x="172" y="-328" type="qcurve"/>
      <point x="209" y="-329"/>
      <point x="266" y="-302"/>
      <point x="325" y="-237"/>
      <point x="394" y="-128"/>
      <point x="442" y="-47" type="qcurve"/>
      <point x="227" y="1100" type="line"/>
      <point x="400" y="1117" type="line"/>
      <point x="411" y="1061"/>
      <point x="422" y="999" type="qcurve"/>
      <point x="432" y="945"/>
      <point x="457" y="811"/>
      <point x="471" y="740" type="qcurve"/>
      <point x="502" y="575"/>
      <point x="542" y="364" type="qcurve"/>
      <point x="553" y="132" type="line"/>
    </contour>
  </outline>
</glyph>
<glyph name="braceleft" format="1">
  <advance width="1298"/>
  <unicode hex="007B"/>
  <outline>
    <contour>
      <point x="348" y="625" type="line"/>
      <point x="470" y="625" type="line"/>
      <point x="528" y="631"/>
      <point x="595" y="666"/>
      <point x="634" y="727"/>
      <point x="654" y="818"/>
      <point x="665" y="880" type="qcurve"/>
      <point x="707" y="1119" type="line"/>
      <point x="726" y="1227"/>
      <point x="784" y="1382"/>
      <point x="875" y="1481"/>
      <point x="1005" y="1523"/>
      <point x="1097" y="1519" type="qcurve"/>
      <point x="1142" y="1517"/>
      <point x="1204" y="1509"/>
      <point x="1251" y="1498"/>
      <point x="1291" y="1482"/>
      <point x="1313" y="1472" type="qcurve"/>
      <point x="1228" y="1349" type="line"/>
      <point x="1199" y="1364"/>
      <point x="1123" y="1375"/>
      <point x="1092" y="1374" type="qcurve"/>
      <point x="1040" y="1372"/>
      <point x="975" y="1340"/>
      <point x="933" y="1278"/>
      <point x="908" y="1183"/>
      <point x="897" y="1119" type="qcurve"/>
      <point x="855" y="880" type="line"/>
      <point x="843" y="809"/>
      <point x="819" y="709"/>
      <point x="783" y="634"/>
      <point x="730" y="577"/>
      <point x="689" y="550" type="qcurve"/>
      <point x="707" y="529"/>
      <point x="733" y="452"/>
      <point x="746" y="360"/>
      <point x="745" y="262"/>
      <point x="738" y="220" type="qcurve"/>
      <point x="696" y="-20" type="line"/>
      <point x="685" y="-82"/>
      <point x="674" y="-178"/>
      <point x="692" y="-242"/>
      <point x="747" y="-275"/>
      <point x="801" y="-275" type="qcurve"/>
      <point x="809" y="-277"/>
      <point x="825" y="-277"/>
      <point x="833" y="-277" type="qcurve"/>
      <point x="845" y="-277"/>
      <point x="876" y="-273"/>
      <point x="907" y="-265"/>
      <point x="936" y="-256"/>
      <point x="946" y="-250" type="qcurve"/>
      <point x="988" y="-373" type="line"/>
      <point x="965" y="-383"/>
      <point x="921" y="-402"/>
      <point x="868" y="-415"/>
      <point x="801" y="-422"/>
      <point x="755" y="-420" type="qcurve"/>
      <point x="664" y="-417"/>
      <point x="554" y="-344"/>
      <point x="500" y="-231"/>
      <point x="494" y="-91"/>
      <point x="506" y="-20" type="qcurve"/>
      <point x="548" y="220" type="line"/>
      <point x="559" y="284"/>
      <point x="568" y="380"/>
      <point x="549" y="443"/>
      <point x="495" y="475"/>
      <point x="443" y="475" type="qcurve"/>
      <point x="321" y="475" type="line"/>
    </contour>
  </outline>
</glyph>
<glyph name="braceright" format="1">
  <advance width="1200"/>
  <unicode hex="007D"/>
  <outline>
    <contour>
      <point x="1147" y="481" type="line"/>
      <point x="1025" y="481" type="line"/>
      <point x="967" y="475"/>
      <point x="900" y="440"/>
      <point x="861" y="379"/>
      <point x="841" y="288"/>
      <point x="830" y="226" type="qcurve"/>
      <point x="788" y="-13" type="line"/>
      <point x="769" y="-121"/>
      <point x="711" y="-276"/>
      <point x="620" y="-375"/>
      <point x="489" y="-418"/>
      <point x="398" y="-413" type="qcurve"/>
      <point x="353" y="-411"/>
      <point x="291" y="-403"/>
      <point x="244" y="-392"/>
      <point x="204" y="-376"/>
      <point x="182" y="-366" type="qcurve"/>
      <point x="267" y="-243" type="line"/>
      <point x="296" y="-258"/>
      <point x="372" y="-269"/>
      <point x="403" y="-268" type="qcurve"/>
      <point x="455" y="-266"/>
      <point x="520" y="-234"/>
      <point x="562" y="-172"/>
      <point x="587" y="-78"/>
      <point x="598" y="-13" type="qcurve"/>
      <point x="640" y="226" type="line"/>
      <point x="652" y="296"/>
      <point x="676" y="397"/>
      <point x="712" y="472"/>
      <point x="765" y="529"/>
      <point x="806" y="556" type="qcurve"/>
      <point x="788" y="577"/>
      <point x="762" y="654"/>
      <point x="749" y="746"/>
      <point x="749" y="844"/>
      <point x="757" y="886" type="qcurve"/>
      <point x="799" y="1126" type="line"/>
      <point x="810" y="1188"/>
      <point x="821" y="1283"/>
      <point x="803" y="1348"/>
      <point x="748" y="1381"/>
      <point x="694" y="1381" type="qcurve"/>
      <point x="686" y="1383"/>
      <point x="670" y="1383"/>
      <point x="662" y="1383" type="qcurve"/>
      <point x="650" y="1383"/>
      <point x="619" y="1379"/>
      <point x="588" y="1371"/>
      <point x="559" y="1362"/>
      <point x="549" y="1356" type="qcurve"/>
      <point x="507" y="1479" type="line"/>
      <point x="530" y="1489"/>
      <point x="574" y="1508"/>
      <point x="627" y="1521"/>
      <point x="694" y="1528"/>
      <point x="740" y="1526" type="qcurve"/>
      <point x="831" y="1523"/>
      <point x="941" y="1450"/>
      <point x="995" y="1337"/>
      <point x="1001" y="1197"/>
      <point x="989" y="1126" type="qcurve"/>
      <point x="947" y="886" type="line"/>
      <point x="936" y="822"/>
      <point x="927" y="726"/>
      <point x="946" y="663"/>
      <point x="1000" y="631"/>
      <point x="1052" y="631" type="qcurve"/>
      <point x="1174" y="631" type="line"/>
    </contour>
  </outline>
</glyph>
<glyph name="asciitilde" format="1">
  <advance width="1500"/>
  <unicode hex="007E"/>
  <outline>
    <contour>
      <point x="278" y="484" type="line"/>
      <point x="297" y="550"/>
      <point x="376" y="673"/>
      <point x="481" y="765"/>
      <point x="606" y="813"/>
      <point x="672" y="805" type="qcurve"/>
      <point x="717" y="799"/>
      <point x="794" y="763"/>
      <point x="863" y="717"/>
      <point x="928" y="668"/>
      <point x="992" y="630"/>
      <point x="1058" y="610"/>
      <point x="1095" y="616" type="qcurve"/>
      <point x="1167" y="628"/>
      <point x="1264" y="712"/>
      <point x="1299" y="792" type="qcurve"/>
      <point x="1442" y="776" type="line"/>
      <point x="1422" y="703"/>
      <point x="1340" y="565"/>
      <point x="1231" y="463"/>
      <point x="1102" y="410"/>
      <point x="1036" y="422" type="qcurve"/>
      <point x="1000" y="428"/>
      <point x="930" y="465"/>
      <point x="860" y="511"/>
      <point x="790" y="560"/>
      <point x="720" y="597"/>
      <point x="650" y="617"/>
      <point x="614" y="611" type="qcurve"/>
      <point x="553" y="600"/>
      <point x="455" y="534"/>
      <point x="424" y="468" type="qcurve"/>
    </contour>
  </outline>
</glyph>
<glyph name="cent" format="1">
  <advance width="1000"/>
  <unicode hex="00A2"/>
  <outline>
    <contour>
      <point x="905" y="1320" type="line"/>
      <point x="869" y="1113" type="line"/>
      <point x="920" y="1105"/>
      <point x="961" y="1088" type="qcurve"/>
      <point x="1029" y="1060"/>
      <point x="1080" y="991" type="qcurve"/>
      <point x="961" y="878" type="line"/>
      <point x="927" y="913"/>
      <point x="878" y="935" type="qcurve"/>
      <point x="866" y="940"/>
      <point x="841" y="949"/>
      <point x="827" y="951" type="qcurve"/>
      <point x="686" y="153" type="line"/>
      <point x="711" y="155"/>
      <point x="754" y="163"/>
      <point x="774" y="170" type="qcurve"/>
      <point x="831" y="188"/>
      <point x="864" y="208" type="qcurve"/>
      <point x="911" y="67" type="line"/>
      <point x="848" y="28"/>
      <point x="770" y="6" type="qcurve"/>
      <point x="747" y="-1"/>
      <point x="697" y="-11"/>
      <point x="670" y="-13" type="qcurve"/>
      <point x="637" y="-200" type="line"/>
      <point x="491" y="-200" type="line"/>
      <point x="524" y="-12" type="line"/>
      <point x="486" y="-7"/>
      <point x="416" y="15"/>
      <point x="387" y="32" type="qcurve"/>
      <point x="322" y="78"/>
      <point x="242" y="202"/>
      <point x="202" y="349"/>
      <point x="197" y="514"/>
      <point x="206" y="601" type="qcurve"/>
      <point x="216" y="691"/>
      <point x="282" y="842"/>
      <point x="380" y="962"/>
      <point x="503" y="1048"/>
      <point x="569" y="1071" type="qcurve"/>
      <point x="605" y="1084"/>
      <point x="681" y="1107"/>
      <point x="723" y="1112" type="qcurve"/>
      <point x="756" y="1300" type="line"/>
    </contour>
    <contour>
      <point x="624" y="925" type="qcurve"/>
      <point x="579" y="910"/>
      <point x="499" y="848"/>
      <point x="435" y="757"/>
      <point x="392" y="637"/>
      <point x="385" y="564" type="qcurve"/>
      <point x="378" y="494"/>
      <point x="383" y="380"/>
      <point x="408" y="288"/>
      <point x="456" y="214"/>
      <point x="493" y="185" type="qcurve"/>
      <point x="507" y="174"/>
      <point x="545" y="163"/>
      <point x="566" y="158" type="qcurve"/>
      <point x="706" y="952" type="line"/>
      <point x="683" y="948"/>
      <point x="644" y="932"/>
    </contour>
  </outline>
</glyph>
<glyph name="section" format="1">
  <advance width="1000"/>
  <unicode hex="00A7"/>
  <outline>
    <contour>
      <point x="1010" y="1351" type="line"/>
      <point x="966" y="1377"/>
      <point x="865" y="1391"/>
      <point x="808" y="1393" type="qcurve"/>
      <point x="752" y="1395"/>
      <point x="651" y="1372"/>
      <point x="575" y="1323"/>
      <point x="531" y="1248"/>
      <point x="531" y="1197" type="qcurve"/>
      <point x="531" y="1147"/>
      <point x="571" y="1067"/>
      <point x="635" y="998"/>
      <point x="715" y="936"/>
      <point x="798" y="870"/>
      <point x="876" y="796"/>
      <point x="934" y="704"/>
      <point x="965" y="589"/>
      <point x="960" y="515" type="qcurve"/>
      <point x="956" y="462"/>
      <point x="925" y="378"/>
      <point x="876" y="315"/>
      <point x="815" y="271"/>
      <point x="781" y="257" type="qcurve"/>
      <point x="757" y="246"/>
      <point x="710" y="224"/>
      <point x="684" y="216" type="qcurve"/>
      <point x="711" y="192" type="line"/>
      <point x="774" y="138"/>
      <point x="839" y="1"/>
      <point x="834" y="-88" type="qcurve"/>
      <point x="830" y="-168"/>
      <point x="759" y="-293"/>
      <point x="638" y="-379"/>
      <point x="473" y="-422"/>
      <point x="376" y="-420" type="qcurve"/>
      <point x="293" y="-418"/>
      <point x="161" y="-389"/>
      <point x="102" y="-348" type="qcurve"/>
      <point x="179" y="-251" type="line"/>
      <point x="223" y="-277"/>
      <point x="324" y="-293"/>
      <point x="381" y="-293" type="qcurve"/>
      <point x="430" y="-293"/>
      <point x="530" y="-271"/>
      <point x="609" y="-224"/>
      <point x="659" y="-150"/>
      <point x="658" y="-97" type="qcurve"/>
      <point x="657" y="-47"/>
      <point x="618" y="32"/>
      <point x="554" y="100"/>
      <point x="474" y="160"/>
      <point x="392" y="225"/>
      <point x="314" y="299"/>
      <point x="256" y="391"/>
      <point x="224" y="509"/>
      <point x="229" y="585" type="qcurve"/>
      <point x="232" y="632"/>
      <point x="263" y="710"/>
      <point x="311" y="773"/>
      <point x="373" y="823"/>
      <point x="407" y="842" type="qcurve"/>
      <point x="454" y="869"/>
      <point x="504" y="883" type="qcurve"/>
      <point x="477" y="907" type="line"/>
      <point x="446" y="935"/>
      <point x="396" y="996"/>
      <point x="364" y="1066"/>
      <point x="350" y="1144"/>
      <point x="355" y="1188" type="qcurve"/>
      <point x="365" y="1277"/>
      <point x="445" y="1408"/>
      <point x="568" y="1491"/>
      <point x="726" y="1526"/>
      <point x="813" y="1520" type="qcurve"/>
      <point x="895" y="1515"/>
      <point x="1028" y="1489"/>
      <point x="1087" y="1448" type="qcurve"/>
    </contour>
    <contour>
      <point x="520" y="767" type="qcurve"/>
      <point x="478" y="737"/>
      <point x="420" y="647"/>
      <point x="409" y="587" type="qcurve"/>
      <point x="402" y="549"/>
      <point x="417" y="481"/>
      <point x="453" y="419"/>
      <point x="505" y="362"/>
      <point x="537" y="336" type="qcurve"/>
      <point x="591" y="291" type="line"/>
      <point x="634" y="307"/>
      <point x="669" y="332" type="qcurve"/>
      <point x="711" y="363"/>
      <point x="769" y="453"/>
      <point x="780" y="513" type="qcurve"/>
      <point x="787" y="550"/>
      <point x="772" y="619"/>
      <point x="736" y="681"/>
      <point x="683" y="737"/>
      <point x="652" y="763" type="qcurve"/>
      <point x="597" y="808" type="line"/>
      <point x="576" y="800"/>
      <point x="538" y="780"/>
    </contour>
  </outline>
</glyph>
<glyph name="copyright" format="1">
  <advance width="1100"/>
  <unicode hex="00A9"/>
  <outline>
    <contour>
      <point x="817" y="1517" type="qcurve"/>
      <point x="915" y="1510"/>
      <point x="1070" y="1439"/>
      <point x="1173" y="1319"/>
      <point x="1217" y="1151"/>
      <point x="1204" y="1047" type="qcurve"/>
      <point x="1191" y="947"/>
      <point x="1091" y="768"/>
      <point x="940" y="637"/>
      <point x="751" y="568"/>
      <point x="651" y="577" type="qcurve"/>
      <point x="554" y="586"/>
      <point x="403" y="661"/>
      <point x="303" y="784"/>
      <point x="256" y="948"/>
      <point x="264" y="1047" type="qcurve"/>
      <point x="269" y="1114"/>
      <point x="316" y="1239"/>
      <point x="392" y="1347"/>
      <point x="493" y="1434"/>
      <point x="613" y="1494"/>
      <point x="746" y="1522"/>
    </contour>
    <contour>
      <point x="666" y="663" type="qcurve"/>
      <point x="707" y="659"/>
      <point x="805" y="683"/>
      <point x="904" y="732"/>
      <point x="998" y="804"/>
      <point x="1071" y="893"/>
      <point x="1116" y="993"/>
      <point x="1118" y="1047" type="qcurve"/>
      <point x="1121" y="1145"/>
      <point x="1078" y="1282"/>
      <point x="994" y="1372"/>
      <point x="875" y="1421"/>
      <point x="802" y="1431" type="qcurve"/>
      <point x="723" y="1442"/>
      <point x="566" y="1388"/>
      <point x="438" y="1281"/>
      <point x="354" y="1132"/>
      <point x="350" y="1047" type="qcurve"/>
      <point x="346" y="968"/>
      <point x="385" y="835"/>
      <point x="466" y="734"/>
      <point x="587" y="671"/>
    </contour>
    <contour>
      <point x="895" y="1207" type="line"/>
      <point x="882" y="1217"/>
      <point x="860" y="1231"/>
      <point x="838" y="1239"/>
      <point x="815" y="1243"/>
      <point x="801" y="1243" type="qcurve"/>
      <point x="764" y="1244"/>
      <point x="698" y="1219"/>
      <point x="646" y="1170"/>
      <point x="611" y="1099"/>
      <point x="605" y="1056" type="qcurve"/>
      <point x="600" y="1016"/>
      <point x="606" y="948"/>
      <point x="635" y="896"/>
      <point x="689" y="864"/>
      <point x="731" y="860" type="qcurve"/>
      <point x="750" y="858"/>
      <point x="782" y="861"/>
      <point x="810" y="868"/>
      <point x="833" y="879"/>
      <point x="843" y="885" type="qcurve"/>
      <point x="868" y="832" type="line"/>
      <point x="840" y="813"/>
      <point x="758" y="791"/>
      <point x="711" y="793" type="qcurve"/>
      <point x="648" y="796"/>
      <point x="566" y="838"/>
      <point x="521" y="910"/>
      <point x="510" y="1005"/>
      <point x="516" y="1062" type="qcurve"/>
      <point x="520" y="1094"/>
      <point x="543" y="1157"/>
      <point x="580" y="1213"/>
      <point x="630" y="1260"/>
      <point x="694" y="1292"/>
      <point x="770" y="1309"/>
      <point x="814" y="1306" type="qcurve"/>
      <point x="837" y="1305"/>
      <point x="874" y="1297"/>
      <point x="907" y="1283"/>
      <point x="937" y="1262"/>
      <point x="953" y="1248" type="qcurve"/>
    </contour>
  </outline>
</glyph>
<glyph name="ordfeminine" format="1">
  <advance width="800"/>
  <unicode hex="00AA"/>
  <outline>
    <contour>
      <point x="241" y="800" type="line"/>
      <point x="641" y="800" type="line"/>
      <point x="623" y="700" type="line"/>
      <point x="223" y="700" type="line"/>
    </contour>
    <contour>
      <point x="665" y="1427" type="line"/>
      <point x="656" y="1431"/>
      <point x="631" y="1437"/>
      <point x="619" y="1438" type="qcurve"/>
      <point x="606" y="1440"/>
      <point x="591" y="1441" type="qcurve"/>
      <point x="540" y="1441"/>
      <point x="464" y="1406"/>
      <point x="411" y="1345"/>
      <point x="380" y="1264"/>
      <point x="375" y="1218" type="qcurve"/>
      <point x="369" y="1172"/>
      <point x="379" y="1103"/>
      <point x="403" y="1057"/>
      <point x="441" y="1034"/>
      <point x="463" y="1034" type="qcurve"/>
      <point x="489" y="1034"/>
      <point x="533" y="1048"/>
      <point x="570" y="1071"/>
      <point x="600" y="1100"/>
      <point x="612" y="1115" type="qcurve"/>
    </contour>
    <contour>
      <point x="586" y="962" type="line"/>
      <point x="600" y="1043" type="line"/>
      <point x="542" y="986" type="line"/>
      <point x="532" y="978"/>
      <point x="511" y="965"/>
      <point x="487" y="957"/>
      <point x="455" y="953"/>
      <point x="433" y="953" type="qcurve"/>
      <point x="392" y="953"/>
      <point x="330" y="995"/>
      <point x="292" y="1069"/>
      <point x="278" y="1170"/>
      <point x="285" y="1230" type="qcurve"/>
      <point x="292" y="1285"/>
      <point x="338" y="1390"/>
      <point x="418" y="1472"/>
      <point x="533" y="1521"/>
      <point x="608" y="1521" type="qcurve"/>
      <point x="638" y="1518"/>
      <point x="668" y="1514" type="qcurve"/>
      <point x="693" y="1511"/>
      <point x="748" y="1501"/>
      <point x="768" y="1493" type="qcurve"/>
      <point x="692" y="1052" type="line"/>
      <point x="687" y="962" type="line"/>
    </contour>
  </outline>
</glyph>
<glyph name="logicalnot" format="1">
  <advance width="1700"/>
  <unicode hex="00AC"/>
  <outline>
    <contour>
      <point x="1558" y="800" type="line"/>
      <point x="1503" y="589" type="line"/>
      <point x="1449" y="280" type="line"/>
      <point x="1249" y="280" type="line"/>
      <point x="1279" y="449" type="line"/>
      <point x="1328" y="640" type="line"/>
      <point x="324" y="640" type="line"/>
      <point x="353" y="800" type="line"/>
    </contour>
  </outline>
</glyph>
<glyph name="degree" format="1">
  <advance width="600"/>
  <unicode hex="00B0"/>
  <outline>
    <contour>
      <point x="568" y="1520" type="qcurve"/>
      <point x="679" y="1505"/>
      <point x="796" y="1364"/>
      <point x="789" y="1250" type="qcurve"/>
      <point x="786" y="1194"/>
      <point x="727" y="1091"/>
      <point x="638" y="1014"/>
      <point x="527" y="974"/>
      <point x="472" y="980" type="qcurve"/>
      <point x="362" y="993"/>
      <point x="249" y="1137"/>
      <point x="251" y="1250" type="qcurve"/>
      <point x="252" y="1288"/>
      <point x="279" y="1360"/>
      <point x="325" y="1423"/>
      <point x="386" y="1475"/>
      <point x="456" y="1510"/>
      <point x="531" y="1525"/>
    </contour>
    <contour>
      <point x="492" y="1091" type="qcurve"/>
      <point x="523" y="1088"/>
      <point x="588" y="1107"/>
      <point x="642" y="1148"/>
      <point x="677" y="1210"/>
      <point x="679" y="1250" type="qcurve"/>
      <point x="682" y="1317"/>
      <point x="614" y="1397"/>
      <point x="548" y="1409" type="qcurve"/>
      <point x="514" y="1415"/>
      <point x="447" y="1397"/>
      <point x="394" y="1355"/>
      <point x="361" y="1290"/>
      <point x="361" y="1250" type="qcurve"/>
      <point x="362" y="1184"/>
      <point x="431" y="1098"/>
    </contour>
  </outline>
</glyph>
<glyph name="twosuperior" format="1">
  <advance width="600"/>
  <unicode hex="00B2"/>
  <outline>
    <contour>
      <point x="76" y="720" type="line"/>
      <point x="90" y="804" type="line"/>
      <point x="121" y="849"/>
      <point x="190" y="927"/>
      <point x="259" y="994"/>
      <point x="325" y="1049"/>
      <point x="351" y="1071" type="qcurve"/>
      <point x="385" y="1099"/>
      <point x="445" y="1148"/>
      <point x="490" y="1197"/>
      <point x="515" y="1248"/>
      <point x="515" y="1277" type="qcurve"/>
      <point x="515" y="1323"/>
      <point x="466" y="1384"/>
      <point x="413" y="1394" type="qcurve"/>
      <point x="385" y="1399"/>
      <point x="337" y="1386"/>
      <point x="297" y="1358"/>
      <point x="265" y="1320"/>
      <point x="253" y="1300" type="qcurve"/>
      <point x="188" y="1330" type="line"/>
      <point x="206" y="1367"/>
      <point x="256" y="1425"/>
      <point x="319" y="1463"/>
      <point x="394" y="1481"/>
      <point x="436" y="1478" type="qcurve"/>
      <point x="483" y="1475"/>
      <point x="551" y="1437"/>
      <point x="595" y="1379"/>
      <point x="614" y="1308"/>
      <point x="612" y="1272" type="qcurve"/>
      <point x="610" y="1233"/>
      <point x="572" y="1163"/>
      <point x="518" y="1101"/>
      <point x="455" y="1046"/>
      <point x="427" y="1022" type="qcurve"/>
      <point x="396" y="996"/>
      <point x="334" y="942"/>
      <point x="277" y="887"/>
      <point x="226" y="830"/>
      <point x="207" y="800" type="qcurve"/>
      <point x="542" y="800" type="line"/>
      <point x="528" y="720" type="line"/>
    </contour>
  </outline>
</glyph>
<glyph name="acute" format="1">
  <advance width="1100"/>
  <unicode hex="00B4"/>
  <outline>
    <contour>
      <point x="864" y="1500" type="line"/>
      <point x="1098" y="1520" type="line"/>
      <point x="801" y="1200" type="line"/>
      <point x="651" y="1200" type="line"/>
    </contour>
  </outline>
</glyph>
<glyph name="AE" format="1">
  <advance width="1700"/>
  <unicode hex="00C6"/>
  <outline>
    <contour>
      <point x="786" y="450" type="line"/>
      <point x="481" y="450" type="line"/>
      <point x="256" y="0" type="line"/>
      <point x="61" y="0" type="line"/>
      <point x="713" y="1300" type="line"/>
      <point x="783" y="1500" type="line"/>
      <point x="941" y="1500" type="line"/>
      <point x="1781" y="1500" type="line"/>
      <point x="1753" y="1340" type="line"/>
      <point x="1123" y="1340" type="line"/>
      <point x="1109" y="1150" type="line"/>
      <point x="1063" y="885" type="line"/>
      <point x="1603" y="885" type="line"/>
      <point x="1577" y="740" type="line"/>
      <point x="1037" y="740" type="line"/>
      <point x="966" y="340" type="line"/>
      <point x="925" y="160" type="line"/>
      <point x="1580" y="160" type="line"/>
      <point x="1532" y="0" type="line"/>
      <point x="692" y="0" type="line"/>
      <point x="742" y="200" type="line"/>
    </contour>
    <contour>
      <point x="888" y="1360" type="line"/>
      <point x="806" y="1100" type="line"/>
      <point x="556" y="600" type="line"/>
      <point x="813" y="600" type="line"/>
      <point x="900" y="1100" type="line"/>
    </contour>
  </outline>
</glyph>
<glyph name="multiply" format="1">
  <advance width="1600"/>
  <unicode hex="00D7"/>
  <outline>
    <contour>
      <point x="1060" y="627" type="line"/>
      <point x="1410" y="203" type="line"/>
      <point x="1268" y="102" type="line"/>
      <point x="959" y="477" type="line"/>
      <point x="960" y="477" type="line"/>
      <point x="919" y="576" type="line"/>
      <point x="884" y="477" type="line"/>
      <point x="442" y="102" type="line"/>
      <point x="335" y="203" type="line"/>
      <point x="836" y="627" type="line"/>
      <point x="485" y="1052" type="line"/>
      <point x="628" y="1153" type="line"/>
      <point x="937" y="777" type="line"/>
      <point x="977" y="679" type="line"/>
      <point x="1013" y="777" type="line"/>
      <point x="1454" y="1153" type="line"/>
      <point x="1560" y="1052" type="line"/>
    </contour>
  </outline>
</glyph>
<glyph name="germandbls" format="1">
  <advance width="1300"/>
  <unicode hex="00DF"/>
  <outline>
    <contour>
      <point x="1052" y="1148" type="qcurve"/>
      <point x="1058" y="1196"/>
      <point x="1030" y="1275"/>
      <point x="977" y="1334"/>
      <point x="907" y="1367"/>
      <point x="871" y="1369" type="qcurve"/>
      <point x="793" y="1372"/>
      <point x="701" y="1340"/>
      <point x="669" y="1304" type="qcurve"/>
      <point x="641" y="1273"/>
      <point x="612" y="1205"/>
      <point x="604" y="1160" type="qcurve"/>
      <point x="397" y="-17" type="line"/>
      <point x="202" y="0" type="line"/>
      <point x="397" y="1111" type="line"/>
      <point x="431" y="1306"/>
      <point x="555" y="1418" type="qcurve"/>
      <point x="583" y="1443"/>
      <point x="642" y="1480"/>
      <point x="721" y="1505"/>
      <point x="826" y="1517"/>
      <point x="900" y="1517" type="qcurve"/>
      <point x="982" y="1517"/>
      <point x="1113" y="1464"/>
      <point x="1202" y="1371"/>
      <point x="1244" y="1244"/>
      <point x="1237" y="1169" type="qcurve"/>
      <point x="1231" y="1106"/>
      <point x="1194" y="1010"/>
      <point x="1133" y="935"/>
      <point x="1051" y="881"/>
      <point x="1001" y="860" type="qcurve"/>
      <point x="839" y="816" type="line"/>
      <point x="984" y="802" type="line"/>
      <point x="1042" y="784"/>
      <point x="1137" y="723"/>
      <point x="1199" y="638"/>
      <point x="1224" y="527"/>
      <point x="1213" y="460" type="qcurve"/>
      <point x="1204" y="366"/>
      <point x="1140" y="225"/>
      <point x="1046" y="123"/>
      <point x="927" y="56"/>
      <point x="797" y="16"/>
      <point x="662" y="0"/>
      <point x="600" y="0" type="qcurve"/>
      <point x="568" y="160" type="line"/>
      <point x="667" y="160"/>
      <point x="825" y="183"/>
      <point x="940" y="247"/>
      <point x="1010" y="360"/>
      <point x="1021" y="450" type="qcurve"/>
      <point x="1038" y="591"/>
      <point x="871" y="730"/>
      <point x="708" y="730" type="qcurve"/>
      <point x="666" y="885" type="line"/>
      <point x="730" y="885"/>
      <point x="860" y="910"/>
      <point x="968" y="971"/>
      <point x="1043" y="1072"/>
    </contour>
  </outline>
</glyph>
<glyph name="ae" format="1">
  <advance width="1700"/>
  <unicode hex="00E6"/>
  <outline>
    <contour>
      <point x="1712" y="638" type="qcurve"/>
      <point x="1707" y="610"/>
      <point x="1697" y="571"/>
      <point x="1687" y="541"/>
      <point x="1676" y="515"/>
      <point x="1670" y="500" type="qcurve"/>
      <point x="999" y="500" type="line"/>
      <point x="981" y="421"/>
      <point x="1002" y="291"/>
      <point x="1063" y="198"/>
      <point x="1156" y="145"/>
      <point x="1210" y="143" type="qcurve"/>
      <point x="1268" y="141"/>
      <point x="1360" y="152"/>
      <point x="1427" y="170"/>
      <point x="1473" y="191"/>
      <point x="1486" y="199" type="qcurve"/>
      <point x="1578" y="103" type="line"/>
      <point x="1541" y="71"/>
      <point x="1465" y="25"/>
      <point x="1376" y="-4"/>
      <point x="1269" y="-17"/>
      <point x="1202" y="-17" type="qcurve"/>
      <point x="1119" y="-17"/>
      <point x="995" y="38"/>
      <point x="947" y="79" type="qcurve"/>
      <point x="918" y="104"/>
      <point x="872" y="179"/>
      <point x="856" y="214" type="qcurve"/>
      <point x="791" y="122" type="line"/>
      <point x="765" y="98"/>
      <point x="689" y="46"/>
      <point x="597" y="4"/>
      <point x="495" y="-20"/>
      <point x="443" y="-17" type="qcurve"/>
      <point x="369" y="-12"/>
      <point x="250" y="35"/>
      <point x="167" y="123"/>
      <point x="125" y="255"/>
      <point x="130" y="344" type="qcurve"/>
      <point x="133" y="405"/>
      <point x="176" y="508"/>
      <point x="245" y="592"/>
      <point x="336" y="654"/>
      <point x="438" y="695"/>
      <point x="547" y="713"/>
      <point x="600" y="710" type="qcurve"/>
      <point x="657" y="707"/>
      <point x="741" y="694"/>
      <point x="770" y="687" type="qcurve"/>
      <point x="803" y="679"/>
      <point x="828" y="670" type="qcurve"/>
      <point x="834" y="705" type="line"/>
      <point x="846" y="773"/>
      <point x="855" y="868"/>
      <point x="826" y="928"/>
      <point x="748" y="956"/>
      <point x="673" y="957" type="qcurve"/>
      <point x="633" y="957"/>
      <point x="534" y="943"/>
      <point x="490" y="934" type="qcurve"/>
      <point x="439" y="923"/>
      <point x="387" y="910" type="qcurve"/>
      <point x="339" y="1044" type="line"/>
      <point x="400" y="1064"/>
      <point x="463" y="1080" type="qcurve"/>
      <point x="517" y="1094"/>
      <point x="648" y="1117"/>
      <point x="711" y="1117" type="qcurve"/>
      <point x="778" y="1117"/>
      <point x="878" y="1098"/>
      <point x="948" y="1059"/>
      <point x="993" y="999"/>
      <point x="1006" y="958" type="qcurve"/>
      <point x="1156" y="1117"/>
      <point x="1376" y="1117" type="qcurve"/>
      <point x="1484" y="1117"/>
      <point x="1630" y="1042"/>
      <point x="1711" y="912"/>
      <point x="1730" y="737"/>
    </contour>
    <contour>
      <point x="803" y="533" type="line"/>
      <point x="775" y="536"/>
      <point x="744" y="540" type="qcurve"/>
      <point x="717" y="543"/>
      <point x="649" y="548"/>
      <point x="611" y="550" type="qcurve"/>
      <point x="551" y="553"/>
      <point x="445" y="531"/>
      <point x="366" y="481"/>
      <point x="320" y="401"/>
      <point x="320" y="345" type="qcurve"/>
      <point x="320" y="253"/>
      <point x="398" y="148"/>
      <point x="479" y="143" type="qcurve"/>
      <point x="503" y="141"/>
      <point x="553" y="150"/>
      <point x="601" y="168"/>
      <point x="647" y="192"/>
      <point x="667" y="205" type="qcurve"/>
      <point x="714" y="235"/>
      <point x="758" y="274" type="qcurve"/>
    </contour>
    <contour>
      <point x="1535" y="650" type="line"/>
      <point x="1538" y="661"/>
      <point x="1542" y="675"/>
      <point x="1544" y="686" type="qcurve"/>
      <point x="1554" y="743"/>
      <point x="1542" y="840"/>
      <point x="1497" y="913"/>
      <point x="1419" y="956"/>
      <point x="1363" y="958" type="qcurve"/>
      <point x="1290" y="960"/>
      <point x="1186" y="917"/>
      <point x="1113" y="850"/>
      <point x="1065" y="768"/>
      <point x="1048" y="732" type="qcurve"/>
      <point x="976" y="623" type="line"/>
      <point x="1159" y="650" type="line"/>
    </contour>
  </outline>
</glyph>
<glyph name="iacute" format="1">
  <advance width="600"/>
  <unicode hex="00ED"/>
  <outline>
    <contour>
      <point x="390" y="0" type="line"/>
      <point x="208" y="0" type="line"/>
      <point x="394" y="1055" type="line"/>
      <point x="579" y="1075" type="line"/>
    </contour>
    <contour>
      <point x="647" y="1500" type="line"/>
      <point x="881" y="1520" type="line"/>
      <point x="584" y="1200" type="line"/>
      <point x="434" y="1200" type="line"/>
    </contour>
  </outline>
</glyph>
<glyph name="eth" format="1">
  <advance width="1300"/>
  <unicode hex="00F0"/>
  <outline>
    <contour>
      <point x="645" y="1168" type="line"/>
      <point x="889" y="1347" type="line"/>
      <point x="766" y="1326" type="line"/>
      <point x="721" y="1352"/>
      <point x="628" y="1378"/>
      <point x="574" y="1378" type="qcurve"/>
      <point x="561" y="1378"/>
      <point x="542" y="1376"/>
      <point x="539" y="1375" type="qcurve"/>
      <point x="539" y="1518" type="line"/>
      <point x="556" y="1520"/>
      <point x="586" y="1520"/>
      <point x="601" y="1520" type="qcurve"/>
      <point x="711" y="1520"/>
      <point x="894" y="1460"/>
      <point x="968" y="1405" type="qcurve"/>
      <point x="1127" y="1522" type="line"/>
      <point x="1204" y="1407" type="line"/>
      <point x="992" y="1252" type="line"/>
      <point x="1110" y="1255" type="line"/>
      <point x="1183" y="1124"/>
      <point x="1231" y="802"/>
      <point x="1219" y="620" type="qcurve"/>
      <point x="1215" y="563"/>
      <point x="1173" y="418"/>
      <point x="1098" y="269"/>
      <point x="993" y="129"/>
      <point x="859" y="24"/>
      <point x="699" y="-30"/>
      <point x="606" y="-20" type="qcurve"/>
      <point x="498" y="-8"/>
      <point x="352" y="62"/>
      <point x="264" y="182"/>
      <point x="227" y="354"/>
      <point x="228" y="469" type="qcurve"/>
      <point x="228" y="544"/>
      <point x="272" y="675"/>
      <point x="346" y="781"/>
      <point x="447" y="862"/>
      <point x="562" y="914"/>
      <point x="688" y="934"/>
      <point x="750" y="927" type="qcurve"/>
      <point x="817" y="919"/>
      <point x="940" y="885"/>
      <point x="1002" y="847" type="qcurve"/>
      <point x="1064" y="730" type="line"/>
      <point x="1065" y="804"/>
      <point x="1048" y="941"/>
      <point x="1012" y="1061"/>
      <point x="954" y="1159"/>
      <point x="914" y="1194" type="qcurve"/>
      <point x="722" y="1053" type="line"/>
    </contour>
    <contour>
      <point x="1021" y="607" type="qcurve"/>
      <point x="1002" y="630"/>
      <point x="943" y="681"/>
      <point x="869" y="726"/>
      <point x="783" y="761"/>
      <point x="737" y="767" type="qcurve"/>
      <point x="665" y="777"/>
      <point x="545" y="731"/>
      <point x="458" y="642"/>
      <point x="408" y="519"/>
      <point x="405" y="451" type="qcurve"/>
      <point x="400" y="314"/>
      <point x="518" y="160"/>
      <point x="633" y="140" type="qcurve"/>
      <point x="693" y="130"/>
      <point x="799" y="167"/>
      <point x="886" y="244"/>
      <point x="951" y="352"/>
      <point x="971" y="412" type="qcurve"/>
      <point x="989" y="468"/>
      <point x="1012" y="558"/>
    </contour>
  </outline>
</glyph>
<glyph name="divide" format="1">
  <advance width="1100"/>
  <unicode hex="00F7"/>
  <outline>
    <contour>
      <point x="456" y="282" type="qcurve"/>
      <point x="456" y="313"/>
      <point x="486" y="371"/>
      <point x="536" y="414"/>
      <point x="598" y="436"/>
      <point x="629" y="430" type="qcurve"/>
      <point x="660" y="425"/>
      <point x="706" y="397"/>
      <point x="737" y="358"/>
      <point x="753" y="308"/>
      <point x="752" y="282" type="qcurve"/>
      <point x="751" y="250"/>
      <point x="721" y="192"/>
      <point x="673" y="150"/>
      <point x="611" y="128"/>
      <point x="579" y="132" type="qcurve"/>
      <point x="518" y="139"/>
      <point x="455" y="223"/>
    </contour>
    <contour>
      <point x="577" y="962" type="qcurve"/>
      <point x="577" y="993"/>
      <point x="607" y="1051"/>
      <point x="657" y="1094"/>
      <point x="719" y="1116"/>
      <point x="750" y="1110" type="qcurve"/>
      <point x="781" y="1105"/>
      <point x="827" y="1077"/>
      <point x="858" y="1038"/>
      <point x="874" y="988"/>
      <point x="873" y="962" type="qcurve"/>
      <point x="872" y="930"/>
      <point x="842" y="872"/>
      <point x="794" y="830"/>
      <point x="732" y="808"/>
      <point x="700" y="812" type="qcurve"/>
      <point x="639" y="819"/>
      <point x="576" y="903"/>
    </contour>
    <contour>
      <point x="223" y="700" type="line"/>
      <point x="1123" y="700" type="line"/>
      <point x="1096" y="545" type="line"/>
      <point x="196" y="545" type="line"/>
    </contour>
  </outline>
</glyph>
<glyph name="oe" format="1">
  <advance width="1900"/>
  <unicode hex="0153"/>
  <outline>
    <contour>
      <point x="999" y="500" type="qcurve"/>
      <point x="1014" y="580"/>
      <point x="1018" y="730"/>
      <point x="977" y="852"/>
      <point x="883" y="938"/>
      <point x="800" y="955" type="qcurve"/>
      <point x="720" y="971"/>
      <point x="581" y="919"/>
      <point x="475" y="815"/>
      <point x="405" y="673"/>
      <point x="393" y="599" type="qcurve"/>
      <point x="380" y="516"/>
      <point x="377" y="365"/>
      <point x="416" y="244"/>
      <point x="508" y="161"/>
      <point x="591" y="146" type="qcurve"/>
      <point x="669" y="131"/>
      <point x="806" y="184"/>
      <point x="913" y="287"/>
      <point x="985" y="427"/>
    </contour>
    <contour>
      <point x="1720" y="650" type="line"/>
      <point x="1722" y="653"/>
      <point x="1728" y="679"/>
      <point x="1733" y="712"/>
      <point x="1736" y="743"/>
      <point x="1736" y="752" type="qcurve"/>
      <point x="1736" y="788"/>
      <point x="1717" y="859"/>
      <point x="1675" y="918"/>
      <point x="1607" y="956"/>
      <point x="1559" y="958" type="qcurve"/>
      <point x="1483" y="961"/>
      <point x="1378" y="925"/>
      <point x="1304" y="860"/>
      <point x="1254" y="776"/>
      <point x="1234" y="732" type="qcurve"/>
      <point x="1162" y="623" type="line"/>
      <point x="1355" y="650" type="line"/>
    </contour>
    <contour>
      <point x="1763" y="103" type="line"/>
      <point x="1733" y="75"/>
      <point x="1661" y="29"/>
      <point x="1571" y="-3"/>
      <point x="1463" y="-19"/>
      <point x="1398" y="-17" type="qcurve"/>
      <point x="1282" y="-12"/>
      <point x="1117" y="69"/>
      <point x="1070" y="137" type="qcurve"/>
      <point x="1046" y="214" type="line"/>
      <point x="1005" y="138" type="line"/>
      <point x="965" y="99"/>
      <point x="870" y="39"/>
      <point x="765" y="-2"/>
      <point x="653" y="-20"/>
      <point x="596" y="-17" type="qcurve"/>
      <point x="486" y="-10"/>
      <point x="326" y="78"/>
      <point x="228" y="227"/>
      <point x="192" y="430"/>
      <point x="205" y="553" type="qcurve"/>
      <point x="218" y="675"/>
      <point x="320" y="887"/>
      <point x="478" y="1041"/>
      <point x="681" y="1124"/>
      <point x="795" y="1117" type="qcurve"/>
      <point x="901" y="1111"/>
      <point x="1064" y="1032"/>
      <point x="1115" y="964" type="qcurve"/>
      <point x="1134" y="885" type="line"/>
      <point x="1185" y="962" type="line"/>
      <point x="1254" y="1033"/>
      <point x="1451" y="1117"/>
      <point x="1572" y="1117" type="qcurve"/>
      <point x="1666" y="1117"/>
      <point x="1805" y="1048"/>
      <point x="1889" y="923"/>
      <point x="1917" y="750"/>
      <point x="1901" y="646" type="qcurve"/>
      <point x="1896" y="615"/>
      <point x="1881" y="563"/>
      <point x="1873" y="543" type="qcurve"/>
      <point x="1864" y="520"/>
      <point x="1855" y="500" type="qcurve"/>
      <point x="1184" y="500" type="line"/>
      <point x="1164" y="421"/>
      <point x="1182" y="292"/>
      <point x="1245" y="200"/>
      <point x="1344" y="147"/>
      <point x="1406" y="143" type="qcurve"/>
      <point x="1456" y="140"/>
      <point x="1540" y="149"/>
      <point x="1607" y="167"/>
      <point x="1656" y="189"/>
      <point x="1671" y="199" type="qcurve"/>
    </contour>
  </outline>
</glyph>
<glyph name="florin" format="1">
  <advance width="1400"/>
  <unicode hex="0192"/>
  <outline>
    <contour>
      <point x="1432" y="1347" type="line"/>
      <point x="1423" y="1352"/>
      <point x="1398" y="1361"/>
      <point x="1369" y="1368"/>
      <point x="1340" y="1373"/>
      <point x="1328" y="1374" type="qcurve"/>
      <point x="1280" y="1378"/>
      <point x="1217" y="1347"/>
      <point x="1170" y="1281"/>
      <point x="1128" y="1181"/>
      <point x="1100" y="1117" type="qcurve"/>
      <point x="973" y="828" type="line"/>
      <point x="1269" y="828" type="line"/>
      <point x="1202" y="674" type="line"/>
      <point x="962" y="674" type="line"/>
      <point x="930" y="730" type="line"/>
      <point x="600" y="-21" type="line"/>
      <point x="556" y="-121"/>
      <point x="488" y="-278"/>
      <point x="405" y="-384"/>
      <point x="289" y="-436"/>
      <point x="198" y="-431" type="qcurve"/>
      <point x="152" y="-429"/>
      <point x="82" y="-421"/>
      <point x="26" y="-409"/>
      <point x="-18" y="-394"/>
      <point x="-37" y="-384" type="qcurve"/>
      <point x="68" y="-251" type="line"/>
      <point x="77" y="-256"/>
      <point x="102" y="-265"/>
      <point x="130" y="-272"/>
      <point x="160" y="-277"/>
      <point x="172" y="-278" type="qcurve"/>
      <point x="220" y="-283"/>
      <point x="280" y="-251"/>
      <point x="326" y="-184"/>
      <point x="370" y="-84"/>
      <point x="400" y="-21" type="qcurve"/>
      <point x="705" y="674" type="line"/>
      <point x="424" y="674" type="line"/>
      <point x="491" y="828" type="line"/>
      <point x="708" y="828" type="line"/>
      <point x="748" y="771" type="line"/>
      <point x="818" y="927"/>
      <point x="916" y="1159"/>
      <point x="994" y="1325"/>
      <point x="1061" y="1432"/>
      <point x="1137" y="1493"/>
      <point x="1233" y="1517"/>
      <point x="1301" y="1517" type="qcurve"/>
      <point x="1347" y="1517"/>
      <point x="1411" y="1510"/>
      <point x="1459" y="1497"/>
      <point x="1497" y="1480"/>
      <point x="1517" y="1470" type="qcurve"/>
    </contour>
  </outline>
</glyph>
<glyph name="circumflex" format="1">
  <advance width="1100"/>
  <unicode hex="02C6"/>
  <outline>
    <contour>
      <point x="995" y="1220" type="line"/>
      <point x="845" y="1220" type="line"/>
      <point x="771" y="1372" type="line"/>
      <point x="757" y="1460" type="line"/>
      <point x="712" y="1373" type="line"/>
      <point x="584" y="1220" type="line"/>
      <point x="434" y="1220" type="line"/>
      <point x="659" y="1500" type="line"/>
      <point x="863" y="1520" type="line"/>
    </contour>
  </outline>
</glyph>
<glyph name="caron" format="1">
  <advance width="1100"/>
  <unicode hex="02C7"/>
  <outline>
    <contour>
      <point x="810" y="1220" type="line"/>
      <point x="613" y="1240" type="line"/>
      <point x="487" y="1520" type="line"/>
      <point x="637" y="1520" type="line"/>
      <point x="724" y="1387" type="line"/>
      <point x="730" y="1310" type="line"/>
      <point x="764" y="1388" type="line"/>
      <point x="898" y="1520" type="line"/>
      <point x="1048" y="1520" type="line"/>
    </contour>
  </outline>
</glyph>
<glyph name="breve" format="1">
  <advance width="1100"/>
  <unicode hex="02D8"/>
  <outline>
    <contour>
      <point x="593" y="1519" type="line"/>
      <point x="582" y="1485"/>
      <point x="593" y="1458" type="qcurve"/>
      <point x="597" y="1446"/>
      <point x="617" y="1422"/>
      <point x="651" y="1402"/>
      <point x="703" y="1387"/>
      <point x="740" y="1383" type="qcurve"/>
      <point x="774" y="1379"/>
      <point x="828" y="1387"/>
      <point x="869" y="1405"/>
      <point x="899" y="1430"/>
      <point x="909" y="1444" type="qcurve"/>
      <point x="933" y="1476"/>
      <point x="941" y="1519" type="qcurve"/>
      <point x="1047" y="1519" type="line"/>
      <point x="1039" y="1437"/>
      <point x="1001" y="1375" type="qcurve"/>
      <point x="985" y="1349"/>
      <point x="937" y="1300"/>
      <point x="868" y="1265"/>
      <point x="776" y="1248"/>
      <point x="717" y="1253" type="qcurve"/>
      <point x="629" y="1261"/>
      <point x="528" y="1306"/>
      <point x="477" y="1366"/>
      <point x="466" y="1430"/>
      <point x="473" y="1484"/>
      <point x="487" y="1519"/>
      <point x="486" y="1519" type="qcurve"/>
    </contour>
  </outline>
</glyph>
<glyph name="dotaccent" format="1">
  <advance width="600"/>
  <unicode hex="02D9"/>
  <outline>
    <contour>
      <point x="458" y="1500" type="line"/>
      <point x="660" y="1500" type="line"/>
      <point x="625" y="1300" type="line"/>
      <point x="423" y="1300" type="line"/>
    </contour>
  </outline>
</glyph>
<glyph name="ring" format="1">
  <advance width="1100"/>
  <unicode hex="02DA"/>
  <outline>
    <contour>
      <point x="788" y="1636" type="qcurve"/>
      <point x="836" y="1628"/>
      <point x="911" y="1585"/>
      <point x="961" y="1522"/>
      <point x="985" y="1443"/>
      <point x="983" y="1399" type="qcurve"/>
      <point x="980" y="1342"/>
      <point x="931" y="1251"/>
      <point x="854" y="1188"/>
      <point x="757" y="1156"/>
      <point x="706" y="1158" type="qcurve"/>
      <point x="662" y="1159"/>
      <point x="587" y="1200"/>
      <point x="533" y="1266"/>
      <point x="505" y="1352"/>
      <point x="508" y="1399" type="qcurve"/>
      <point x="511" y="1449"/>
      <point x="560" y="1542"/>
      <point x="638" y="1610"/>
      <point x="737" y="1644"/>
    </contour>
    <contour>
      <point x="725" y="1275" type="qcurve"/>
      <point x="749" y="1270"/>
      <point x="800" y="1284"/>
      <point x="843" y="1317"/>
      <point x="869" y="1367"/>
      <point x="867" y="1398" type="qcurve"/>
      <point x="864" y="1450"/>
      <point x="817" y="1509"/>
      <point x="767" y="1519" type="qcurve"/>
      <point x="741" y="1524"/>
      <point x="690" y="1507"/>
      <point x="649" y="1472"/>
      <point x="624" y="1424"/>
      <point x="625" y="1398" type="qcurve"/>
      <point x="628" y="1296"/>
    </contour>
  </outline>
</glyph>
<glyph name="Phi" format="1">
  <advance width="1399"/>
  <unicode hex="03A6"/>
  <outline>
    <contour>
      <point x="635" y="204" type="line"/>
      <point x="568" y="213"/>
      <point x="503" y="233" type="qcurve"/>
      <point x="438" y="256"/>
      <point x="319" y="340"/>
      <point x="233" y="466"/>
      <point x="191" y="638"/>
      <point x="203" y="750" type="qcurve"/>
      <point x="216" y="867"/>
      <point x="303" y="1039"/>
      <point x="433" y="1161"/>
      <point x="596" y="1241"/>
      <point x="685" y="1266" type="qcurve"/>
      <point x="758" y="1288"/>
      <point x="828" y="1295" type="qcurve"/>
      <point x="864" y="1500" type="line"/>
      <point x="1067" y="1520" type="line"/>
      <point x="1027" y="1295" type="line"/>
      <point x="1062" y="1291"/>
      <point x="1129" y="1277"/>
      <point x="1161" y="1266" type="qcurve"/>
      <point x="1223" y="1244"/>
      <point x="1343" y="1161"/>
      <point x="1432" y="1034"/>
      <point x="1477" y="861"/>
      <point x="1463" y="750" type="qcurve"/>
      <point x="1437" y="543"/>
      <point x="1188" y="283"/>
      <point x="980" y="233" type="qcurve"/>
      <point x="834" y="204" type="line"/>
      <point x="796" y="-14" type="line"/>
      <point x="597" y="-14" type="line"/>
    </contour>
    <contour>
      <point x="862" y="361" type="line"/>
      <point x="939" y="365"/>
      <point x="1086" y="423"/>
      <point x="1204" y="524"/>
      <point x="1279" y="664"/>
      <point x="1284" y="750" type="qcurve"/>
      <point x="1288" y="824"/>
      <point x="1266" y="946"/>
      <point x="1200" y="1042"/>
      <point x="1086" y="1115"/>
      <point x="999" y="1139" type="qcurve"/>
    </contour>
    <contour>
      <point x="601" y="376" type="qcurve"/>
      <point x="616" y="373"/>
      <point x="647" y="364"/>
      <point x="663" y="361" type="qcurve"/>
      <point x="800" y="1139" type="line"/>
      <point x="726" y="1137"/>
      <point x="582" y="1084"/>
      <point x="465" y="985"/>
      <point x="387" y="842"/>
      <point x="381" y="750" type="qcurve"/>
      <point x="376" y="672"/>
      <point x="411" y="543"/>
      <point x="474" y="446"/>
      <point x="557" y="385"/>
    </contour>
  </outline>
</glyph>
<glyph name="Psi" format="1">
  <advance width="1400"/>
  <unicode hex="03A8"/>
  <outline>
    <contour>
      <point x="1574" y="1500" type="line"/>
      <point x="1463" y="873" type="line"/>
      <point x="1446" y="775"/>
      <point x="1371" y="633"/>
      <point x="1265" y="533"/>
      <point x="1135" y="472"/>
      <point x="991" y="439"/>
      <point x="837" y="430"/>
      <point x="761" y="433" type="qcurve"/>
      <point x="688" y="436"/>
      <point x="546" y="460"/>
      <point x="422" y="507"/>
      <point x="322" y="582"/>
      <point x="258" y="689"/>
      <point x="236" y="831"/>
      <point x="252" y="923" type="qcurve"/>
      <point x="317" y="1290" type="line"/>
      <point x="324" y="1500" type="line"/>
      <point x="553" y="1520" type="line"/>
      <point x="444" y="904" type="line"/>
      <point x="429" y="819"/>
      <point x="487" y="704"/>
      <point x="596" y="635"/>
      <point x="735" y="604"/>
      <point x="801" y="603" type="qcurve"/>
      <point x="848" y="602"/>
      <point x="948" y="603"/>
      <point x="1043" y="615"/>
      <point x="1131" y="645"/>
      <point x="1202" y="701"/>
      <point x="1253" y="789"/>
      <point x="1265" y="854" type="qcurve"/>
      <point x="1379" y="1500" type="line"/>
    </contour>
    <contour>
      <point x="1063" y="1520" type="line"/>
      <point x="795" y="1" type="line"/>
      <point x="605" y="1" type="line"/>
      <point x="869" y="1500" type="line"/>
    </contour>
  </outline>
</glyph>
<glyph name="alpha" format="1">
  <advance width="1400"/>
  <unicode hex="03B1"/>
  <outline>
    <contour>
      <point x="1362" y="996" type="line"/>
      <point x="1274" y="939"/>
      <point x="1255" y="851" type="qcurve"/>
      <point x="1244" y="806"/>
      <point x="1216" y="658"/>
      <point x="1197" y="552" type="qcurve"/>
      <point x="1159" y="337"/>
      <point x="1152" y="269" type="qcurve"/>
      <point x="1149" y="234"/>
      <point x="1159" y="180"/>
      <point x="1181" y="141"/>
      <point x="1213" y="121"/>
      <point x="1231" y="121" type="qcurve"/>
      <point x="1253" y="121"/>
      <point x="1275" y="124"/>
      <point x="1288" y="126" type="qcurve"/>
      <point x="1320" y="10" type="line"/>
      <point x="1260" y="-17"/>
      <point x="1197" y="-17" type="qcurve"/>
      <point x="1063" y="-17"/>
      <point x="1008" y="52" type="qcurve"/>
      <point x="984" y="196" type="line"/>
      <point x="914" y="84" type="line"/>
      <point x="865" y="50"/>
      <point x="810" y="26" type="qcurve"/>
      <point x="759" y="4"/>
      <point x="653" y="-25"/>
      <point x="596" y="-17" type="qcurve"/>
      <point x="485" y="-2"/>
      <point x="327" y="96"/>
      <point x="229" y="247"/>
      <point x="189" y="442"/>
      <point x="197" y="553" type="qcurve"/>
      <point x="207" y="695"/>
      <point x="318" y="915"/>
      <point x="486" y="1062"/>
      <point x="691" y="1129"/>
      <point x="795" y="1117" type="qcurve"/>
      <point x="851" y="1111"/>
      <point x="949" y="1096"/>
      <point x="991" y="1074" type="qcurve"/>
      <point x="1017" y="1061"/>
      <point x="1061" y="1030"/>
      <point x="1081" y="1011" type="qcurve"/>
      <point x="1108" y="900" type="line"/>
      <point x="1182" y="1038" type="line"/>
      <point x="1204" y="1055"/>
      <point x="1259" y="1086"/>
      <point x="1293" y="1100" type="qcurve"/>
    </contour>
    <contour>
      <point x="1002" y="526" type="qcurve"/>
      <point x="1005" y="600"/>
      <point x="994" y="748"/>
      <point x="945" y="871"/>
      <point x="848" y="954"/>
      <point x="764" y="962" type="qcurve"/>
      <point x="672" y="971"/>
      <point x="533" y="908"/>
      <point x="440" y="794"/>
      <point x="392" y="647"/>
      <point x="390" y="572" type="qcurve"/>
      <point x="388" y="492"/>
      <point x="401" y="346"/>
      <point x="451" y="230"/>
      <point x="546" y="151"/>
      <point x="627" y="138" type="qcurve"/>
      <point x="679" y="129"/>
      <point x="774" y="153"/>
      <point x="857" y="206"/>
      <point x="924" y="283"/>
      <point x="972" y="375"/>
      <point x="1000" y="476"/>
    </contour>
  </outline>
</glyph>
<glyph name="beta" format="1">
  <advance width="1200"/>
  <unicode hex="03B2"/>
  <outline>
    <contour>
      <point x="428" y="217" type="line"/>
      <point x="449" y="202"/>
      <point x="473" y="190" type="qcurve"/>
      <point x="493" y="179"/>
      <point x="543" y="161"/>
      <point x="568" y="160" type="qcurve"/>
      <point x="665" y="155"/>
      <point x="822" y="177"/>
      <point x="938" y="243"/>
      <point x="1010" y="360"/>
      <point x="1021" y="450" type="qcurve"/>
      <point x="1038" y="591"/>
      <point x="871" y="730"/>
      <point x="708" y="730" type="qcurve"/>
      <point x="666" y="885" type="line"/>
      <point x="730" y="885"/>
      <point x="860" y="910"/>
      <point x="968" y="971"/>
      <point x="1043" y="1072"/>
      <point x="1052" y="1148" type="qcurve"/>
      <point x="1058" y="1196"/>
      <point x="1030" y="1275"/>
      <point x="977" y="1334"/>
      <point x="907" y="1367"/>
      <point x="871" y="1369" type="qcurve"/>
      <point x="793" y="1372"/>
      <point x="701" y="1340"/>
      <point x="669" y="1304" type="qcurve"/>
      <point x="641" y="1273"/>
      <point x="612" y="1205"/>
      <point x="604" y="1160" type="qcurve"/>
    </contour>
    <contour>
      <point x="308" y="-517" type="line"/>
      <point x="111" y="-500" type="line"/>
      <point x="397" y="1111" type="line"/>
      <point x="431" y="1306"/>
      <point x="555" y="1418" type="qcurve"/>
      <point x="583" y="1443"/>
      <point x="642" y="1480"/>
      <point x="721" y="1505"/>
      <point x="826" y="1517"/>
      <point x="900" y="1517" type="qcurve"/>
      <point x="982" y="1517"/>
      <point x="1113" y="1464"/>
      <point x="1202" y="1371"/>
      <point x="1244" y="1244"/>
      <point x="1237" y="1169" type="qcurve"/>
      <point x="1231" y="1106"/>
      <point x="1194" y="1010"/>
      <point x="1133" y="935"/>
      <point x="1051" y="881"/>
      <point x="1001" y="860" type="qcurve"/>
      <point x="839" y="816" type="line"/>
      <point x="984" y="802" type="line"/>
      <point x="1042" y="784"/>
      <point x="1137" y="723"/>
      <point x="1199" y="638"/>
      <point x="1224" y="527"/>
      <point x="1213" y="460" type="qcurve"/>
      <point x="1204" y="366"/>
      <point x="1140" y="225"/>
      <point x="1046" y="123"/>
      <point x="927" y="56"/>
      <point x="797" y="16"/>
      <point x="662" y="0"/>
      <point x="600" y="0" type="qcurve"/>
      <point x="568" y="-1"/>
      <point x="535" y="3" type="qcurve"/>
      <point x="506" y="6"/>
      <point x="438" y="18"/>
      <point x="405" y="32" type="qcurve"/>
    </contour>
  </outline>
</glyph>
<glyph name="epsilon" format="1">
  <advance width="1000"/>
  <unicode hex="03B5"/>
  <outline>
    <contour>
      <point x="831" y="633" type="line"/>
      <point x="788" y="500" type="line"/>
      <point x="534" y="500" type="line"/>
      <point x="485" y="500"/>
      <point x="404" y="472"/>
      <point x="346" y="421"/>
      <point x="314" y="352"/>
      <point x="315" y="312" type="qcurve"/>
      <point x="317" y="240"/>
      <point x="428" y="147"/>
      <point x="539" y="137" type="qcurve"/>
      <point x="598" y="132"/>
      <point x="691" y="149"/>
      <point x="723" y="163" type="qcurve"/>
      <point x="761" y="178"/>
      <point x="790" y="200" type="qcurve"/>
      <point x="862" y="99" type="line"/>
      <point x="836" y="63"/>
      <point x="785" y="36" type="qcurve"/>
      <point x="763" y="24"/>
      <point x="704" y="3"/>
      <point x="627" y="-12"/>
      <point x="531" y="-20"/>
      <point x="472" y="-17" type="qcurve"/>
      <point x="400" y="-14"/>
      <point x="268" y="32"/>
      <point x="171" y="116"/>
      <point x="118" y="236"/>
      <point x="125" y="313" type="qcurve"/>
      <point x="129" y="356"/>
      <point x="158" y="437"/>
      <point x="204" y="504"/>
      <point x="264" y="552"/>
      <point x="298" y="564" type="qcurve"/>
      <point x="246" y="602"/>
      <point x="206" y="723"/>
      <point x="212" y="810" type="qcurve"/>
      <point x="218" y="898"/>
      <point x="302" y="1016"/>
      <point x="431" y="1087"/>
      <point x="590" y="1117"/>
      <point x="671" y="1117" type="qcurve"/>
      <point x="728" y="1117"/>
      <point x="825" y="1100"/>
      <point x="862" y="1090" type="qcurve"/>
      <point x="905" y="1079"/>
      <point x="941" y="1064" type="qcurve"/>
      <point x="864" y="944" type="line"/>
      <point x="839" y="947"/>
      <point x="811" y="951" type="qcurve"/>
      <point x="786" y="954"/>
      <point x="722" y="960"/>
      <point x="684" y="963" type="qcurve"/>
      <point x="621" y="967"/>
      <point x="516" y="946"/>
      <point x="441" y="899"/>
      <point x="399" y="832"/>
      <point x="399" y="791" type="qcurve"/>
      <point x="399" y="758"/>
      <point x="421" y="701"/>
      <point x="461" y="658"/>
      <point x="520" y="633"/>
      <point x="557" y="633" type="qcurve"/>
    </contour>
  </outline>
</glyph>
<glyph name="nu" format="1">
  <advance width="1200"/>
  <unicode hex="03BD"/>
  <outline>
    <contour>
      <point x="457" y="0" type="line"/>
      <point x="267" y="1100" type="line"/>
      <point x="460" y="1100" type="line"/>
      <point x="596" y="295" type="line"/>
      <point x="603" y="75" type="line"/>
      <point x="690" y="295" type="line"/>
      <point x="1108" y="1100" type="line"/>
      <point x="1299" y="1100" type="line"/>
      <point x="724" y="0" type="line"/>
    </contour>
  </outline>
</glyph>
<glyph name="sigma" format="1">
  <advance width="1300"/>
  <unicode hex="03C3"/>
  <outline>
    <contour>
      <point x="196" y="550" type="qcurve"/>
      <point x="204" y="657"/>
      <point x="279" y="862"/>
      <point x="424" y="1022"/>
      <point x="644" y="1120"/>
      <point x="797" y="1120" type="qcurve"/>
      <point x="1397" y="1120" type="line"/>
      <point x="1372" y="980" type="line"/>
      <point x="1297" y="980" type="line"/>
      <point x="1107" y="990" type="line"/>
      <point x="1188" y="852" type="line"/>
      <point x="1208" y="783"/>
      <point x="1203" y="633"/>
      <point x="1196" y="550" type="qcurve"/>
      <point x="1189" y="472"/>
      <point x="1144" y="323"/>
      <point x="1069" y="190"/>
      <point x="966" y="80"/>
      <point x="837" y="5"/>
      <point x="684" y="-29"/>
      <point x="596" y="-20" type="qcurve"/>
      <point x="468" y="-7"/>
      <point x="305" y="89"/>
      <point x="215" y="239"/>
      <point x="188" y="436"/>
    </contour>
    <contour>
      <point x="366" y="550" type="qcurve"/>
      <point x="359" y="471"/>
      <point x="375" y="328"/>
      <point x="432" y="213"/>
      <point x="538" y="134"/>
      <point x="621" y="120" type="qcurve"/>
      <point x="675" y="111"/>
      <point x="777" y="138"/>
      <point x="867" y="197"/>
      <point x="942" y="284"/>
      <point x="996" y="385"/>
      <point x="1026" y="496"/>
      <point x="1026" y="550" type="qcurve"/>
      <point x="1026" y="629"/>
      <point x="1009" y="774"/>
      <point x="955" y="889"/>
      <point x="855" y="967"/>
      <point x="772" y="980" type="qcurve"/>
      <point x="717" y="988"/>
      <point x="617" y="961"/>
      <point x="529" y="900"/>
      <point x="457" y="813"/>
      <point x="404" y="712"/>
      <point x="370" y="603"/>
    </contour>
  </outline>
</glyph>
<glyph name="upsilon" format="1">
  <advance width="1200"/>
  <unicode hex="03C5"/>
  <outline>
    <contour>
      <point x="487" y="497" type="line"/>
      <point x="474" y="423"/>
      <point x="473" y="294"/>
      <point x="512" y="196"/>
      <point x="598" y="135"/>
      <point x="672" y="129" type="qcurve"/>
      <point x="757" y="122"/>
      <point x="867" y="181"/>
      <point x="936" y="287"/>
      <point x="974" y="425"/>
      <point x="987" y="497" type="qcurve"/>
      <point x="1029" y="732" type="line"/>
      <point x="1045" y="822"/>
      <point x="1019" y="930"/>
      <point x="966" y="988"/>
      <point x="900" y="1007"/>
      <point x="877" y="1007" type="qcurve"/>
      <point x="896" y="1117" type="line"/>
      <point x="970" y="1125"/>
      <point x="1100" y="1070"/>
      <point x="1192" y="969"/>
      <point x="1236" y="832"/>
      <point x="1223" y="759" type="qcurve"/>
      <point x="1177" y="495" type="line"/>
      <point x="1170" y="455"/>
      <point x="1145" y="345"/>
      <point x="1099" y="227"/>
      <point x="1025" y="112"/>
      <point x="912" y="24"/>
      <point x="754" y="-24"/>
      <point x="647" y="-17" type="qcurve"/>
      <point x="549" y="-11"/>
      <point x="417" y="47"/>
      <point x="334" y="133"/>
      <point x="294" y="238"/>
      <point x="283" y="348"/>
      <point x="291" y="453"/>
      <point x="299" y="495" type="qcurve"/>
      <point x="360" y="845" type="line"/>
      <point x="371" y="905"/>
      <point x="342" y="974"/>
      <point x="295" y="974" type="qcurve"/>
      <point x="246" y="974"/>
      <point x="174" y="905"/>
      <point x="163" y="845" type="qcurve"/>
      <point x="49" y="845" type="line"/>
      <point x="60" y="906"/>
      <point x="104" y="1006"/>
      <point x="173" y="1078"/>
      <point x="268" y="1117"/>
      <point x="328" y="1117" type="qcurve"/>
      <point x="382" y="1117"/>
      <point x="471" y="1071"/>
      <point x="530" y="996"/>
      <point x="556" y="897"/>
      <point x="548" y="845" type="qcurve"/>
    </contour>
  </outline>
</glyph>
<glyph name="chi" format="1">
  <advance width="1300"/>
  <unicode hex="03C7"/>
  <outline>
    <contour>
      <point x="699" y="49" type="line"/>
      <point x="654" y="230" type="line"/>
      <point x="578" y="70" type="line"/>
      <point x="162" y="-500" type="line"/>
      <point x="-35" y="-500" type="line"/>
      <point x="581" y="329" type="line"/>
      <point x="371" y="869" type="line"/>
      <point x="358" y="901"/>
      <point x="325" y="947"/>
      <point x="310" y="961" type="qcurve"/>
      <point x="292" y="978"/>
      <point x="274" y="987" type="qcurve"/>
      <point x="296" y="1117" type="line"/>
      <point x="333" y="1117"/>
      <point x="409" y="1098"/>
      <point x="476" y="1056"/>
      <point x="533" y="988"/>
      <point x="552" y="940" type="qcurve"/>
      <point x="693" y="586" type="line"/>
      <point x="738" y="390" type="line"/>
      <point x="801" y="550" type="line"/>
      <point x="1196" y="1100" type="line"/>
      <point x="1396" y="1100" type="line"/>
      <point x="811" y="306" type="line"/>
      <point x="1033" y="-269" type="line"/>
      <point x="1053" y="-322"/>
      <point x="1088" y="-371"/>
      <point x="1102" y="-380" type="qcurve"/>
      <point x="1117" y="-391"/>
      <point x="1130" y="-387" type="qcurve"/>
      <point x="1107" y="-517" type="line"/>
      <point x="1075" y="-522"/>
      <point x="1010" y="-522"/>
      <point x="944" y="-490"/>
      <point x="881" y="-413"/>
      <point x="852" y="-340" type="qcurve"/>
    </contour>
  </outline>
</glyph>
<glyph name="psi" format="1">
  <advance width="1500"/>
  <unicode hex="03C8"/>
  <outline>
    <contour>
      <point x="294" y="800" type="line"/>
      <point x="487" y="820" type="line"/>
      <point x="430" y="497" type="line"/>
      <point x="417" y="425"/>
      <point x="416" y="292"/>
      <point x="447" y="190"/>
      <point x="517" y="129"/>
      <point x="575" y="129" type="qcurve"/>
      <point x="591" y="128"/>
      <point x="609" y="128" type="qcurve"/>
      <point x="673" y="128" type="line"/>
      <point x="844" y="1100" type="line"/>
      <point x="1040" y="1120" type="line"/>
      <point x="865" y="128" type="line"/>
      <point x="911" y="128"/>
      <point x="974" y="128"/>
      <point x="975" y="129" type="qcurve"/>
      <point x="1055" y="129"/>
      <point x="1151" y="190"/>
      <point x="1208" y="292"/>
      <point x="1237" y="425"/>
      <point x="1250" y="497" type="qcurve"/>
      <point x="1281" y="672" type="line"/>
      <point x="1297" y="764"/>
      <point x="1275" y="892"/>
      <point x="1226" y="971"/>
      <point x="1164" y="1007"/>
      <point x="1141" y="1007" type="qcurve"/>
      <point x="1160" y="1117" type="line"/>
      <point x="1243" y="1117"/>
      <point x="1372" y="1039"/>
      <point x="1455" y="917"/>
      <point x="1488" y="769"/>
      <point x="1476" y="699" type="qcurve"/>
      <point x="1440" y="495" type="line"/>
      <point x="1431" y="448"/>
      <point x="1412" y="335"/>
      <point x="1374" y="221"/>
      <point x="1312" y="115"/>
      <point x="1209" y="32"/>
      <point x="1057" y="-17"/>
      <point x="950" y="-17" type="qcurve"/>
      <point x="840" y="-17" type="line"/>
      <point x="754" y="-500" type="line"/>
      <point x="562" y="-500" type="line"/>
      <point x="648" y="-17" type="line"/>
      <point x="550" y="-17" type="line"/>
      <point x="460" y="-17"/>
      <point x="341" y="37"/>
      <point x="267" y="124"/>
      <point x="233" y="235"/>
      <point x="224" y="349"/>
      <point x="233" y="455"/>
      <point x="240" y="495" type="qcurve"/>
    </contour>
  </outline>
</glyph>
<glyph name="theta1" format="1">
  <advance width="1300"/>
  <unicode hex="03D1"/>
  <outline>
    <contour>
      <point x="393" y="481" type="line"/>
      <point x="404" y="416"/>
      <point x="429" y="293"/>
      <point x="477" y="199"/>
      <point x="558" y="142"/>
      <point x="625" y="143" type="qcurve"/>
      <point x="708" y="144"/>
      <point x="843" y="218"/>
      <point x="947" y="352"/>
      <point x="1018" y="538"/>
      <point x="1038" y="650" type="qcurve"/>
      <point x="614" y="650" type="line"/>
      <point x="573" y="650"/>
      <point x="490" y="659"/>
      <point x="412" y="685"/>
      <point x="345" y="732"/>
      <point x="296" y="805"/>
      <point x="270" y="909"/>
      <point x="272" y="980" type="qcurve"/>
      <point x="274" y="1040"/>
      <point x="322" y="1167"/>
      <point x="404" y="1288"/>
      <point x="516" y="1395"/>
      <point x="647" y="1475"/>
      <point x="793" y="1521"/>
      <point x="868" y="1520" type="qcurve"/>
      <point x="981" y="1519"/>
      <point x="1141" y="1404"/>
      <point x="1234" y="1208"/>
      <point x="1260" y="947"/>
      <point x="1240" y="800" type="qcurve"/>
      <point x="1463" y="800" type="line"/>
      <point x="1416" y="650" type="line"/>
      <point x="1210" y="650" type="line"/>
      <point x="1192" y="560"/>
      <point x="1134" y="386"/>
      <point x="1054" y="231"/>
      <point x="952" y="102"/>
      <point x="828" y="13"/>
      <point x="681" y="-29"/>
      <point x="596" y="-20" type="qcurve"/>
      <point x="503" y="-10"/>
      <point x="367" y="67"/>
      <point x="274" y="181"/>
      <point x="223" y="322"/>
      <point x="216" y="394" type="qcurve"/>
    </contour>
    <contour>
      <point x="839" y="1357" type="qcurve"/>
      <point x="789" y="1363"/>
      <point x="693" y="1340"/>
      <point x="605" y="1288"/>
      <point x="530" y="1213"/>
      <point x="475" y="1123"/>
      <point x="443" y="1023"/>
      <point x="442" y="972" type="qcurve"/>
      <point x="441" y="906"/>
      <point x="478" y="836"/>
      <point x="553" y="805"/>
      <point x="666" y="800"/>
      <point x="741" y="800" type="qcurve"/>
      <point x="1066" y="800" type="line"/>
      <point x="1094" y="919"/>
      <point x="1074" y="1117"/>
      <point x="1003" y="1263"/>
      <point x="896" y="1349"/>
    </contour>
  </outline>
</glyph>
<glyph name="omega1" format="1">
  <advance width="1600"/>
  <unicode hex="03D6"/>
  <outline>
    <contour>
      <point x="1666" y="942" type="line"/>
      <point x="1475" y="942" type="line"/>
      <point x="1573" y="885" type="line"/>
      <point x="1583" y="857"/>
      <point x="1593" y="793"/>
      <point x="1592" y="704"/>
      <point x="1580" y="581"/>
      <point x="1570" y="495" type="qcurve"/>
      <point x="1563" y="440"/>
      <point x="1533" y="314"/>
      <point x="1481" y="191"/>
      <point x="1405" y="83"/>
      <point x="1300" y="6"/>
      <point x="1165" y="-30"/>
      <point x="1080" y="-17" type="qcurve"/>
      <point x="1022" y="-8"/>
      <point x="937" y="14"/>
      <point x="875" y="46"/>
      <point x="831" y="90"/>
      <point x="814" y="120" type="qcurve"/>
      <point x="787" y="90"/>
      <point x="725" y="35"/>
      <point x="650" y="-4"/>
      <point x="558" y="-23"/>
      <point x="501" y="-17" type="qcurve"/>
      <point x="412" y="-9"/>
      <point x="293" y="52"/>
      <point x="219" y="139"/>
      <point x="185" y="246"/>
      <point x="175" y="354"/>
      <point x="184" y="455"/>
      <point x="191" y="495" type="qcurve"/>
      <point x="206" y="580"/>
      <point x="236" y="703"/>
      <point x="269" y="792"/>
      <point x="305" y="857"/>
      <point x="326" y="885" type="qcurve"/>
      <point x="444" y="942" type="line"/>
      <point x="246" y="942" type="line"/>
      <point x="293" y="1100" type="line"/>
      <point x="1713" y="1100" type="line"/>
    </contour>
    <contour>
      <point x="1014" y="725" type="line"/>
      <point x="971" y="482" type="line"/>
      <point x="961" y="427"/>
      <point x="956" y="310"/>
      <point x="982" y="211"/>
      <point x="1046" y="139"/>
      <point x="1105" y="129" type="qcurve"/>
      <point x="1165" y="119"/>
      <point x="1256" y="178"/>
      <point x="1323" y="285"/>
      <point x="1367" y="425"/>
      <point x="1380" y="497" type="qcurve"/>
      <point x="1399" y="605"/>
      <point x="1407" y="756"/>
      <point x="1394" y="859"/>
      <point x="1365" y="922"/>
      <point x="1348" y="942" type="qcurve"/>
      <point x="570" y="942" type="line"/>
      <point x="545" y="922"/>
      <point x="494" y="859"/>
      <point x="445" y="756"/>
      <point x="400" y="605"/>
      <point x="381" y="497" type="qcurve"/>
      <point x="368" y="425"/>
      <point x="370" y="302"/>
      <point x="405" y="206"/>
      <point x="473" y="141"/>
      <point x="526" y="129" type="qcurve"/>
      <point x="585" y="115"/>
      <point x="671" y="169"/>
      <point x="732" y="272"/>
      <point x="772" y="411"/>
      <point x="784" y="482" type="qcurve"/>
      <point x="831" y="745" type="line"/>
    </contour>
  </outline>
</glyph>
<glyph name="emdash" format="1">
  <advance width="2100"/>
  <unicode hex="2014"/>
  <outline>
    <contour>
      <point x="105" y="600" type="line"/>
      <point x="2105" y="600" type="line"/>
      <point x="2078" y="446" type="line"/>
      <point x="78" y="446" type="line"/>
    </contour>
  </outline>
</glyph>
<glyph name="dblverticalbar" format="1">
  <advance width="800"/>
  <unicode hex="2016"/>
  <outline>
    <contour>
      <point x="619" y="1500" type="line"/>
      <point x="355" y="0" type="line"/>
      <point x="200" y="0" type="line"/>
      <point x="464" y="1500" type="line"/>
    </contour>
    <contour>
      <point x="919" y="1500" type="line"/>
      <point x="655" y="0" type="line"/>
      <point x="500" y="0" type="line"/>
      <point x="764" y="1500" type="line"/>
    </contour>
  </outline>
</glyph>
<glyph name="dagger" format="1">
  <advance width="1100"/>
  <unicode hex="2020"/>
  <outline>
    <contour>
      <point x="284" y="1049" type="line"/>
      <point x="584" y="1049" type="line"/>
      <point x="664" y="1500" type="line"/>
      <point x="868" y="1520" type="line"/>
      <point x="784" y="1049" type="line"/>
      <point x="1104" y="1049" type="line"/>
      <point x="1058" y="900" type="line"/>
      <point x="758" y="900" type="line"/>
      <point x="529" y="-400" type="line"/>
      <point x="329" y="-400" type="line"/>
      <point x="558" y="900" type="line"/>
      <point x="258" y="900" type="line"/>
    </contour>
  </outline>
</glyph>
<glyph name="daggerdbl" format="1">
  <advance width="1000"/>
  <unicode hex="2021"/>
  <outline>
    <contour>
      <point x="284" y="1049" type="line"/>
      <point x="584" y="1049" type="line"/>
      <point x="664" y="1500" type="line"/>
      <point x="868" y="1520" type="line"/>
      <point x="784" y="1049" type="line"/>
      <point x="1104" y="1049" type="line"/>
      <point x="1058" y="900" type="line"/>
      <point x="758" y="900" type="line"/>
      <point x="652" y="300" type="line"/>
      <point x="952" y="300" type="line"/>
      <point x="926" y="150" type="line"/>
      <point x="626" y="150" type="line"/>
      <point x="529" y="-400" type="line"/>
      <point x="329" y="-400" type="line"/>
      <point x="426" y="150" type="line"/>
      <point x="126" y="150" type="line"/>
      <point x="152" y="300" type="line"/>
      <point x="452" y="300" type="line"/>
      <point x="558" y="900" type="line"/>
      <point x="258" y="900" type="line"/>
    </contour>
  </outline>
</glyph>
<glyph name="guilsinglright" format="1">
  <advance width="900"/>
  <unicode hex="203A"/>
  <outline>
    <contour>
      <point x="808" y="617" type="line"/>
      <point x="784" y="478" type="line"/>
      <point x="243" y="66" type="line"/>
      <point x="213" y="201" type="line"/>
      <point x="592" y="490" type="line"/>
      <point x="739" y="550" type="line"/>
      <point x="612" y="610" type="line"/>
      <point x="338" y="901" type="line"/>
      <point x="410" y="1026" type="line"/>
    </contour>
  </outline>
</glyph>
<glyph name="ismallsuperior" format="1">
  <advance width="300"/>
  <unicode hex="2071"/>
  <outline>
    <contour>
      <point x="195" y="720" type="line"/>
      <point x="104" y="720" type="line"/>
      <point x="197" y="1247" type="line"/>
      <point x="289" y="1257" type="line"/>
    </contour>
    <contour>
      <point x="234" y="1470" type="line"/>
      <point x="330" y="1470" type="line"/>
      <point x="312" y="1370" type="line"/>
      <point x="216" y="1370" type="line"/>
    </contour>
  </outline>
</glyph>
<glyph name="fivesuperior" format="1">
  <advance width="600"/>
  <unicode hex="2075"/>
  <outline>
    <contour>
      <point x="285" y="1211" type="line"/>
      <point x="289" y="1213"/>
      <point x="307" y="1222"/>
      <point x="331" y="1231"/>
      <point x="359" y="1237"/>
      <point x="372" y="1237" type="qcurve"/>
      <point x="426" y="1237"/>
      <point x="503" y="1205"/>
      <point x="551" y="1149"/>
      <point x="571" y="1073"/>
      <point x="569" y="1029" type="qcurve"/>
      <point x="565" y="974"/>
      <point x="525" y="886"/>
      <point x="458" y="817"/>
      <point x="370" y="767"/>
      <point x="268" y="735"/>
      <point x="156" y="720"/>
      <point x="100" y="720" type="qcurve"/>
      <point x="114" y="800" type="line"/>
      <point x="185" y="800"/>
      <point x="311" y="832"/>
      <point x="407" y="890"/>
      <point x="465" y="970"/>
      <point x="469" y="1019" type="qcurve"/>
      <point x="471" y="1045"/>
      <point x="456" y="1093"/>
      <point x="424" y="1130"/>
      <point x="377" y="1153"/>
      <point x="348" y="1153" type="qcurve"/>
      <point x="307" y="1153"/>
      <point x="251" y="1136"/>
      <point x="227" y="1120" type="qcurve"/>
      <point x="170" y="1120" type="line"/>
      <point x="232" y="1470" type="line"/>
      <point x="603" y="1470" type="line"/>
      <point x="589" y="1390" type="line"/>
      <point x="317" y="1390" type="line"/>
    </contour>
  </outline>
</glyph>
<glyph name="sixsuperior" format="1">
  <advance width="600"/>
  <unicode hex="2076"/>
  <outline>
    <contour>
      <point x="582" y="1392" type="line"/>
      <point x="579" y="1393"/>
      <point x="566" y="1393"/>
      <point x="560" y="1393" type="qcurve"/>
      <point x="516" y="1393"/>
      <point x="439" y="1371"/>
      <point x="372" y="1330"/>
      <point x="315" y="1273"/>
      <point x="270" y="1204"/>
      <point x="235" y="1126"/>
      <point x="224" y="1085" type="qcurve"/>
      <point x="276" y="1143" type="line"/>
      <point x="290" y="1151"/>
      <point x="326" y="1167"/>
      <point x="365" y="1178"/>
      <point x="404" y="1185"/>
      <point x="421" y="1183" type="qcurve"/>
      <point x="464" y="1180"/>
      <point x="533" y="1156"/>
      <point x="582" y="1108"/>
      <point x="606" y="1032"/>
      <point x="605" y="976" type="qcurve"/>
      <point x="604" y="940"/>
      <point x="581" y="870"/>
      <point x="543" y="809"/>
      <point x="490" y="759"/>
      <point x="425" y="725"/>
      <point x="351" y="708"/>
      <point x="311" y="711" type="qcurve"/>
      <point x="267" y="715"/>
      <point x="202" y="749"/>
      <point x="158" y="800"/>
      <point x="131" y="865"/>
      <point x="118" y="934"/>
      <point x="117" y="1001"/>
      <point x="119" y="1030" type="qcurve"/>
      <point x="124" y="1090"/>
      <point x="162" y="1203"/>
      <point x="223" y="1302"/>
      <point x="305" y="1385"/>
      <point x="404" y="1445"/>
      <point x="518" y="1478"/>
      <point x="580" y="1478" type="qcurve"/>
      <point x="587" y="1478"/>
      <point x="605" y="1478"/>
      <point x="610" y="1477" type="qcurve"/>
    </contour>
    <contour>
      <point x="217" y="1018" type="qcurve"/>
      <point x="214" y="1004"/>
      <point x="211" y="981"/>
      <point x="209" y="959"/>
      <point x="209" y="937"/>
      <point x="210" y="923" type="qcurve"/>
      <point x="212" y="901"/>
      <point x="228" y="859"/>
      <point x="257" y="824"/>
      <point x="299" y="800"/>
      <point x="327" y="796" type="qcurve"/>
      <point x="361" y="791"/>
      <point x="423" y="813"/>
      <point x="470" y="859"/>
      <point x="501" y="928"/>
      <point x="505" y="971" type="qcurve"/>
      <point x="509" y="1024"/>
      <point x="454" y="1093"/>
      <point x="398" y="1098" type="qcurve"/>
      <point x="341" y="1104"/>
      <point x="250" y="1064"/>
    </contour>
  </outline>
</glyph>
<glyph name="plussuperior" format="1">
  <advance width="600"/>
  <unicode hex="207A"/>
  <outline>
    <contour>
      <point x="111" y="1070" type="line"/>
      <point x="298" y="1070" type="line"/>
      <point x="335" y="1281" type="line"/>
      <point x="413" y="1281" type="line"/>
      <point x="375" y="1070" type="line"/>
      <point x="561" y="1070" type="line"/>
      <point x="548" y="992" type="line"/>
      <point x="362" y="992" type="line"/>
      <point x="324" y="781" type="line"/>
      <point x="247" y="781" type="line"/>
      <point x="284" y="992" type="line"/>
      <point x="98" y="992" type="line"/>
    </contour>
  </outline>
</glyph>
<glyph name="equalsuperior" format="1">
  <advance width="500"/>
  <unicode hex="207C"/>
  <outline>
    <contour>
      <point x="170" y="1120" type="line"/>
      <point x="520" y="1120" type="line"/>
      <point x="506" y="1042" type="line"/>
      <point x="156" y="1042" type="line"/>
    </contour>
    <contour>
      <point x="135" y="920" type="line"/>
      <point x="485" y="920" type="line"/>
      <point x="471" y="842" type="line"/>
      <point x="121" y="842" type="line"/>
    </contour>
  </outline>
</glyph>
<glyph name="parenleftsuperior" format="1">
  <advance width="400"/>
  <unicode hex="207D"/>
  <outline>
    <contour>
      <point x="204" y="1310" type="line"/>
      <point x="214" y="1370"/>
      <point x="238" y="1451"/>
      <point x="277" y="1499"/>
      <point x="339" y="1520"/>
      <point x="388" y="1520" type="qcurve"/>
      <point x="397" y="1520"/>
      <point x="418" y="1518"/>
      <point x="436" y="1515"/>
      <point x="451" y="1510"/>
      <point x="455" y="1507" type="qcurve"/>
      <point x="409" y="1444" type="line"/>
      <point x="402" y="1445" type="line"/>
      <point x="399" y="1446"/>
      <point x="390" y="1447"/>
      <point x="385" y="1447" type="qcurve"/>
      <point x="357" y="1447"/>
      <point x="328" y="1426"/>
      <point x="313" y="1390"/>
      <point x="306" y="1343"/>
      <point x="302" y="1317" type="qcurve"/>
      <point x="195" y="713" type="line"/>
      <point x="191" y="687"/>
      <point x="182" y="640"/>
      <point x="185" y="604"/>
      <point x="206" y="583"/>
      <point x="232" y="583" type="qcurve"/>
      <point x="238" y="583"/>
      <point x="247" y="583"/>
      <point x="251" y="584" type="qcurve"/>
      <point x="258" y="585" type="line"/>
      <point x="281" y="522" type="line"/>
      <point x="276" y="519"/>
      <point x="259" y="514"/>
      <point x="240" y="510"/>
      <point x="219" y="509"/>
      <point x="209" y="510" type="qcurve"/>
      <point x="175" y="512"/>
      <point x="129" y="531"/>
      <point x="102" y="561"/>
      <point x="91" y="601"/>
      <point x="89" y="646"/>
      <point x="95" y="695"/>
      <point x="100" y="720" type="qcurve"/>
    </contour>
  </outline>
</glyph>
<glyph name="parenrightsuperior" format="1">
  <advance width="500"/>
  <unicode hex="207E"/>
  <outline>
    <contour>
      <point x="350" y="720" type="line"/>
      <point x="344" y="686"/>
      <point x="333" y="629"/>
      <point x="318" y="582"/>
      <point x="294" y="546"/>
      <point x="257" y="522"/>
      <point x="203" y="509"/>
      <point x="165" y="510" type="qcurve"/>
      <point x="155" y="510"/>
      <point x="135" y="512"/>
      <point x="117" y="515"/>
      <point x="102" y="519"/>
      <point x="98" y="522" type="qcurve"/>
      <point x="144" y="585" type="line"/>
      <point x="151" y="584" type="line"/>
      <point x="154" y="583"/>
      <point x="163" y="583"/>
      <point x="168" y="583" type="qcurve"/>
      <point x="194" y="583"/>
      <point x="223" y="604"/>
      <point x="239" y="640"/>
      <point x="247" y="687"/>
      <point x="251" y="713" type="qcurve"/>
      <point x="358" y="1317" type="line"/>
      <point x="362" y="1343"/>
      <point x="369" y="1389"/>
      <point x="364" y="1424"/>
      <point x="343" y="1446"/>
      <point x="321" y="1447" type="qcurve"/>
      <point x="315" y="1447"/>
      <point x="306" y="1446"/>
      <point x="302" y="1445" type="qcurve"/>
      <point x="295" y="1444" type="line"/>
      <point x="272" y="1507" type="line"/>
      <point x="277" y="1510"/>
      <point x="293" y="1515"/>
      <point x="313" y="1518"/>
      <point x="334" y="1520"/>
      <point x="344" y="1520" type="qcurve"/>
      <point x="390" y="1520"/>
      <point x="442" y="1486"/>
      <point x="464" y="1429"/>
      <point x="461" y="1352"/>
      <point x="454" y="1310" type="qcurve"/>
    </contour>
  </outline>
</glyph>
<glyph name="oneinferior" format="1">
  <advance width="600"/>
  <unicode hex="2081"/>
  <outline>
    <contour>
      <point x="175" y="-500" type="line"/>
      <point x="189" y="-420" type="line"/>
      <point x="311" y="-420" type="line"/>
      <point x="396" y="63" type="line"/>
      <point x="445" y="176" type="line"/>
      <point x="361" y="83" type="line"/>
      <point x="238" y="-11" type="line"/>
      <point x="195" y="50" type="line"/>
      <point x="461" y="260" type="line"/>
      <point x="529" y="250" type="line"/>
      <point x="411" y="-420" type="line"/>
      <point x="534" y="-420" type="line"/>
      <point x="520" y="-500" type="line"/>
    </contour>
  </outline>
</glyph>
<glyph name="threeinferior" format="1">
  <advance width="600"/>
  <unicode hex="2083"/>
  <outline>
    <contour>
      <point x="225" y="170" type="line"/>
      <point x="247" y="250" type="line"/>
      <point x="612" y="250" type="line"/>
      <point x="599" y="180" type="line"/>
      <point x="590" y="160"/>
      <point x="554" y="116"/>
      <point x="507" y="72"/>
      <point x="454" y="29"/>
      <point x="428" y="9" type="qcurve"/>
      <point x="355" y="-28" type="line"/>
      <point x="360" y="-27"/>
      <point x="376" y="-27"/>
      <point x="383" y="-26" type="qcurve"/>
      <point x="420" y="-25"/>
      <point x="492" y="-52"/>
      <point x="547" y="-104"/>
      <point x="578" y="-178"/>
      <point x="572" y="-224" type="qcurve"/>
      <point x="566" y="-276"/>
      <point x="521" y="-358"/>
      <point x="452" y="-419"/>
      <point x="363" y="-462"/>
      <point x="262" y="-488"/>
      <point x="153" y="-500"/>
      <point x="100" y="-500" type="qcurve"/>
      <point x="114" y="-420" type="line"/>
      <point x="153" y="-420"/>
      <point x="236" y="-411"/>
      <point x="314" y="-393"/>
      <point x="384" y="-364"/>
      <point x="437" y="-322"/>
      <point x="469" y="-265"/>
      <point x="471" y="-229" type="qcurve"/>
      <point x="473" y="-197"/>
      <point x="449" y="-149"/>
      <point x="402" y="-118"/>
      <point x="337" y="-104"/>
      <point x="297" y="-105" type="qcurve"/>
      <point x="281" y="-106"/>
      <point x="243" y="-107"/>
      <point x="228" y="-108" type="qcurve"/>
      <point x="242" y="-30" type="line"/>
      <point x="265" y="-15"/>
      <point x="320" y="23"/>
      <point x="376" y="64"/>
      <point x="430" y="107"/>
      <point x="475" y="145"/>
      <point x="507" y="179"/>
      <point x="513" y="190" type="qcurve"/>
      <point x="433" y="170" type="line"/>
    </contour>
  </outline>
</glyph>
<glyph name="fourinferior" format="1">
  <advance width="600"/>
  <unicode hex="2084"/>
  <outline>
    <contour>
      <point x="563" y="-350" type="line"/>
      <point x="473" y="-350" type="line"/>
      <point x="447" y="-500" type="line"/>
      <point x="347" y="-500" type="line"/>
      <point x="373" y="-350" type="line"/>
      <point x="76" y="-350" type="line"/>
      <point x="91" y="-265" type="line"/>
      <point x="426" y="260" type="line"/>
      <point x="518" y="250" type="line"/>
      <point x="231" y="-200" type="line"/>
      <point x="173" y="-270" type="line"/>
      <point x="388" y="-270" type="line"/>
      <point x="423" y="-67" type="line"/>
      <point x="522" y="-75" type="line"/>
      <point x="488" y="-270" type="line"/>
      <point x="585" y="-270" type="line"/>
    </contour>
  </outline>
</glyph>
<glyph name="sixinferior" format="1">
  <advance width="600"/>
  <unicode hex="2086"/>
  <outline>
    <contour>
      <point x="582" y="172" type="line"/>
      <point x="579" y="173"/>
      <point x="566" y="173"/>
      <point x="560" y="173" type="qcurve"/>
      <point x="516" y="173"/>
      <point x="439" y="151"/>
      <point x="372" y="110"/>
      <point x="315" y="53"/>
      <point x="270" y="-16"/>
      <point x="235" y="-94"/>
      <point x="224" y="-135" type="qcurve"/>
      <point x="276" y="-77" type="line"/>
      <point x="290" y="-69"/>
      <point x="326" y="-53"/>
      <point x="365" y="-42"/>
      <point x="404" y="-35"/>
      <point x="421" y="-37" type="qcurve"/>
      <point x="464" y="-40"/>
      <point x="533" y="-64"/>
      <point x="582" y="-112"/>
      <point x="606" y="-188"/>
      <point x="605" y="-244" type="qcurve"/>
      <point x="604" y="-280"/>
      <point x="581" y="-350"/>
      <point x="543" y="-411"/>
      <point x="490" y="-461"/>
      <point x="425" y="-495"/>
      <point x="351" y="-512"/>
      <point x="311" y="-509" type="qcurve"/>
      <point x="267" y="-505"/>
      <point x="202" y="-471"/>
      <point x="158" y="-420"/>
      <point x="131" y="-355"/>
      <point x="118" y="-286"/>
      <point x="117" y="-219"/>
      <point x="119" y="-190" type="qcurve"/>
      <point x="124" y="-130"/>
      <point x="162" y="-17"/>
      <point x="223" y="82"/>
      <point x="305" y="165"/>
      <point x="404" y="225"/>
      <point x="518" y="258"/>
      <point x="580" y="258" type="qcurve"/>
      <point x="587" y="258"/>
      <point x="605" y="258"/>
      <point x="610" y="257" type="qcurve"/>
    </contour>
    <contour>
      <point x="217" y="-202" type="qcurve"/>
      <point x="214" y="-216"/>
      <point x="211" y="-239"/>
      <point x="209" y="-261"/>
      <point x="209" y="-283"/>
      <point x="210" y="-297" type="qcurve"/>
      <point x="212" y="-319"/>
      <point x="228" y="-361"/>
      <point x="257" y="-396"/>
      <point x="299" y="-420"/>
      <point x="327" y="-424" type="qcurve"/>
      <point x="361" y="-429"/>
      <point x="423" y="-407"/>
      <point x="470" y="-361"/>
      <point x="501" y="-292"/>
      <point x="505" y="-249" type="qcurve"/>
      <point x="509" y="-196"/>
      <point x="454" y="-127"/>
      <point x="398" y="-122" type="qcurve"/>
      <point x="341" y="-116"/>
      <point x="250" y="-156"/>
    </contour>
  </outline>
</glyph>
<glyph name="parenrightinferior" format="1">
  <advance width="400"/>
  <unicode hex="208E"/>
  <outline>
    <contour>
      <point x="350" y="-500" type="line"/>
      <point x="344" y="-534"/>
      <point x="333" y="-591"/>
      <point x="318" y="-638"/>
      <point x="294" y="-674"/>
      <point x="257" y="-698"/>
      <point x="203" y="-711"/>
      <point x="165" y="-710" type="qcurve"/>
      <point x="155" y="-710"/>
      <point x="135" y="-708"/>
      <point x="117" y="-705"/>
      <point x="102" y="-701"/>
      <point x="98" y="-698" type="qcurve"/>
      <point x="144" y="-635" type="line"/>
      <point x="151" y="-636" type="line"/>
      <point x="154" y="-637"/>
      <point x="163" y="-637"/>
      <point x="168" y="-637" type="qcurve"/>
      <point x="194" y="-637"/>
      <point x="223" y="-616"/>
      <point x="239" y="-580"/>
      <point x="247" y="-533"/>
      <point x="251" y="-507" type="qcurve"/>
      <point x="358" y="97" type="line"/>
      <point x="362" y="123"/>
      <point x="369" y="169"/>
      <point x="364" y="204"/>
      <point x="343" y="226"/>
      <point x="321" y="227" type="qcurve"/>
      <point x="315" y="227"/>
      <point x="306" y="226"/>
      <point x="302" y="225" type="qcurve"/>
      <point x="295" y="224" type="line"/>
      <point x="272" y="287" type="line"/>
      <point x="277" y="290"/>
      <point x="293" y="295"/>
      <point x="313" y="298"/>
      <point x="334" y="300"/>
      <point x="344" y="300" type="qcurve"/>
      <point x="390" y="300"/>
      <point x="442" y="266"/>
      <point x="464" y="209"/>
      <point x="461" y="132"/>
      <point x="454" y="90" type="qcurve"/>
    </contour>
  </outline>
</glyph>
<glyph name="Euro" format="1">
  <advance width="1400"/>
  <unicode hex="20AC"/>
  <outline>
    <contour>
      <point x="445" y="946" type="line"/>
      <point x="539" y="1000" type="line"/>
      <point x="1176" y="1000" type="line"/>
      <point x="1071" y="850" type="line"/>
      <point x="87" y="850" type="line"/>
      <point x="114" y="1000" type="line"/>
      <point x="314" y="1000" type="line"/>
    </contour>
    <contour>
      <point x="413" y="685" type="line"/>
      <point x="364" y="596" type="line"/>
      <point x="457" y="651" type="line"/>
      <point x="947" y="651" type="line"/>
      <point x="842" y="500" type="line"/>
      <point x="26" y="500" type="line"/>
      <point x="52" y="651" type="line"/>
      <point x="221" y="651" type="line"/>
    </contour>
    <contour>
      <point x="1118" y="95" type="line"/>
      <point x="1098" y="81"/>
      <point x="1026" y="43"/>
      <point x="922" y="8"/>
      <point x="784" y="-17"/>
      <point x="697" y="-17" type="qcurve"/>
      <point x="562" y="-17"/>
      <point x="366" y="104"/>
      <point x="247" y="316"/>
      <point x="206" y="604"/>
      <point x="225" y="770" type="qcurve"/>
      <point x="244" y="936"/>
      <point x="363" y="1211"/>
      <point x="551" y="1408"/>
      <point x="803" y="1517"/>
      <point x="955" y="1517" type="qcurve"/>
      <point x="1198" y="1517"/>
      <point x="1330" y="1385" type="qcurve"/>
      <point x="1232" y="1263" type="line"/>
      <point x="1200" y="1285"/>
      <point x="1136" y="1315"/>
      <point x="1066" y="1333"/>
      <point x="987" y="1341"/>
      <point x="941" y="1341" type="qcurve"/>
      <point x="835" y="1340"/>
      <point x="657" y="1259"/>
      <point x="523" y="1111"/>
      <point x="439" y="902"/>
      <point x="426" y="773" type="qcurve"/>
      <point x="419" y="703"/>
      <point x="415" y="558"/>
      <point x="431" y="420"/>
      <point x="472" y="298"/>
      <point x="549" y="206"/>
      <point x="667" y="153"/>
      <point x="752" y="153" type="qcurve"/>
      <point x="797" y="153"/>
      <point x="879" y="165"/>
      <point x="957" y="189"/>
      <point x="1035" y="224"/>
      <point x="1076" y="247" type="qcurve"/>
    </contour>
  </outline>
</glyph>
<glyph name="indianrupee" format="1">
  <advance width="1200"/>
  <unicode hex="20B9"/>
  <outline>
    <contour>
      <point x="408" y="1350" type="line"/>
      <point x="474" y="1500" type="line"/>
      <point x="1342" y="1500" type="line"/>
      <point x="1238" y="1350" type="line"/>
      <point x="1028" y="1350" type="line"/>
      <point x="928" y="1375" type="line"/>
      <point x="991" y="1309" type="line"/>
      <point x="1020" y="1277"/>
      <point x="1031" y="1198"/>
      <point x="1020" y="1151" type="qcurve"/>
      <point x="1281" y="1151" type="line"/>
      <point x="1176" y="1000" type="line"/>
      <point x="1022" y="1000" type="line"/>
      <point x="925" y="1016" type="line"/>
      <point x="975" y="955" type="line"/>
      <point x="953" y="886"/>
      <point x="859" y="770"/>
      <point x="730" y="686"/>
      <point x="573" y="636"/>
      <point x="489" y="633" type="qcurve"/>
      <point x="624" y="593" type="line"/>
      <point x="963" y="0" type="line"/>
      <point x="740" y="0" type="line"/>
      <point x="401" y="595" type="line"/>
      <point x="393" y="609"/>
      <point x="366" y="614"/>
      <point x="358" y="614" type="qcurve"/>
      <point x="308" y="614" type="line"/>
      <point x="334" y="765" type="line"/>
      <point x="412" y="765" type="line"/>
      <point x="491" y="765"/>
      <point x="622" y="799"/>
      <point x="720" y="861"/>
      <point x="786" y="948"/>
      <point x="801" y="1000" type="qcurve"/>
      <point x="346" y="1000" type="line"/>
      <point x="412" y="1151" type="line"/>
      <point x="830" y="1151" type="line"/>
      <point x="831" y="1254"/>
      <point x="720" y="1350"/>
      <point x="600" y="1350" type="qcurve"/>
    </contour>
  </outline>
</glyph>
<glyph name="lsquare" format="1">
  <advance width="900"/>
  <unicode hex="2113"/>
  <outline>
    <contour>
      <point x="100" y="540" type="line"/>
      <point x="200" y="540" type="line"/>
      <point x="200" y="1000" type="line"/>
      <point x="200" y="1112"/>
      <point x="231" y="1302"/>
      <point x="309" y="1440"/>
      <point x="440" y="1517"/>
      <point x="540" y="1517" type="qcurve"/>
      <point x="596" y="1517"/>
      <point x="692" y="1471"/>
      <point x="761" y="1371"/>
      <point x="800" y="1212"/>
      <point x="800" y="1100" type="qcurve"/>
      <point x="800" y="1025"/>
      <point x="797" y="863"/>
      <point x="781" y="707"/>
      <point x="744" y="568"/>
      <point x="678" y="462"/>
      <point x="575" y="400"/>
      <point x="500" y="400" type="qcurve"/>
      <point x="400" y="400" type="line"/>
      <point x="400" y="383" type="line"/>
      <point x="400" y="328"/>
      <point x="410" y="239"/>
      <point x="426" y="207" type="qcurve"/>
      <point x="443" y="174"/>
      <point x="471" y="155" type="qcurve"/>
      <point x="503" y="134"/>
      <point x="537" y="130" type="qcurve"/>
      <point x="556" y="128"/>
      <point x="578" y="126"/>
      <point x="582" y="126" type="qcurve"/>
      <point x="607" y="126"/>
      <point x="672" y="142"/>
      <point x="691" y="153" type="qcurve"/>
      <point x="774" y="30" type="line"/>
      <point x="753" y="20"/>
      <point x="705" y="3"/>
      <point x="647" y="-10"/>
      <point x="575" y="-17"/>
      <point x="530" y="-17" type="qcurve"/>
      <point x="434" y="-17"/>
      <point x="307" y="44"/>
      <point x="231" y="152"/>
      <point x="200" y="298"/>
      <point x="200" y="383" type="qcurve"/>
      <point x="200" y="400" type="line"/>
      <point x="100" y="400" type="line"/>
    </contour>
    <contour>
      <point x="450" y="540" type="line"/>
      <point x="500" y="540" type="line"/>
      <point x="529" y="540"/>
      <point x="570" y="578"/>
      <point x="597" y="643"/>
      <point x="612" y="730"/>
      <point x="619" y="830"/>
      <point x="620" y="936"/>
      <point x="620" y="987" type="qcurve"/>
      <point x="620" y="1060"/>
      <point x="617" y="1199"/>
      <point x="599" y="1306"/>
      <point x="562" y="1371"/>
      <point x="528" y="1371" type="qcurve"/>
      <point x="507" y="1371"/>
      <point x="462" y="1338"/>
      <point x="424" y="1260"/>
      <point x="400" y="1133"/>
      <point x="400" y="1039" type="qcurve"/>
      <point x="400" y="440" type="line"/>
    </contour>
  </outline>
</glyph>
<glyph name="trademark" format="1">
  <advance width="1700"/>
  <unicode hex="2122"/>
  <outline>
    <contour>
      <point x="558" y="900" type="line"/>
      <point x="652" y="1433" type="line"/>
      <point x="452" y="1433" type="line"/>
      <point x="464" y="1500" type="line"/>
      <point x="964" y="1500" type="line"/>
      <point x="952" y="1433" type="line"/>
      <point x="752" y="1433" type="line"/>
      <point x="658" y="900" type="line"/>
    </contour>
    <contour>
      <point x="1458" y="900" type="line"/>
      <point x="1559" y="1470" type="line"/>
      <point x="1479" y="1300" type="line"/>
      <point x="1296" y="1000" type="line"/>
      <point x="1256" y="1000" type="line"/>
      <point x="1179" y="1300" type="line"/>
      <point x="1159" y="1470" type="line"/>
      <point x="1058" y="900" type="line"/>
      <point x="958" y="900" type="line"/>
      <point x="1064" y="1500" type="line"/>
      <point x="1204" y="1500" type="line"/>
      <point x="1280" y="1250" type="line"/>
      <point x="1293" y="1100" type="line"/>
      <point x="1360" y="1250" type="line"/>
      <point x="1524" y="1500" type="line"/>
      <point x="1664" y="1500" type="line"/>
      <point x="1558" y="900" type="line"/>
    </contour>
  </outline>
</glyph>
<glyph name="aleph" format="1">
  <advance width="1200"/>
  <unicode hex="2135"/>
  <outline>
    <contour>
      <point x="688" y="1100" type="line"/>
      <point x="692" y="1044"/>
      <point x="737" y="976"/>
      <point x="801" y="928"/>
      <point x="873" y="890"/>
      <point x="934" y="840"/>
      <point x="974" y="766"/>
      <point x="974" y="707" type="qcurve"/>
      <point x="974" y="644"/>
      <point x="946" y="568" type="qcurve"/>
      <point x="860" y="568" type="line"/>
      <point x="860" y="607"/>
      <point x="845" y="664"/>
      <point x="820" y="709"/>
      <point x="785" y="744"/>
      <point x="764" y="759" type="qcurve"/>
      <point x="752" y="717"/>
      <point x="710" y="654"/>
      <point x="678" y="622" type="qcurve"/>
      <point x="775" y="565"/>
      <point x="898" y="444"/>
      <point x="967" y="326"/>
      <point x="993" y="216"/>
      <point x="993" y="168" type="qcurve"/>
      <point x="993" y="113"/>
      <point x="971" y="21"/>
      <point x="962" y="0" type="qcurve"/>
      <point x="857" y="0" type="line"/>
      <point x="857" y="64"/>
      <point x="816" y="165"/>
      <point x="744" y="251"/>
      <point x="646" y="327"/>
      <point x="532" y="408"/>
      <point x="406" y="500"/>
      <point x="343" y="558" type="qcurve"/>
      <point x="343" y="666" type="line"/>
      <point x="314" y="635"/>
      <point x="279" y="593"/>
      <point x="260" y="562"/>
      <point x="254" y="539"/>
      <point x="254" y="529" type="qcurve"/>
      <point x="254" y="490"/>
      <point x="292" y="420"/>
      <point x="350" y="353"/>
      <point x="416" y="288"/>
      <point x="474" y="219"/>
      <point x="512" y="145"/>
      <point x="512" y="103" type="qcurve"/>
      <point x="512" y="53"/>
      <point x="481" y="0" type="qcurve"/>
      <point x="99" y="0" type="line"/>
      <point x="139" y="140" type="line"/>
      <point x="314" y="140" type="line"/>
      <point x="161" y="228" type="line"/>
      <point x="135" y="267"/>
      <point x="99" y="362"/>
      <point x="99" y="421" type="qcurve"/>
      <point x="99" y="457"/>
      <point x="117" y="530"/>
      <point x="148" y="599"/>
      <point x="192" y="662"/>
      <point x="219" y="688" type="qcurve"/>
      <point x="158" y="750"/>
      <point x="101" y="867"/>
      <point x="101" y="936" type="qcurve"/>
      <point x="101" y="972"/>
      <point x="116" y="1052"/>
      <point x="131" y="1100" type="qcurve"/>
      <point x="220" y="1100" type="line"/>
      <point x="220" y="1042"/>
      <point x="275" y="937"/>
      <point x="363" y="842"/>
      <point x="473" y="758"/>
      <point x="529" y="721" type="qcurve"/>
      <point x="529" y="624" type="line"/>
      <point x="568" y="659"/>
      <point x="617" y="711"/>
      <point x="643" y="753"/>
      <point x="652" y="790"/>
      <point x="652" y="811" type="qcurve"/>
      <point x="652" y="823" type="line"/>
      <point x="607" y="858"/>
      <point x="566" y="924"/>
      <point x="566" y="969" type="qcurve"/>
      <point x="566" y="1020"/>
      <point x="594" y="1100" type="qcurve"/>
    </contour>
  </outline>
</glyph>
<glyph name="onethirds" format="1">
  <advance width="1500"/>
  <unicode hex="2153"/>
  <outline>
    <contour>
      <point x="454" y="0" type="line"/>
      <point x="319" y="0" type="line"/>
      <point x="1094" y="1500" type="line"/>
      <point x="1220" y="1500" type="line"/>
    </contour>
    <contour>
      <point x="175" y="720" type="line"/>
      <point x="189" y="800" type="line"/>
      <point x="311" y="800" type="line"/>
      <point x="396" y="1283" type="line"/>
      <point x="445" y="1396" type="line"/>
      <point x="361" y="1303" type="line"/>
      <point x="238" y="1209" type="line"/>
      <point x="195" y="1270" type="line"/>
      <point x="461" y="1480" type="line"/>
      <point x="529" y="1470" type="line"/>
      <point x="411" y="800" type="line"/>
      <point x="534" y="800" type="line"/>
      <point x="520" y="720" type="line"/>
    </contour>
    <contour>
      <point x="1078" y="670" type="line"/>
      <point x="1100" y="750" type="line"/>
      <point x="1465" y="750" type="line"/>
      <point x="1452" y="680" type="line"/>
      <point x="1443" y="660"/>
      <point x="1407" y="616"/>
      <point x="1360" y="572"/>
      <point x="1307" y="529"/>
      <point x="1281" y="509" type="qcurve"/>
      <point x="1208" y="472" type="line"/>
      <point x="1213" y="473"/>
      <point x="1229" y="473"/>
      <point x="1236" y="474" type="qcurve"/>
      <point x="1273" y="475"/>
      <point x="1345" y="448"/>
      <point x="1400" y="396"/>
      <point x="1431" y="322"/>
      <point x="1425" y="276" type="qcurve"/>
      <point x="1419" y="224"/>
      <point x="1374" y="142"/>
      <point x="1305" y="81"/>
      <point x="1216" y="38"/>
      <point x="1115" y="12"/>
      <point x="1006" y="0"/>
      <point x="953" y="0" type="qcurve"/>
      <point x="967" y="80" type="line"/>
      <point x="1006" y="80"/>
      <point x="1089" y="89"/>
      <point x="1167" y="107"/>
      <point x="1237" y="136"/>
      <point x="1290" y="178"/>
      <point x="1322" y="235"/>
      <point x="1324" y="271" type="qcurve"/>
      <point x="1326" y="303"/>
      <point x="1302" y="351"/>
      <point x="1255" y="382"/>
      <point x="1190" y="396"/>
      <point x="1150" y="395" type="qcurve"/>
      <point x="1134" y="394"/>
      <point x="1096" y="393"/>
      <point x="1081" y="392" type="qcurve"/>
      <point x="1095" y="470" type="line"/>
      <point x="1118" y="485"/>
      <point x="1173" y="523"/>
      <point x="1229" y="564"/>
      <point x="1283" y="607"/>
      <point x="1328" y="645"/>
      <point x="1360" y="679"/>
      <point x="1366" y="690" type="qcurve"/>
      <point x="1286" y="670" type="line"/>
    </contour>
  </outline>
</glyph>
<glyph name="onefifth" format="1">
  <advance width="1500"/>
  <unicode hex="2155"/>
  <outline>
    <contour>
      <point x="454" y="0" type="line"/>
      <point x="319" y="0" type="line"/>
      <point x="1094" y="1500" type="line"/>
      <point x="1220" y="1500" type="line"/>
    </contour>
    <contour>
      <point x="175" y="720" type="line"/>
      <point x="189" y="800" type="line"/>
      <point x="311" y="800" type="line"/>
      <point x="396" y="1283" type="line"/>
      <point x="445" y="1396" type="line"/>
      <point x="361" y="1303" type="line"/>
      <point x="238" y="1209" type="line"/>
      <point x="195" y="1270" type="line"/>
      <point x="461" y="1480" type="line"/>
      <point x="529" y="1470" type="line"/>
      <point x="411" y="800" type="line"/>
      <point x="534" y="800" type="line"/>
      <point x="520" y="720" type="line"/>
    </contour>
    <contour>
      <point x="1138" y="491" type="line"/>
      <point x="1142" y="493"/>
      <point x="1160" y="502"/>
      <point x="1184" y="511"/>
      <point x="1212" y="517"/>
      <point x="1225" y="517" type="qcurve"/>
      <point x="1279" y="517"/>
      <point x="1356" y="485"/>
      <point x="1404" y="429"/>
      <point x="1424" y="353"/>
      <point x="1422" y="309" type="qcurve"/>
      <point x="1418" y="254"/>
      <point x="1378" y="166"/>
      <point x="1311" y="97"/>
      <point x="1223" y="47"/>
      <point x="1121" y="15"/>
      <point x="1009" y="0"/>
      <point x="953" y="0" type="qcurve"/>
      <point x="967" y="80" type="line"/>
      <point x="1038" y="80"/>
      <point x="1164" y="112"/>
      <point x="1260" y="170"/>
      <point x="1318" y="250"/>
      <point x="1322" y="299" type="qcurve"/>
      <point x="1324" y="325"/>
      <point x="1309" y="373"/>
      <point x="1277" y="410"/>
      <point x="1230" y="433"/>
      <point x="1201" y="433" type="qcurve"/>
      <point x="1160" y="433"/>
      <point x="1104" y="416"/>
      <point x="1080" y="400" type="qcurve"/>
      <point x="1023" y="400" type="line"/>
      <point x="1085" y="750" type="line"/>
      <point x="1456" y="750" type="line"/>
      <point x="1442" y="670" type="line"/>
      <point x="1170" y="670" type="line"/>
    </contour>
  </outline>
</glyph>
<glyph name="threefifths" format="1">
  <advance width="1500"/>
  <unicode hex="2157"/>
  <outline>
    <contour>
      <point x="454" y="0" type="line"/>
      <point x="319" y="0" type="line"/>
      <point x="1094" y="1500" type="line"/>
      <point x="1220" y="1500" type="line"/>
    </contour>
    <contour>
      <point x="1138" y="491" type="line"/>
      <point x="1142" y="493"/>
      <point x="1160" y="502"/>
      <point x="1184" y="511"/>
      <point x="1212" y="517"/>
      <point x="1225" y="517" type="qcurve"/>
      <point x="1279" y="517"/>
      <point x="1356" y="485"/>
      <point x="1404" y="429"/>
      <point x="1424" y="353"/>
      <point x="1422" y="309" type="qcurve"/>
      <point x="1418" y="254"/>
      <point x="1378" y="166"/>
      <point x="1311" y="97"/>
      <point x="1223" y="47"/>
      <point x="1121" y="15"/>
      <point x="1009" y="0"/>
      <point x="953" y="0" type="qcurve"/>
      <point x="967" y="80" type="line"/>
      <point x="1038" y="80"/>
      <point x="1164" y="112"/>
      <point x="1260" y="170"/>
      <point x="1318" y="250"/>
      <point x="1322" y="299" type="qcurve"/>
      <point x="1324" y="325"/>
      <point x="1309" y="373"/>
      <point x="1277" y="410"/>
      <point x="1230" y="433"/>
      <point x="1201" y="433" type="qcurve"/>
      <point x="1160" y="433"/>
      <point x="1104" y="416"/>
      <point x="1080" y="400" type="qcurve"/>
      <point x="1023" y="400" type="line"/>
      <point x="1085" y="750" type="line"/>
      <point x="1456" y="750" type="line"/>
      <point x="1442" y="670" type="line"/>
      <point x="1170" y="670" type="line"/>
    </contour>
    <contour>
      <point x="225" y="1390" type="line"/>
      <point x="247" y="1470" type="line"/>
      <point x="612" y="1470" type="line"/>
      <point x="599" y="1400" type="line"/>
      <point x="590" y="1380"/>
      <point x="554" y="1336"/>
      <point x="507" y="1292"/>
      <point x="454" y="1249"/>
      <point x="428" y="1229" type="qcurve"/>
      <point x="355" y="1192" type="line"/>
      <point x="360" y="1193"/>
      <point x="376" y="1193"/>
      <point x="383" y="1194" type="qcurve"/>
      <point x="420" y="1195"/>
      <point x="492" y="1168"/>
      <point x="547" y="1116"/>
      <point x="578" y="1042"/>
      <point x="572" y="996" type="qcurve"/>
      <point x="566" y="944"/>
      <point x="521" y="862"/>
      <point x="452" y="801"/>
      <point x="363" y="758"/>
      <point x="262" y="732"/>
      <point x="153" y="720"/>
      <point x="100" y="720" type="qcurve"/>
      <point x="114" y="800" type="line"/>
      <point x="153" y="800"/>
      <point x="236" y="809"/>
      <point x="314" y="827"/>
      <point x="384" y="856"/>
      <point x="437" y="898"/>
      <point x="469" y="955"/>
      <point x="471" y="991" type="qcurve"/>
      <point x="473" y="1023"/>
      <point x="449" y="1071"/>
      <point x="402" y="1102"/>
      <point x="337" y="1116"/>
      <point x="297" y="1115" type="qcurve"/>
      <point x="281" y="1114"/>
      <point x="243" y="1113"/>
      <point x="228" y="1112" type="qcurve"/>
      <point x="242" y="1190" type="line"/>
      <point x="265" y="1205"/>
      <point x="320" y="1243"/>
      <point x="376" y="1284"/>
      <point x="430" y="1327"/>
      <point x="475" y="1365"/>
      <point x="507" y="1399"/>
      <point x="513" y="1410" type="qcurve"/>
      <point x="433" y="1390" type="line"/>
    </contour>
  </outline>
</glyph>
<glyph name="fourfifths" format="1">
  <advance width="1500"/>
  <unicode hex="2158"/>
  <outline>
    <contour>
      <point x="454" y="0" type="line"/>
      <point x="319" y="0" type="line"/>
      <point x="1094" y="1500" type="line"/>
      <point x="1220" y="1500" type="line"/>
    </contour>
    <contour>
      <point x="1138" y="491" type="line"/>
      <point x="1142" y="493"/>
      <point x="1160" y="502"/>
      <point x="1184" y="511"/>
      <point x="1212" y="517"/>
      <point x="1225" y="517" type="qcurve"/>
      <point x="1279" y="517"/>
      <point x="1356" y="485"/>
      <point x="1404" y="429"/>
      <point x="1424" y="353"/>
      <point x="1422" y="309" type="qcurve"/>
      <point x="1418" y="254"/>
      <point x="1378" y="166"/>
      <point x="1311" y="97"/>
      <point x="1223" y="47"/>
      <point x="1121" y="15"/>
      <point x="1009" y="0"/>
      <point x="953" y="0" type="qcurve"/>
      <point x="967" y="80" type="line"/>
      <point x="1038" y="80"/>
      <point x="1164" y="112"/>
      <point x="1260" y="170"/>
      <point x="1318" y="250"/>
      <point x="1322" y="299" type="qcurve"/>
      <point x="1324" y="325"/>
      <point x="1309" y="373"/>
      <point x="1277" y="410"/>
      <point x="1230" y="433"/>
      <point x="1201" y="433" type="qcurve"/>
      <point x="1160" y="433"/>
      <point x="1104" y="416"/>
      <point x="1080" y="400" type="qcurve"/>
      <point x="1023" y="400" type="line"/>
      <point x="1085" y="750" type="line"/>
      <point x="1456" y="750" type="line"/>
      <point x="1442" y="670" type="line"/>
      <point x="1170" y="670" type="line"/>
    </contour>
    <contour>
      <point x="563" y="870" type="line"/>
      <point x="473" y="870" type="line"/>
      <point x="447" y="720" type="line"/>
      <point x="347" y="720" type="line"/>
      <point x="373" y="870" type="line"/>
      <point x="76" y="870" type="line"/>
      <point x="91" y="955" type="line"/>
      <point x="426" y="1480" type="line"/>
      <point x="518" y="1470" type="line"/>
      <point x="231" y="1020" type="line"/>
      <point x="173" y="950" type="line"/>
      <point x="388" y="950" type="line"/>
      <point x="423" y="1153" type="line"/>
      <point x="522" y="1145" type="line"/>
      <point x="488" y="950" type="line"/>
      <point x="585" y="950" type="line"/>
    </contour>
  </outline>
</glyph>
<glyph name="onesixth" format="1">
  <advance width="1500"/>
  <unicode hex="2159"/>
  <outline>
    <contour>
      <point x="454" y="0" type="line"/>
      <point x="319" y="0" type="line"/>
      <point x="1094" y="1500" type="line"/>
      <point x="1220" y="1500" type="line"/>
    </contour>
    <contour>
      <point x="175" y="720" type="line"/>
      <point x="189" y="800" type="line"/>
      <point x="311" y="800" type="line"/>
      <point x="396" y="1283" type="line"/>
      <point x="445" y="1396" type="line"/>
      <point x="361" y="1303" type="line"/>
      <point x="238" y="1209" type="line"/>
      <point x="195" y="1270" type="line"/>
      <point x="461" y="1480" type="line"/>
      <point x="529" y="1470" type="line"/>
      <point x="411" y="800" type="line"/>
      <point x="534" y="800" type="line"/>
      <point x="520" y="720" type="line"/>
    </contour>
    <contour>
      <point x="1435" y="672" type="line"/>
      <point x="1432" y="673"/>
      <point x="1419" y="673"/>
      <point x="1413" y="673" type="qcurve"/>
      <point x="1369" y="673"/>
      <point x="1292" y="651"/>
      <point x="1225" y="610"/>
      <point x="1168" y="553"/>
      <point x="1123" y="484"/>
      <point x="1088" y="406"/>
      <point x="1077" y="365" type="qcurve"/>
      <point x="1129" y="423" type="line"/>
      <point x="1143" y="431"/>
      <point x="1179" y="447"/>
      <point x="1218" y="458"/>
      <point x="1257" y="465"/>
      <point x="1274" y="463" type="qcurve"/>
      <point x="1317" y="460"/>
      <point x="1386" y="436"/>
      <point x="1435" y="388"/>
      <point x="1459" y="312"/>
      <point x="1458" y="256" type="qcurve"/>
      <point x="1457" y="220"/>
      <point x="1434" y="150"/>
      <point x="1396" y="89"/>
      <point x="1343" y="39"/>
      <point x="1278" y="5"/>
      <point x="1204" y="-12"/>
      <point x="1164" y="-9" type="qcurve"/>
      <point x="1120" y="-5"/>
      <point x="1055" y="29"/>
      <point x="1011" y="80"/>
      <point x="984" y="145"/>
      <point x="971" y="214"/>
      <point x="970" y="281"/>
      <point x="972" y="310" type="qcurve"/>
      <point x="977" y="370"/>
      <point x="1015" y="483"/>
      <point x="1076" y="582"/>
      <point x="1158" y="665"/>
      <point x="1257" y="725"/>
      <point x="1371" y="758"/>
      <point x="1433" y="758" type="qcurve"/>
      <point x="1440" y="758"/>
      <point x="1458" y="758"/>
      <point x="1463" y="757" type="qcurve"/>
    </contour>
    <contour>
      <point x="1070" y="298" type="qcurve"/>
      <point x="1067" y="284"/>
      <point x="1064" y="261"/>
      <point x="1062" y="239"/>
      <point x="1062" y="217"/>
      <point x="1063" y="203" type="qcurve"/>
      <point x="1065" y="181"/>
      <point x="1081" y="139"/>
      <point x="1110" y="104"/>
      <point x="1152" y="80"/>
      <point x="1180" y="76" type="qcurve"/>
      <point x="1214" y="71"/>
      <point x="1276" y="93"/>
      <point x="1323" y="139"/>
      <point x="1354" y="208"/>
      <point x="1358" y="251" type="qcurve"/>
      <point x="1362" y="304"/>
      <point x="1307" y="373"/>
      <point x="1251" y="378" type="qcurve"/>
      <point x="1194" y="384"/>
      <point x="1103" y="344"/>
    </contour>
  </outline>
</glyph>
<glyph name="oneeighth" format="1">
  <advance width="1500"/>
  <unicode hex="215B"/>
  <outline>
    <contour>
      <point x="454" y="0" type="line"/>
      <point x="319" y="0" type="line"/>
      <point x="1094" y="1500" type="line"/>
      <point x="1220" y="1500" type="line"/>
    </contour>
    <contour>
      <point x="175" y="720" type="line"/>
      <point x="189" y="800" type="line"/>
      <point x="311" y="800" type="line"/>
      <point x="396" y="1283" type="line"/>
      <point x="445" y="1396" type="line"/>
      <point x="361" y="1303" type="line"/>
      <point x="238" y="1209" type="line"/>
      <point x="195" y="1270" type="line"/>
      <point x="461" y="1480" type="line"/>
      <point x="529" y="1470" type="line"/>
      <point x="411" y="800" type="line"/>
      <point x="534" y="800" type="line"/>
      <point x="520" y="720" type="line"/>
    </contour>
    <contour>
      <point x="1292" y="758" type="qcurve"/>
      <point x="1335" y="756"/>
      <point x="1404" y="731"/>
      <point x="1450" y="685"/>
      <point x="1471" y="620"/>
      <point x="1467" y="577" type="qcurve"/>
      <point x="1464" y="547"/>
      <point x="1440" y="501"/>
      <point x="1405" y="465"/>
      <point x="1360" y="436"/>
      <point x="1336" y="423" type="qcurve"/>
      <point x="1370" y="406"/>
      <point x="1416" y="364"/>
      <point x="1444" y="311"/>
      <point x="1453" y="245"/>
      <point x="1450" y="205" type="qcurve"/>
      <point x="1446" y="167"/>
      <point x="1419" y="105"/>
      <point x="1376" y="56"/>
      <point x="1321" y="20"/>
      <point x="1259" y="-3"/>
      <point x="1192" y="-11"/>
      <point x="1160" y="-9" type="qcurve"/>
      <point x="1113" y="-5"/>
      <point x="1034" y="24"/>
      <point x="980" y="78"/>
      <point x="954" y="158"/>
      <point x="959" y="212" type="qcurve"/>
      <point x="963" y="252"/>
      <point x="995" y="317"/>
      <point x="1044" y="369"/>
      <point x="1107" y="409"/>
      <point x="1142" y="425" type="qcurve"/>
      <point x="1121" y="439"/>
      <point x="1089" y="471"/>
      <point x="1068" y="506"/>
      <point x="1059" y="547"/>
      <point x="1061" y="572" type="qcurve"/>
      <point x="1064" y="621"/>
      <point x="1108" y="693"/>
      <point x="1173" y="739"/>
      <point x="1252" y="760"/>
    </contour>
    <contour>
      <point x="1220" y="380" type="qcurve"/>
      <point x="1186" y="366"/>
      <point x="1126" y="334"/>
      <point x="1081" y="293"/>
      <point x="1053" y="241"/>
      <point x="1052" y="207" type="qcurve"/>
      <point x="1050" y="176"/>
      <point x="1067" y="129"/>
      <point x="1100" y="96"/>
      <point x="1146" y="77"/>
      <point x="1174" y="73" type="qcurve"/>
      <point x="1206" y="69"/>
      <point x="1270" y="86"/>
      <point x="1322" y="121"/>
      <point x="1355" y="174"/>
      <point x="1356" y="207" type="qcurve"/>
      <point x="1357" y="242"/>
      <point x="1336" y="294"/>
      <point x="1298" y="335"/>
      <point x="1248" y="367"/>
    </contour>
    <contour>
      <point x="1254" y="461" type="qcurve"/>
      <point x="1279" y="472"/>
      <point x="1323" y="496"/>
      <point x="1356" y="525"/>
      <point x="1376" y="560"/>
      <point x="1376" y="581" type="qcurve"/>
      <point x="1377" y="607"/>
      <point x="1362" y="641"/>
      <point x="1336" y="663"/>
      <point x="1304" y="674"/>
      <point x="1287" y="676" type="qcurve"/>
      <point x="1264" y="678"/>
      <point x="1217" y="665"/>
      <point x="1179" y="639"/>
      <point x="1154" y="603"/>
      <point x="1154" y="583" type="qcurve"/>
      <point x="1154" y="560"/>
      <point x="1169" y="524"/>
      <point x="1195" y="496"/>
      <point x="1232" y="472"/>
    </contour>
  </outline>
</glyph>
<glyph name="threeeighths" format="1">
  <advance width="1500"/>
  <unicode hex="215C"/>
  <outline>
    <contour>
      <point x="454" y="0" type="line"/>
      <point x="319" y="0" type="line"/>
      <point x="1094" y="1500" type="line"/>
      <point x="1220" y="1500" type="line"/>
    </contour>
    <contour>
      <point x="225" y="1390" type="line"/>
      <point x="247" y="1470" type="line"/>
      <point x="612" y="1470" type="line"/>
      <point x="599" y="1400" type="line"/>
      <point x="590" y="1380"/>
      <point x="554" y="1336"/>
      <point x="507" y="1292"/>
      <point x="454" y="1249"/>
      <point x="428" y="1229" type="qcurve"/>
      <point x="355" y="1192" type="line"/>
      <point x="360" y="1193"/>
      <point x="376" y="1193"/>
      <point x="383" y="1194" type="qcurve"/>
      <point x="420" y="1195"/>
      <point x="492" y="1168"/>
      <point x="547" y="1116"/>
      <point x="578" y="1042"/>
      <point x="572" y="996" type="qcurve"/>
      <point x="566" y="944"/>
      <point x="521" y="862"/>
      <point x="452" y="801"/>
      <point x="363" y="758"/>
      <point x="262" y="732"/>
      <point x="153" y="720"/>
      <point x="100" y="720" type="qcurve"/>
      <point x="114" y="800" type="line"/>
      <point x="153" y="800"/>
      <point x="236" y="809"/>
      <point x="314" y="827"/>
      <point x="384" y="856"/>
      <point x="437" y="898"/>
      <point x="469" y="955"/>
      <point x="471" y="991" type="qcurve"/>
      <point x="473" y="1023"/>
      <point x="449" y="1071"/>
      <point x="402" y="1102"/>
      <point x="337" y="1116"/>
      <point x="297" y="1115" type="qcurve"/>
      <point x="281" y="1114"/>
      <point x="243" y="1113"/>
      <point x="228" y="1112" type="qcurve"/>
      <point x="242" y="1190" type="line"/>
      <point x="265" y="1205"/>
      <point x="320" y="1243"/>
      <point x="376" y="1284"/>
      <point x="430" y="1327"/>
      <point x="475" y="1365"/>
      <point x="507" y="1399"/>
      <point x="513" y="1410" type="qcurve"/>
      <point x="433" y="1390" type="line"/>
    </contour>
    <contour>
      <point x="1292" y="758" type="qcurve"/>
      <point x="1335" y="756"/>
      <point x="1404" y="731"/>
      <point x="1450" y="685"/>
      <point x="1471" y="620"/>
      <point x="1467" y="577" type="qcurve"/>
      <point x="1464" y="547"/>
      <point x="1440" y="501"/>
      <point x="1405" y="465"/>
      <point x="1360" y="436"/>
      <point x="1336" y="423" type="qcurve"/>
      <point x="1370" y="406"/>
      <point x="1416" y="364"/>
      <point x="1444" y="311"/>
      <point x="1453" y="245"/>
      <point x="1450" y="205" type="qcurve"/>
      <point x="1446" y="167"/>
      <point x="1419" y="105"/>
      <point x="1376" y="56"/>
      <point x="1321" y="20"/>
      <point x="1259" y="-3"/>
      <point x="1192" y="-11"/>
      <point x="1160" y="-9" type="qcurve"/>
      <point x="1113" y="-5"/>
      <point x="1034" y="24"/>
      <point x="980" y="78"/>
      <point x="954" y="158"/>
      <point x="959" y="212" type="qcurve"/>
      <point x="963" y="252"/>
      <point x="995" y="317"/>
      <point x="1044" y="369"/>
      <point x="1107" y="409"/>
      <point x="1142" y="425" type="qcurve"/>
      <point x="1121" y="439"/>
      <point x="1089" y="471"/>
      <point x="1068" y="506"/>
      <point x="1059" y="547"/>
      <point x="1061" y="572" type="qcurve"/>
      <point x="1064" y="621"/>
      <point x="1108" y="693"/>
      <point x="1173" y="739"/>
      <point x="1252" y="760"/>
    </contour>
    <contour>
      <point x="1220" y="380" type="qcurve"/>
      <point x="1186" y="366"/>
      <point x="1126" y="334"/>
      <point x="1081" y="293"/>
      <point x="1053" y="241"/>
      <point x="1052" y="207" type="qcurve"/>
      <point x="1050" y="176"/>
      <point x="1067" y="129"/>
      <point x="1100" y="96"/>
      <point x="1146" y="77"/>
      <point x="1174" y="73" type="qcurve"/>
      <point x="1206" y="69"/>
      <point x="1270" y="86"/>
      <point x="1322" y="121"/>
      <point x="1355" y="174"/>
      <point x="1356" y="207" type="qcurve"/>
      <point x="1357" y="242"/>
      <point x="1336" y="294"/>
      <point x="1298" y="335"/>
      <point x="1248" y="367"/>
    </contour>
    <contour>
      <point x="1254" y="461" type="qcurve"/>
      <point x="1279" y="472"/>
      <point x="1323" y="496"/>
      <point x="1356" y="525"/>
      <point x="1376" y="560"/>
      <point x="1376" y="581" type="qcurve"/>
      <point x="1377" y="607"/>
      <point x="1362" y="641"/>
      <point x="1336" y="663"/>
      <point x="1304" y="674"/>
      <point x="1287" y="676" type="qcurve"/>
      <point x="1264" y="678"/>
      <point x="1217" y="665"/>
      <point x="1179" y="639"/>
      <point x="1154" y="603"/>
      <point x="1154" y="583" type="qcurve"/>
      <point x="1154" y="560"/>
      <point x="1169" y="524"/>
      <point x="1195" y="496"/>
      <point x="1232" y="472"/>
    </contour>
  </outline>
</glyph>
<glyph name="seveneighths" format="1">
  <advance width="1500"/>
  <unicode hex="215E"/>
  <outline>
    <contour>
      <point x="454" y="0" type="line"/>
      <point x="319" y="0" type="line"/>
      <point x="1094" y="1500" type="line"/>
      <point x="1220" y="1500" type="line"/>
    </contour>
    <contour>
      <point x="1292" y="758" type="qcurve"/>
      <point x="1335" y="756"/>
      <point x="1404" y="731"/>
      <point x="1450" y="685"/>
      <point x="1471" y="620"/>
      <point x="1467" y="577" type="qcurve"/>
      <point x="1464" y="547"/>
      <point x="1440" y="501"/>
      <point x="1405" y="465"/>
      <point x="1360" y="436"/>
      <point x="1336" y="423" type="qcurve"/>
      <point x="1370" y="406"/>
      <point x="1416" y="364"/>
      <point x="1444" y="311"/>
      <point x="1453" y="245"/>
      <point x="1450" y="205" type="qcurve"/>
      <point x="1446" y="167"/>
      <point x="1419" y="105"/>
      <point x="1376" y="56"/>
      <point x="1321" y="20"/>
      <point x="1259" y="-3"/>
      <point x="1192" y="-11"/>
      <point x="1160" y="-9" type="qcurve"/>
      <point x="1113" y="-5"/>
      <point x="1034" y="24"/>
      <point x="980" y="78"/>
      <point x="954" y="158"/>
      <point x="959" y="212" type="qcurve"/>
      <point x="963" y="252"/>
      <point x="995" y="317"/>
      <point x="1044" y="369"/>
      <point x="1107" y="409"/>
      <point x="1142" y="425" type="qcurve"/>
      <point x="1121" y="439"/>
      <point x="1089" y="471"/>
      <point x="1068" y="506"/>
      <point x="1059" y="547"/>
      <point x="1061" y="572" type="qcurve"/>
      <point x="1064" y="621"/>
      <point x="1108" y="693"/>
      <point x="1173" y="739"/>
      <point x="1252" y="760"/>
    </contour>
    <contour>
      <point x="1220" y="380" type="qcurve"/>
      <point x="1186" y="366"/>
      <point x="1126" y="334"/>
      <point x="1081" y="293"/>
      <point x="1053" y="241"/>
      <point x="1052" y="207" type="qcurve"/>
      <point x="1050" y="176"/>
      <point x="1067" y="129"/>
      <point x="1100" y="96"/>
      <point x="1146" y="77"/>
      <point x="1174" y="73" type="qcurve"/>
      <point x="1206" y="69"/>
      <point x="1270" y="86"/>
      <point x="1322" y="121"/>
      <point x="1355" y="174"/>
      <point x="1356" y="207" type="qcurve"/>
      <point x="1357" y="242"/>
      <point x="1336" y="294"/>
      <point x="1298" y="335"/>
      <point x="1248" y="367"/>
    </contour>
    <contour>
      <point x="1254" y="461" type="qcurve"/>
      <point x="1279" y="472"/>
      <point x="1323" y="496"/>
      <point x="1356" y="525"/>
      <point x="1376" y="560"/>
      <point x="1376" y="581" type="qcurve"/>
      <point x="1377" y="607"/>
      <point x="1362" y="641"/>
      <point x="1336" y="663"/>
      <point x="1304" y="674"/>
      <point x="1287" y="676" type="qcurve"/>
      <point x="1264" y="678"/>
      <point x="1217" y="665"/>
      <point x="1179" y="639"/>
      <point x="1154" y="603"/>
      <point x="1154" y="583" type="qcurve"/>
      <point x="1154" y="560"/>
      <point x="1169" y="524"/>
      <point x="1195" y="496"/>
      <point x="1232" y="472"/>
    </contour>
    <contour>
      <point x="232" y="1470" type="line"/>
      <point x="678" y="1470" type="line"/>
      <point x="667" y="1405" type="line"/>
      <point x="663" y="1384"/>
      <point x="619" y="1321"/>
      <point x="555" y="1243"/>
      <point x="479" y="1150"/>
      <point x="408" y="1048"/>
      <point x="349" y="940"/>
      <point x="334" y="884" type="qcurve"/>
      <point x="329" y="864"/>
      <point x="318" y="820"/>
      <point x="309" y="777"/>
      <point x="302" y="737"/>
      <point x="299" y="720" type="qcurve"/>
      <point x="200" y="720" type="line"/>
      <point x="202" y="735"/>
      <point x="212" y="785"/>
      <point x="225" y="841"/>
      <point x="239" y="896"/>
      <point x="245" y="916" type="qcurve"/>
      <point x="263" y="970"/>
      <point x="319" y="1075"/>
      <point x="384" y="1170"/>
      <point x="452" y="1254"/>
      <point x="510" y="1323"/>
      <point x="551" y="1375"/>
      <point x="557" y="1390" type="qcurve"/>
      <point x="218" y="1390" type="line"/>
    </contour>
  </outline>
</glyph>
<glyph name="arrowdblnorthwest" format="1">
  <advance width="1300"/>
  <unicode hex="21D6"/>
  <outline>
    <contour>
      <point x="229" y="1100" type="line"/>
      <point x="747" y="1100" type="line"/>
      <point x="867" y="979" type="line"/>
      <point x="521" y="979" type="line"/>
      <point x="583" y="900" type="line"/>
      <point x="1220" y="262" type="line"/>
      <point x="1138" y="180" type="line"/>
      <point x="607" y="712" type="line"/>
      <point x="379" y="979" type="line"/>
      <point x="207" y="993" type="line"/>
      <point x="221" y="821" type="line"/>
      <point x="488" y="593" type="line"/>
      <point x="1020" y="62" type="line"/>
      <point x="938" y="-20" type="line"/>
      <point x="300" y="617" type="line"/>
      <point x="221" y="680" type="line"/>
      <point x="221" y="333" type="line"/>
      <point x="100" y="453" type="line"/>
      <point x="100" y="971" type="line"/>
      <point x="89" y="1111" type="line"/>
    </contour>
  </outline>
</glyph>
<glyph name="partialdiff" format="1">
  <advance width="1200"/>
  <unicode hex="2202"/>
  <outline>
    <contour>
      <point x="882" y="644" type="qcurve"/>
      <point x="866" y="668"/>
      <point x="808" y="712"/>
      <point x="736" y="745"/>
      <point x="656" y="765"/>
      <point x="620" y="765" type="qcurve"/>
      <point x="531" y="765"/>
      <point x="402" y="697"/>
      <point x="317" y="586"/>
      <point x="276" y="445"/>
      <point x="276" y="373" type="qcurve"/>
      <point x="276" y="334"/>
      <point x="301" y="248"/>
      <point x="359" y="175"/>
      <point x="452" y="128"/>
      <point x="521" y="128" type="qcurve"/>
      <point x="575" y="128"/>
      <point x="670" y="177"/>
      <point x="749" y="258"/>
      <point x="810" y="364"/>
      <point x="854" y="479"/>
      <point x="880" y="594"/>
    </contour>
    <contour>
      <point x="1075" y="780" type="qcurve"/>
      <point x="1075" y="699"/>
      <point x="1046" y="518"/>
      <point x="986" y="341"/>
      <point x="895" y="179"/>
      <point x="772" y="56"/>
      <point x="616" y="-17"/>
      <point x="521" y="-17" type="qcurve"/>
      <point x="428" y="-17"/>
      <point x="270" y="39"/>
      <point x="155" y="139"/>
      <point x="90" y="278"/>
      <point x="90" y="361" type="qcurve"/>
      <point x="90" y="494"/>
      <point x="166" y="691"/>
      <point x="294" y="821"/>
      <point x="458" y="885"/>
      <point x="547" y="885" type="qcurve"/>
      <point x="613" y="885"/>
      <point x="717" y="863"/>
      <point x="799" y="827"/>
      <point x="863" y="779"/>
      <point x="889" y="753" type="qcurve"/>
      <point x="889" y="889"/>
      <point x="847" y="1114"/>
      <point x="758" y="1273"/>
      <point x="618" y="1361"/>
      <point x="521" y="1361" type="qcurve"/>
      <point x="490" y="1361"/>
      <point x="437" y="1355"/>
      <point x="386" y="1341"/>
      <point x="332" y="1317"/>
      <point x="300" y="1300" type="qcurve"/>
      <point x="216" y="1431" type="line"/>
      <point x="244" y="1449"/>
      <point x="312" y="1480"/>
      <point x="387" y="1503"/>
      <point x="466" y="1517"/>
      <point x="505" y="1517" type="qcurve"/>
      <point x="641" y="1517"/>
      <point x="853" y="1424"/>
      <point x="999" y="1240"/>
      <point x="1075" y="964"/>
    </contour>
  </outline>
</glyph>
<glyph name="theredoesnotexist" format="1">
  <advance width="1300"/>
  <unicode hex="2204"/>
  <outline>
    <contour>
      <point x="420" y="-200" type="line"/>
      <point x="265" y="-200" type="line"/>
      <point x="874" y="1500" type="line"/>
      <point x="1020" y="1500" type="line"/>
    </contour>
    <contour>
      <point x="1015" y="160" type="line"/>
      <point x="1000" y="350" type="line"/>
      <point x="1000" y="650" type="line"/>
      <point x="248" y="650" type="line"/>
      <point x="230" y="800" type="line"/>
      <point x="1000" y="800" type="line"/>
      <point x="1000" y="950" type="line"/>
      <point x="1020" y="1150" type="line"/>
      <point x="175" y="1150" type="line"/>
      <point x="175" y="1300" type="line"/>
      <point x="1192" y="1300" type="line"/>
      <point x="1170" y="1100" type="line"/>
      <point x="1170" y="200" type="line"/>
      <point x="1187" y="0" type="line"/>
      <point x="175" y="0" type="line"/>
      <point x="175" y="160" type="line"/>
    </contour>
  </outline>
</glyph>
<glyph name="minus" format="1">
  <advance width="1200"/>
  <unicode hex="2212"/>
  <outline>
    <contour>
      <point x="223" y="700" type="line"/>
      <point x="1123" y="700" type="line"/>
      <point x="1096" y="545" type="line"/>
      <point x="196" y="545" type="line"/>
    </contour>
  </outline>
</glyph>
<glyph name="similar" format="1">
  <advance width="1000"/>
  <unicode hex="223C"/>
  <outline>
    <contour>
      <point x="730" y="400" type="qcurve"/>
      <point x="695" y="400"/>
      <point x="637" y="425"/>
      <point x="587" y="463"/>
      <point x="542" y="507"/>
      <point x="498" y="545"/>
      <point x="451" y="570"/>
      <point x="425" y="570" type="qcurve"/>
      <point x="394" y="570"/>
      <point x="336" y="555"/>
      <point x="277" y="527"/>
      <point x="215" y="486"/>
      <point x="181" y="460" type="qcurve"/>
      <point x="198" y="560" type="line"/>
      <point x="219" y="588"/>
      <point x="268" y="638"/>
      <point x="330" y="677"/>
      <point x="410" y="700"/>
      <point x="463" y="700" type="qcurve"/>
      <point x="498" y="700"/>
      <point x="556" y="675"/>
      <point x="606" y="637"/>
      <point x="652" y="593"/>
      <point x="696" y="555"/>
      <point x="742" y="530"/>
      <point x="768" y="530" type="qcurve"/>
      <point x="829" y="530"/>
      <point x="943" y="587"/>
      <point x="1012" y="640" type="qcurve"/>
      <point x="995" y="540" type="line"/>
      <point x="975" y="510"/>
      <point x="926" y="459"/>
      <point x="863" y="421"/>
      <point x="782" y="400"/>
    </contour>
  </outline>
</glyph>
<glyph name="congruent" format="1">
  <advance width="1000"/>
  <unicode hex="2245"/>
  <outline>
    <contour>
      <point x="205" y="600" type="line"/>
      <point x="1005" y="600" type="line"/>
      <point x="981" y="460" type="line"/>
      <point x="181" y="460" type="line"/>
    </contour>
    <contour>
      <point x="152" y="300" type="line"/>
      <point x="952" y="300" type="line"/>
      <point x="928" y="160" type="line"/>
      <point x="128" y="160" type="line"/>
    </contour>
    <contour>
      <point x="782" y="700" type="qcurve"/>
      <point x="747" y="700"/>
      <point x="689" y="725"/>
      <point x="639" y="763"/>
      <point x="594" y="807"/>
      <point x="550" y="845"/>
      <point x="503" y="870"/>
      <point x="477" y="870" type="qcurve"/>
      <point x="446" y="870"/>
      <point x="388" y="855"/>
      <point x="329" y="827"/>
      <point x="267" y="786"/>
      <point x="233" y="760" type="qcurve"/>
      <point x="250" y="860" type="line"/>
      <point x="271" y="888"/>
      <point x="320" y="938"/>
      <point x="382" y="977"/>
      <point x="462" y="1000"/>
      <point x="515" y="1000" type="qcurve"/>
      <point x="550" y="1000"/>
      <point x="608" y="975"/>
      <point x="658" y="937"/>
      <point x="704" y="893"/>
      <point x="748" y="855"/>
      <point x="794" y="830"/>
      <point x="820" y="830" type="qcurve"/>
      <point x="881" y="830"/>
      <point x="995" y="887"/>
      <point x="1064" y="940" type="qcurve"/>
      <point x="1047" y="840" type="line"/>
      <point x="1027" y="810"/>
      <point x="978" y="759"/>
      <point x="915" y="721"/>
      <point x="834" y="700"/>
    </contour>
  </outline>
</glyph>
<glyph name="estimate" format="1">
  <advance width="1000"/>
  <unicode hex="2259"/>
  <outline>
    <contour>
      <point x="205" y="600" type="line"/>
      <point x="1005" y="600" type="line"/>
      <point x="981" y="460" type="line"/>
      <point x="181" y="460" type="line"/>
    </contour>
    <contour>
      <point x="152" y="300" type="line"/>
      <point x="952" y="300" type="line"/>
      <point x="928" y="160" type="line"/>
      <point x="128" y="160" type="line"/>
    </contour>
    <contour>
      <point x="1006" y="754" type="line"/>
      <point x="885" y="754" type="line"/>
      <point x="683" y="950" type="line"/>
      <point x="668" y="1017" type="line"/>
      <point x="630" y="952" type="line"/>
      <point x="376" y="755" type="line"/>
      <point x="236" y="755" type="line"/>
      <point x="631" y="1107" type="line"/>
      <point x="730" y="1117" type="line"/>
    </contour>
  </outline>
</glyph>
<glyph name="notequal" format="1">
  <advance width="1000"/>
  <unicode hex="2260"/>
  <outline>
    <contour>
      <point x="391" y="0" type="line"/>
      <point x="236" y="0" type="line"/>
      <point x="773" y="1000" type="line"/>
      <point x="919" y="1000" type="line"/>
    </contour>
    <contour>
      <point x="241" y="800" type="line"/>
      <point x="1041" y="800" type="line"/>
      <point x="1016" y="660" type="line"/>
      <point x="216" y="660" type="line"/>
    </contour>
    <contour>
      <point x="170" y="399" type="line"/>
      <point x="970" y="399" type="line"/>
      <point x="945" y="259" type="line"/>
      <point x="145" y="259" type="line"/>
    </contour>
  </outline>
</glyph>
<glyph name="perpendicular" format="1">
  <advance width="1400"/>
  <unicode hex="22A5"/>
  <outline>
    <contour>
      <point x="800" y="1300" type="line"/>
      <point x="800" y="150" type="line"/>
      <point x="1300" y="150" type="line"/>
      <point x="1280" y="0" type="line"/>
      <point x="95" y="0" type="line"/>
      <point x="115" y="150" type="line"/>
      <point x="600" y="150" type="line"/>
      <point x="600" y="1300" type="line"/>
    </contour>
  </outline>
</glyph>
<glyph name="leftceiling" format="1">
  <advance width="800"/>
  <unicode hex="2308"/>
  <outline>
    <contour>
      <point x="300" y="0" type="line"/>
      <point x="100" y="0" type="line"/>
      <point x="100" y="1500" type="line"/>
      <point x="700" y="1500" type="line"/>
      <point x="700" y="1350" type="line"/>
      <point x="300" y="1350" type="line"/>
    </contour>
  </outline>
</glyph>
<glyph name="blackrightpointingtriangle" format="1">
  <advance width="1000"/>
  <unicode hex="25B6"/>
  <outline>
    <contour>
      <point x="151" y="1135" type="line"/>
      <point x="900" y="700" type="line"/>
      <point x="151" y="266" type="line"/>
      <point x="176" y="700" type="line"/>
    </contour>
  </outline>
</glyph>
<glyph name="sun" format="1">
  <advance width="1800"/>
  <unicode hex="263C"/>
  <outline>
    <contour>
      <point x="1429" y="456" type="line"/>
      <point x="1424" y="428"/>
      <point x="1410" y="374"/>
      <point x="1400" y="347" type="qcurve"/>
      <point x="1528" y="245" type="line"/>
      <point x="1510" y="206" type="line"/>
      <point x="1350" y="244" type="line"/>
      <point x="1304" y="172"/>
      <point x="1239" y="114" type="qcurve"/>
      <point x="1329" y="-75" type="line"/>
      <point x="1298" y="-96" type="line"/>
      <point x="1147" y="47" type="line"/>
      <point x="1123" y="33"/>
      <point x="1072" y="8"/>
      <point x="1045" y="-1" type="qcurve"/>
      <point x="1067" y="-247" type="line"/>
      <point x="1036" y="-254" type="line"/>
      <point x="941" y="-27" type="line"/>
      <point x="919" y="-30"/>
      <point x="875" y="-34"/>
      <point x="852" y="-34" type="qcurve"/>
      <point x="846" y="-34"/>
      <point x="835" y="-34"/>
      <point x="829" y="-33" type="qcurve"/>
      <point x="770" y="-188" type="line"/>
      <point x="727" y="-182" type="line"/>
      <point x="713" y="-18" type="line"/>
      <point x="630" y="5"/>
      <point x="556" y="47" type="qcurve"/>
      <point x="405" y="-96" type="line"/>
      <point x="375" y="-75" type="line"/>
      <point x="464" y="114" type="line"/>
      <point x="443" y="133"/>
      <point x="403" y="174"/>
      <point x="386" y="197" type="qcurve"/>
      <point x="160" y="100" type="line"/>
      <point x="143" y="127" type="line"/>
      <point x="330" y="287" type="line"/>
      <point x="317" y="313"/>
      <point x="297" y="365"/>
      <point x="289" y="393" type="qcurve"/>
      <point x="124" y="400" type="line"/>
      <point x="117" y="442" type="line"/>
      <point x="269" y="507" type="line"/>
      <point x="269" y="518"/>
      <point x="268" y="539"/>
      <point x="268" y="551" type="qcurve"/>
      <point x="268" y="618"/>
      <point x="281" y="676" type="qcurve"/>
      <point x="99" y="776" type="line"/>
      <point x="110" y="811" type="line"/>
      <point x="316" y="784" type="line"/>
      <point x="339" y="837"/>
      <point x="372" y="884" type="qcurve"/>
      <point x="210" y="1069" type="line"/>
      <point x="231" y="1094" type="line"/>
      <point x="441" y="966" type="line"/>
      <point x="461" y="986"/>
      <point x="505" y="1021"/>
      <point x="528" y="1037" type="qcurve"/>
      <point x="484" y="1197" type="line"/>
      <point x="522" y="1216" type="line"/>
      <point x="630" y="1092" type="line"/>
      <point x="706" y="1123"/>
      <point x="795" y="1132" type="qcurve"/>
      <point x="833" y="1337" type="line"/>
      <point x="871" y="1337" type="line"/>
      <point x="909" y="1132" type="line"/>
      <point x="938" y="1129"/>
      <point x="994" y="1118"/>
      <point x="1021" y="1110" type="qcurve"/>
      <point x="1146" y="1322" type="line"/>
      <point x="1176" y="1310" type="line"/>
      <point x="1120" y="1070" type="line"/>
      <point x="1170" y="1044"/>
      <point x="1214" y="1009" type="qcurve"/>
      <point x="1353" y="1100" type="line"/>
      <point x="1383" y="1070" type="line"/>
      <point x="1297" y="929" type="line"/>
      <point x="1325" y="896"/>
      <point x="1371" y="824"/>
      <point x="1388" y="784" type="qcurve"/>
      <point x="1594" y="811" type="line"/>
      <point x="1605" y="776" type="line"/>
      <point x="1423" y="676" type="line"/>
      <point x="1428" y="649"/>
      <point x="1435" y="593"/>
      <point x="1436" y="564" type="qcurve"/>
      <point x="1675" y="509" type="line"/>
      <point x="1675" y="477" type="line"/>
    </contour>
    <contour>
      <point x="1171" y="231" type="qcurve"/>
      <point x="1236" y="296"/>
      <point x="1303" y="460"/>
      <point x="1303" y="551" type="qcurve"/>
      <point x="1303" y="642"/>
      <point x="1236" y="805"/>
      <point x="1171" y="870" type="qcurve"/>
      <point x="1107" y="934"/>
      <point x="943" y="1002"/>
      <point x="852" y="1002" type="qcurve"/>
      <point x="761" y="1002"/>
      <point x="597" y="934"/>
      <point x="533" y="870" type="qcurve"/>
      <point x="468" y="805"/>
      <point x="401" y="642"/>
      <point x="401" y="551" type="qcurve"/>
      <point x="401" y="460"/>
      <point x="468" y="296"/>
      <point x="533" y="231" type="qcurve"/>
      <point x="597" y="167"/>
      <point x="761" y="99"/>
      <point x="852" y="99" type="qcurve"/>
      <point x="943" y="99"/>
      <point x="1107" y="167"/>
    </contour>
  </outline>
</glyph>
<glyph name="night" format="1">
  <advance width="1300"/>
  <unicode hex="263E"/>
  <outline>
    <contour>
      <point x="1198" y="317" type="qcurve"/>
      <point x="1164" y="243"/>
      <point x="1057" y="120"/>
      <point x="922" y="32"/>
      <point x="763" y="-17"/>
      <point x="676" y="-17" type="qcurve"/>
      <point x="557" y="-17"/>
      <point x="347" y="74"/>
      <point x="191" y="230"/>
      <point x="100" y="440"/>
      <point x="100" y="559" type="qcurve"/>
      <point x="100" y="678"/>
      <point x="191" y="888"/>
      <point x="347" y="1044"/>
      <point x="557" y="1135"/>
      <point x="676" y="1135" type="qcurve"/>
      <point x="746" y="1135"/>
      <point x="876" y="1103"/>
      <point x="935" y="1073" type="qcurve"/>
      <point x="931" y="1051" type="line"/>
      <point x="886" y="1060"/>
      <point x="840" y="1060" type="qcurve"/>
      <point x="748" y="1060"/>
      <point x="586" y="990"/>
      <point x="466" y="870"/>
      <point x="396" y="708"/>
      <point x="396" y="616" type="qcurve"/>
      <point x="396" y="524"/>
      <point x="466" y="362"/>
      <point x="586" y="242"/>
      <point x="748" y="172"/>
      <point x="840" y="172" type="qcurve"/>
      <point x="943" y="172"/>
      <point x="1119" y="257"/>
      <point x="1180" y="330" type="qcurve"/>
      <point x="1180" y="328"/>
      <point x="1189" y="323" type="qcurve"/>
      <point x="1193" y="320"/>
    </contour>
  </outline>
</glyph>
